<?xml version="1.0" standalone="no"?>
<!DOCTYPE svg PUBLIC "-//W3C//DTD SVG 1.1//EN" "http://www.w3.org/Graphics/SVG/1.1/DTD/svg11.dtd" >
<svg xmlns="http://www.w3.org/2000/svg" xmlns:xlink="http://www.w3.org/1999/xlink" version="1.1">
<metadata>
Created by FontForge 20170731 at Mon May 28 05:36:24 2018
 By Aleksey,,,
Copyright (c) 2018 by Cosimo Lorenzo Pancini &#38; Francesco Canovaro. All rights reserved.
</metadata>
<defs>
<font id="BlackerDisplay-Regular" horiz-adv-x="1709" >
  <font-face 
    font-family="Blacker Display"
    font-weight="400"
    font-stretch="normal"
    units-per-em="2048"
    panose-1="2 0 5 3 2 0 0 2 0 3"
    ascent="1638"
    descent="-410"
    x-height="1000"
    cap-height="1439"
    bbox="-324 -647 2734 1968"
    underline-thickness="98"
    underline-position="-294"
    unicode-range="U+000D-FB06"
  />
<missing-glyph horiz-adv-x="1401" 
 />
    <glyph glyph-name=".notdef" horiz-adv-x="1401" 
 />
    <glyph glyph-name=".null" horiz-adv-x="0" 
 />
    <glyph glyph-name="uni000D" unicode="&#xd;" horiz-adv-x="400" 
 />
    <glyph glyph-name="space" unicode=" " horiz-adv-x="509" 
 />
    <glyph glyph-name="exclam" unicode="!" horiz-adv-x="507" 
d="M241 415h25l103 1024h-231zM385 115q0 56 -37 91.5t-94 35.5t-94 -35.5t-37 -91.5q0 -57 37 -92t94 -35t94 35t37 92z" />
    <glyph glyph-name="quotedbl" unicode="&#x22;" horiz-adv-x="627" 
d="M157 1140h28l74 287l-8 18h-158l-8 -18zM409 1140h29l73 287l-7 18h-159l-7 -18z" />
    <glyph glyph-name="numbersign" unicode="#" horiz-adv-x="1297" 
d="M482 949h418l-93 -471h-418zM1156 478h-280l92 471h294v60h-281l86 430h-70l-84 -430h-420l86 430h-71l-85 -430h-281v-60h269l-96 -471h-280v-59h270l-83 -419h71l83 419h418l-82 -419h70l82 419h292v59z" />
    <glyph glyph-name="dollar" unicode="$" horiz-adv-x="1101" 
d="M586 613q55 -30 103.5 -62t84.5 -69.5t57 -82t21 -99.5q0 -46 -15.5 -94t-47.5 -87.5t-82 -66.5t-121 -32v593zM271 1164q1 58 21.5 104.5t55 79.5t81.5 51t101 20v-544q-57 30 -105 60t-82.5 64.5t-53.5 75t-18 89.5zM530 1461q-98 -4 -178.5 -29.5t-138.5 -71.5
t-90.5 -112.5t-33.5 -152.5q-1 -85 35.5 -149.5t96 -115.5t134.5 -93t151 -81l24 -13v-624h-10q-73 0 -136 31.5t-117 84t-99.5 121.5t-83.5 143h-14l23 -318q38 -18 85.5 -37t102.5 -34t115 -24.5t122 -9.5h12v-199h56v202q97 6 179.5 31.5t143.5 73t96 118t36 166.5
q1 89 -32 155.5t-89 119.5t-130 96t-156 84l-48 24v570q34 -2 67 -11t68 -28q60 -36 103 -84.5t74 -96.5t50 -89.5t31 -64.5h14l-24 312q-34 17 -75.5 34.5t-88 32t-97 25t-101.5 13.5q-5 0 -10.5 0.5t-10.5 0.5v214h-56v-214z" />
    <glyph glyph-name="percent" unicode="%" horiz-adv-x="1446" 
d="M1094 718q-63 0 -117 -27.5t-93 -77t-61.5 -117.5t-22.5 -149t22.5 -149t61.5 -117.5t93 -77.5t117 -28t117.5 28t94.5 77.5t62.5 117.5t22.5 149t-22.5 149t-62.5 117.5t-94.5 77t-117.5 27.5zM334 698q63 0 117.5 28t94.5 77.5t62.5 117.5t22.5 149t-22.5 149
t-62.5 117.5t-94.5 77t-117.5 27.5t-117 -27.5t-93 -77t-61.5 -117.5t-22.5 -149t22.5 -149t61.5 -117.5t93 -77.5t117 -28zM1094 -1q-39 0 -66.5 24t-45 69t-26 109.5t-8.5 145.5q0 80 8.5 144.5t26 109.5t45 69.5t66.5 24.5t67 -24.5t46 -69.5t27 -109.5t9 -144.5
q0 -81 -9 -145.5t-27 -109.5t-46 -69t-67 -24zM188 1070q0 80 8.5 144.5t26 109.5t45 69t66.5 24t67 -24.5t46 -69.5t27 -109t9 -144q0 -81 -9 -145.5t-27 -109.5t-46 -69.5t-67 -24.5t-66.5 24.5t-45 69.5t-26 109.5t-8.5 145.5zM159 -5l44 -34l1077 1494l-49 33z" />
    <glyph glyph-name="ampersand" unicode="&#x26;" horiz-adv-x="1583" 
d="M439 727q108 -143 211.5 -269t212.5 -248q-59 -63 -125 -96.5t-145 -33.5q-71 0 -125.5 23.5t-92.5 66t-58.5 103t-24.5 134.5q-5 111 30 187t117 133zM578 1420q44 0 74.5 -18t51 -50t30.5 -75.5t12 -94.5q6 -114 -34 -194t-129 -135q-79 111 -115 197.5t-40 165.5
q-5 97 32.5 150.5t117.5 53.5zM1286 -24q61 0 110.5 17.5t87.5 49.5t66 76.5t45 98.5q-2 4 -5.5 7.5l-5.5 5.5q-38 -57 -91.5 -82.5t-128.5 -25.5q-85 0 -168 51t-179 143q21 33 45.5 83.5t48.5 104t45 102t35 77.5l170 139l-1 11h-295l1 -12l56 -131q-7 -28 -25 -74.5
t-39 -96t-42.5 -94.5t-35.5 -71q-44 46 -91 101t-94.5 114.5t-93.5 121t-89 120.5q164 70 241.5 163.5t72.5 205.5q-2 51 -26 101.5t-68.5 90.5t-109 65t-148.5 25q-58 0 -119.5 -16t-111.5 -53t-80 -97t-26 -147q2 -54 17.5 -103.5t39 -96t52.5 -91t59 -87.5
q-76 -34 -136.5 -79.5t-102 -102t-62.5 -122.5t-17 -142q3 -77 32 -141t81 -110t124.5 -71.5t162.5 -25.5q129 0 233 51.5t185 144.5q98 -91 195 -144.5t186 -53.5z" />
    <glyph glyph-name="quotesingle" unicode="'" horiz-adv-x="312" 
d="M231 1445h-158l-8 -18l72 -287h28l74 287z" />
    <glyph glyph-name="parenleft" unicode="(" horiz-adv-x="556" 
d="M541 1596q-90 -72 -162.5 -168.5t-124.5 -212t-80 -246.5t-28 -274q0 -142 27.5 -272.5t79 -244.5t124.5 -210.5t164 -170.5l23 30q-64 72 -114.5 166t-85.5 204.5t-53.5 236t-18.5 261.5t18.5 262t53 237.5t85.5 206t115 166.5z" />
    <glyph glyph-name="parenright" unicode=")" horiz-adv-x="556" 
d="M459 694q0 142 -28 273.5t-80 247t-124.5 212t-162.5 168.5l-23 -29q65 -72 115.5 -166.5t85 -206t53 -237.5t18.5 -262t-18.5 -261.5t-53.5 -236.5t-85.5 -204.5t-114.5 -166.5l23 -29q91 74 164 170t124.5 210.5t79 245t27.5 272.5z" />
    <glyph glyph-name="asterisk" unicode="*" horiz-adv-x="830" 
d="M747 1134l-52 161l-258 -147l63 291h-170l61 -293l-258 149l-53 -161l295 -32l-220 -200l138 -99l122 271l119 -271l139 99l-220 200z" />
    <glyph glyph-name="plus" unicode="+" horiz-adv-x="1003" 
d="M528 560h387v46h-387v394h-53v-394h-389v-46h389v-391h53v391z" />
    <glyph glyph-name="comma" unicode="," horiz-adv-x="474" 
d="M102 67q50 -31 78.5 -71.5t28.5 -83.5q0 -60 -31 -114t-90 -94q2 -7 5 -11.5t5 -11.5q56 22 106 59t88 84t60.5 102.5t22.5 115.5q0 75 -33.5 127t-87.5 65z" />
    <glyph glyph-name="hyphen" unicode="-" horiz-adv-x="705" 
d="M612 520v81h-517v-81h517z" />
    <glyph glyph-name="period" unicode="." horiz-adv-x="459" 
d="M99 101q0 -28 10 -51t27.5 -39.5t41 -25.5t51.5 -9q58 0 94 34.5t36 90.5t-36 91t-94 35q-28 0 -51.5 -9.5t-41 -26t-27.5 -39.5t-10 -51z" />
    <glyph glyph-name="slash" unicode="/" horiz-adv-x="787" 
d="M94 -293l671 1869h-60l-673 -1869h62z" />
    <glyph glyph-name="zero" unicode="0" horiz-adv-x="1315" 
d="M1226 719q0 162 -43.5 298t-120 235t-181 154t-227.5 55q-122 0 -225.5 -55t-179.5 -154t-118.5 -235t-42.5 -298t43 -298t118.5 -235t179.5 -154.5t225 -55.5q123 0 227.5 55.5t181 154.5t120 235t43.5 298zM321 719q0 159 20 288t61.5 220.5t104 141.5t147.5 50
q86 0 149.5 -50t105.5 -141.5t62.5 -221t20.5 -287.5t-20.5 -287.5t-62.5 -221t-105.5 -141.5t-149.5 -50q-85 0 -147.5 50t-104 141.5t-61.5 221t-20 287.5z" />
    <glyph glyph-name="one" unicode="1" horiz-adv-x="748" 
d="M83 1234v-14h211v-1108l-163 -93v-19h538v19l-163 93v1352h-15z" />
    <glyph glyph-name="two" unicode="2" horiz-adv-x="1088" 
d="M93 999q6 19 19.5 57.5t35.5 85.5t52.5 96t71 89t92 66t113.5 26q65 0 116.5 -22.5t87 -65t54 -103t18.5 -135.5q0 -103 -45 -214t-135 -235.5t-224 -264.5t-311 -302l9 -77h898l60 422l-10 1l-211 -259h-561q177 143 317.5 262.5t238 228t149 213.5t51.5 219
q0 84 -31 153.5t-92 118.5t-152 76t-211 27q-54 -1 -102 -5.5t-95 -14.5t-94.5 -25.5t-101.5 -38.5l-26 -379h19z" />
    <glyph glyph-name="three" unicode="3" horiz-adv-x="1131" 
d="M380 727q96 -10 177 -37t139.5 -73t91 -112.5t32.5 -157.5q0 -71 -21 -131t-62 -104t-101 -68.5t-137 -24.5q-84 0 -146.5 36.5t-109.5 96t-82 135t-62 153.5h-19l26 -374q26 -17 68 -33t93.5 -29t109.5 -20.5t115 -7.5q120 0 219 29t170.5 82.5t111 128t39.5 164.5
q0 80 -29 146t-81.5 117.5t-126.5 87.5t-163 55q172 42 264 129.5t92 208.5q0 73 -30.5 135t-88 107t-140.5 70.5t-188 25.5q-67 0 -125 -7.5t-107.5 -19.5t-90.5 -27t-74 -30l-26 -379h18q15 41 33 88t42 93.5t54.5 90t69.5 76.5t88 52.5t110 19.5q58 0 102 -22.5t74 -62
t45 -93.5t15 -118q0 -78 -26 -137t-75.5 -102t-122 -72.5t-165.5 -49.5v-35z" />
    <glyph glyph-name="four" unicode="4" horiz-adv-x="1149" 
d="M122 484l482 718v-718h-482zM814 398h215v86h-215v954h-102l-693 -1010l12 -30h572v-286l-164 -93v-19h539v19l-164 93v286z" />
    <glyph glyph-name="five" unicode="5" horiz-adv-x="1100" 
d="M958 1439h-711l-86 -673l23 -14q26 8 49 14t45.5 9.5t46.5 5.5t52 2q108 0 190.5 -28t137.5 -80t83 -124.5t28 -161.5q0 -81 -21.5 -149t-63 -117t-102.5 -76.5t-141 -27.5q-63 0 -116.5 30t-98.5 85t-82.5 132.5t-67.5 172.5h-17v-371q32 -19 74 -35.5t91.5 -29t104 -20
t111.5 -7.5q119 0 218.5 32t171 91t111.5 143t40 187q0 107 -45.5 194t-125 149t-188.5 96t-237 34q-60 0 -109.5 -5.5t-97.5 -18.5l49 397h684v164z" />
    <glyph glyph-name="six" unicode="6" horiz-adv-x="1195" 
d="M611 19q-75 0 -130.5 35.5t-91.5 98.5t-53.5 148.5t-17.5 185.5q0 54 4.5 108.5t13.5 102.5q51 75 121.5 110t153.5 35q143 0 216.5 -101t73.5 -296q0 -100 -19.5 -179t-57 -134t-91.5 -84.5t-122 -29.5zM348 765q24 105 69.5 202.5t116.5 184.5t170 162.5t230 136.5
l-11 22q-223 -64 -382 -165t-260 -225.5t-148 -266t-47 -287.5q0 -120 37.5 -221t106.5 -175t165 -115.5t213 -41.5q112 0 208 37.5t166 105t109.5 161t39.5 206.5q0 100 -33 182t-91 140t-137.5 90t-172.5 32q-117 0 -203 -45.5t-146 -119.5z" />
    <glyph glyph-name="seven" unicode="7" horiz-adv-x="1015" 
d="M906 1270q-118 -177 -228 -340.5t-204.5 -318t-171 -301.5t-129.5 -291v-19h228q58 190 129 369.5t150 349t164 330t170 312.5l-11 78h-933v-169h836z" />
    <glyph glyph-name="eight" unicode="8" horiz-adv-x="1181" 
d="M586 19q-77 0 -138 21t-103 61.5t-64 98.5t-22 131q0 56 13 108t41 98t72 83.5t106 65.5q8 -4 17.5 -7.5t16.5 -8.5q101 -44 173 -83.5t118.5 -81.5t68.5 -90t22 -108q0 -67 -21.5 -120.5t-63 -90.5t-101 -57t-135.5 -20zM862 1140q0 -47 -10 -92t-33 -86t-60 -76.5
t-91 -64.5q-85 37 -148 73.5t-104.5 76t-62 85t-20.5 101.5q0 60 17.5 108t51 82.5t83.5 53t115 18.5q130 0 196 -74t66 -205zM1103 369q-1 61 -18.5 116.5t-59 107t-111 100t-173.5 95.5q78 25 134.5 61.5t94 81t55.5 94t18 100.5q0 75 -33 137.5t-93 106.5t-143 68.5
t-182 24.5q-102 0 -186.5 -27t-145 -75.5t-94 -117t-33.5 -151.5q0 -112 69.5 -203.5t216.5 -165.5q-82 -22 -146 -61t-107.5 -89.5t-66 -109.5t-22.5 -121q0 -83 37 -150.5t104.5 -115t162 -73.5t208.5 -26q111 0 205 26.5t163 76.5t107.5 123t38.5 167z" />
    <glyph glyph-name="nine" unicode="9" horiz-adv-x="1195" 
d="M294 1002q0 100 19.5 179t57 134t91.5 84.5t122 29.5q76 0 131.5 -35.5t91.5 -98t53.5 -148t17.5 -185.5q0 -54 -5 -109t-13 -103q-51 -74 -122 -109.5t-153 -35.5q-143 0 -217 101t-74 296zM847 684q-24 -105 -69 -202.5t-116.5 -184.5t-170.5 -162.5t-230 -136.5
l12 -22q223 65 381.5 165.5t259.5 225t148 266t47 286.5q0 120 -37.5 221.5t-106 175.5t-164.5 115.5t-213 41.5q-112 0 -208 -37.5t-166.5 -105t-110 -161t-39.5 -206.5q0 -100 33 -182t91 -140t138 -90t173 -32q116 0 202 45.5t146 119.5z" />
    <glyph glyph-name="colon" unicode=":" horiz-adv-x="459" 
d="M99 901q0 -28 10 -51t27.5 -39.5t41 -26t51.5 -9.5q58 0 94 35t36 91q0 55 -36 90.5t-94 35.5q-28 0 -51.5 -9.5t-41 -26t-27.5 -39.5t-10 -51zM229 227q-28 0 -51.5 -9.5t-41 -26t-27.5 -39.5t-10 -51t10 -51t27.5 -39.5t41 -25.5t51.5 -9q58 0 94 34.5t36 90.5t-36 91
t-94 35z" />
    <glyph glyph-name="semicolon" unicode=";" horiz-adv-x="474" 
d="M88 -296q2 -7 5 -11.5t5 -11.5q56 22 106 59t88 84t60.5 102.5t22.5 115.5q0 75 -33.5 127t-87.5 65l-152 -167q50 -31 78.5 -71.5t28.5 -83.5q0 -60 -31 -114t-90 -94zM229 1026q-28 0 -51.5 -9.5t-41 -26t-27.5 -39.5t-10 -51t10 -51t27.5 -39.5t41 -25.5t51.5 -9
q58 0 94 34.5t36 90.5q0 55 -36 90.5t-94 35.5z" />
    <glyph glyph-name="less" unicode="&#x3c;" horiz-adv-x="992" 
d="M861 985l-782 -389v-33l782 -387l10 53l-716 350l716 350z" />
    <glyph glyph-name="equal" unicode="=" horiz-adv-x="1003" 
d="M915 290v46h-829v-46h829zM915 615v46h-829v-46h829z" />
    <glyph glyph-name="greater" unicode="&#x3e;" horiz-adv-x="992" 
d="M109 229l10 -53l782 387v33l-782 389l-10 -56l716 -350z" />
    <glyph glyph-name="question" unicode="?" horiz-adv-x="942" 
d="M385 -12q58 0 93.5 35t35.5 91q0 55 -35.5 90t-93.5 35q-57 0 -93.5 -35t-36.5 -90q0 -28 10 -51t27.5 -39.5t41 -26t51.5 -9.5zM444 568q92 89 171.5 160t138 136t91.5 131.5t33 146.5q0 78 -30.5 137.5t-87.5 100t-138.5 61.5t-183.5 21q-49 0 -98 -6t-94 -16.5
t-84.5 -24.5t-70.5 -29l-12 -289h17q26 51 62.5 105.5t79 101t88 78t89.5 36.5q117 0 179 -72.5t62 -203.5q0 -69 -32.5 -143.5t-81.5 -149t-107 -146.5t-110 -135l41 -161h27z" />
    <glyph glyph-name="at" unicode="@" horiz-adv-x="1960" 
d="M690 551q17 108 53.5 195.5t88 148.5t115.5 94t136 33q39 0 74.5 -13t61 -38.5t39 -64.5t10.5 -91q-11 -158 -34.5 -272.5t-54.5 -193.5t-67 -127t-72 -74.5t-68.5 -35t-57.5 -8.5q-67 0 -116.5 29.5t-79 86.5t-37.5 140.5t9 190.5zM1377 45q117 0 214.5 50.5t168 136.5
t109.5 199t39 238q0 174 -66 313t-183 237t-277 150.5t-348 52.5q-215 0 -392.5 -72t-304 -199t-196.5 -300t-70 -374q0 -193 67.5 -350t187 -268t284 -171t358.5 -60q84 0 171 12t170.5 33.5t159.5 52t138 67.5l-14 32q-63 -32 -139.5 -58.5t-158.5 -45t-166.5 -28.5
t-164.5 -10q-177 0 -317.5 57.5t-237.5 163t-148.5 254.5t-51.5 332q0 190 59 351t168 278t262 183t340 66q167 0 302.5 -48.5t231.5 -139.5t148 -222.5t52 -296.5q0 -118 -22.5 -218.5t-65 -173.5t-103 -114t-137.5 -41q-45 0 -62.5 25.5t-12.5 67.5l129 826h-29l-118 -115
q-17 30 -46 55.5t-64.5 44t-75.5 29t-80 10.5q-123 0 -227 -42.5t-184 -117.5t-132.5 -177.5t-71.5 -221.5q-16 -103 -4.5 -193t53 -156.5t112 -104.5t172.5 -38q56 0 111.5 13.5t106.5 40t94 66.5t73 93q7 -40 25.5 -72t44.5 -54.5t57 -35t62 -12.5z" />
    <glyph glyph-name="A" unicode="A" horiz-adv-x="1460" 
d="M902 515h-522l261 735zM1278 111l-490 1328h-277v-19l95 -135l-422 -1174l-179 -92v-19h443v19l-210 93h-1l127 359h554l128 -359l-161 -93v-19h562v19z" />
    <glyph glyph-name="B" unicode="B" horiz-adv-x="1277" 
d="M988 388q0 -79 -21.5 -143t-65.5 -109t-111.5 -69t-159.5 -24h-213v680h226q90 0 155 -23.5t107.5 -67.5t62.5 -105.5t20 -138.5zM417 1396h198q82 0 142 -22t99.5 -62.5t58.5 -98t19 -128.5q0 -67 -17.5 -125t-54 -101t-93.5 -68t-136 -25h-216v630zM837 750
q79 17 139.5 50t102 78.5t62.5 102t21 119.5q0 69 -28.5 130.5t-88 108t-152 73.5t-221.5 27h-630v-19l163 -93v-1215l-163 -93v-19h574q143 0 255.5 22t190 68.5t118.5 119.5t41 175q0 70 -24.5 132t-73 110t-120 80t-166.5 43z" />
    <glyph glyph-name="C" unicode="C" horiz-adv-x="1367" 
d="M1237 1354q-106 48 -217 78t-228 30q-167 0 -300.5 -56t-227 -156t-143.5 -237t-50 -299q0 -161 51.5 -296.5t145.5 -233.5t226 -153t292 -55q122 0 231 29t220 78l26 372h-18q-8 -27 -25.5 -80t-50.5 -113t-86.5 -118.5t-133.5 -97.5l-9 -5q-39 -12 -75.5 -17t-69.5 -5
q-118 0 -209 50t-153.5 141.5t-95 220t-32.5 285.5q0 153 30.5 281.5t90 222t148 146t205.5 52.5q39 0 79.5 -5t82.5 -18l8 -4q82 -39 135 -97t86 -117.5t49.5 -112t25.5 -81.5h18z" />
    <glyph glyph-name="D" unicode="D" horiz-adv-x="1466" 
d="M664 1396q251 0 374 -172t123 -516q0 -161 -29.5 -285t-91.5 -208.5t-158.5 -128t-231.5 -43.5h-233v1353h247zM42 19v-19h624q169 0 304 48t229 140t144.5 226t50.5 307t-50.5 306.5t-143.5 225t-225 139t-295 47.5h-634v-19l159 -91v-1218z" />
    <glyph glyph-name="E" unicode="E" horiz-adv-x="1208" 
d="M719 760h-302v636h466l172 -323h9v366h-1022v-19l163 -93v-1216l-163 -92v-19h1089l53 366l-9 1l-224 -324h-534v674h302l120 -189h17v416h-17z" />
    <glyph glyph-name="F" unicode="F" horiz-adv-x="1136" 
d="M839 935l-120 -183h-302v644h457l172 -323h9v366h-1013v-19l163 -93v-1216l-163 -92v-19h559v19l-184 93v596h302l120 -189h17v416h-17z" />
    <glyph glyph-name="G" unicode="G" horiz-adv-x="1430" 
d="M1238 1354q-100 45 -210.5 76.5t-222.5 31.5q-175 0 -312 -56.5t-230.5 -156.5t-142.5 -236.5t-49 -296.5q0 -162 50 -297.5t143.5 -234t227 -153.5t300.5 -55q93 0 171.5 17t142 42.5t113 56.5t85.5 59l7 5v504h-398v-13l199 -113l-1 -332q0 -35 -26.5 -68t-67.5 -58.5
t-90.5 -41t-96.5 -15.5q-132 0 -231 49.5t-164 140.5t-97.5 219t-32.5 287q0 139 26 266.5t83.5 224.5t148.5 155t221 58q37 0 75.5 -5t78.5 -18l11 -5q82 -39 135 -97t86 -117.5t49.5 -112t25.5 -81.5h19z" />
    <glyph glyph-name="H" unicode="H" horiz-adv-x="1540" 
d="M960 0h539v19l-164 93v1215l164 93v19h-539v-19l163 -93v-569h-706v569l163 93v19h-538v-19l163 -93v-1216l-163 -92v-19h538v19l-163 93v602h706v-603l-163 -92v-19z" />
    <glyph glyph-name="I" unicode="I" horiz-adv-x="622" 
d="M42 19v-19h538v19l-163 93v1215l163 93v19h-538v-19l163 -93v-1216z" />
    <glyph glyph-name="J" unicode="J" horiz-adv-x="984" 
d="M380 19q-28 0 -57.5 22t-59 58t-56.5 82t-50 94.5t-40 95.5t-27 84h-20l28 -391q27 -18 62.5 -34t75.5 -28t82.5 -19t84.5 -7q80 0 150.5 24t122.5 69t82 110t30 148v1000l162 93v19h-559v-19l184 -93h1v-919q0 -92 -9.5 -164t-32 -122t-60.5 -76.5t-94 -26.5z" />
    <glyph glyph-name="K" unicode="K" horiz-adv-x="1439" 
d="M42 1420l163 -93v-1216l-163 -92v-19h538v19l-163 93v1215l163 93v19h-538v-19zM486 729l522 -729h364v30l-172 82l-546 727l465 488l185 93v19h-508v-19l247 -104z" />
    <glyph glyph-name="L" unicode="L" horiz-adv-x="1130" 
d="M42 0h1015l53 366l-9 1l-224 -324h-460v1284l184 93v19h-559v-19l163 -93v-1216l-163 -92v-19z" />
    <glyph glyph-name="M" unicode="M" horiz-adv-x="1809" 
d="M911 358l-523 1081h-345v-19l166 -93v-1201l-169 -108v-18h381v18l-168 108v1117l545 -1121l53 13l541 1110v-1133l-163 -94v-18h539v18l-164 94v1215l164 93v19h-332z" />
    <glyph glyph-name="N" unicode="N" horiz-adv-x="1439" 
d="M350 1439h-307v-19l166 -93v-1201l-166 -108v-18h378v18l-168 108v1103l913 -1255l63 26v1313l168 108v18h-381v-18l168 -108v-1021z" />
    <glyph glyph-name="O" unicode="O" horiz-adv-x="1541" 
d="M769 1462q-153 0 -281.5 -55.5t-221 -154.5t-144 -235.5t-51.5 -299.5q0 -162 51.5 -298.5t144 -234.5t221 -153t281.5 -55q155 0 283.5 55t221.5 153.5t144.5 234.5t51.5 299t-52 299.5t-145 235.5t-221.5 154t-282.5 55zM305 717q0 159 30.5 288.5t90 221t146 141.5
t197.5 50t198 -50t147 -141.5t91 -221t31 -288.5t-31 -288t-91 -220t-147 -140.5t-198 -49.5t-197.5 49.5t-146 141t-90 220.5t-30.5 287z" />
    <glyph glyph-name="P" unicode="P" horiz-adv-x="1218" 
d="M511 633v-43h103q132 0 236 29t176 84.5t110.5 137t38.5 185.5q0 89 -31.5 164.5t-95 131t-159.5 86.5t-226 31h-621v-19l163 -93v-1216l-163 -92v-19h559v19l-184 93v1284h179q83 0 148.5 -22t111 -67.5t70 -115t24.5 -164.5q0 -96 -23.5 -169t-67 -122.5t-105 -75
t-138.5 -26.5z" />
    <glyph glyph-name="Q" unicode="Q" horiz-adv-x="1541" 
d="M1236 717q0 -159 -31 -288t-91 -220t-147 -140.5t-198 -49.5t-197.5 49.5t-146 141t-90 220.5t-30.5 287q0 159 30.5 288.5t90 221t146 141.5t197.5 50t198 -50t147 -141.5t91 -221t31 -288.5zM769 1462q-153 0 -281.5 -55.5t-221 -154.5t-144 -235.5t-51.5 -299.5
q0 -160 50 -294.5t140.5 -232.5t215.5 -154t275 -59l538 -353l213 105v12l-591 248q125 24 228 87t176.5 158t113.5 218t40 266q0 163 -52 299.5t-145 235.5t-221.5 154t-282.5 55z" />
    <glyph glyph-name="R" unicode="R" horiz-adv-x="1418" 
d="M1170 1080q0 81 -31.5 147t-93.5 113t-154 73t-213 26h-636v-19l163 -93v-1216l-163 -92v-19h538v19l-163 93v1284h198q88 0 150.5 -23t102 -65.5t57.5 -102t18 -132.5q0 -84 -20 -151t-62.5 -113.5t-108.5 -71.5t-158 -26l-103 -1l5 -41h87q23 0 47 1t48 3l352 -673h332
l-1 18l-141 91l-323 557q-31 2 -61 6.5t-56 12.5q79 14 149.5 43t124 76.5t85 115.5t31.5 160z" />
    <glyph glyph-name="S" unicode="S" horiz-adv-x="1101" 
d="M993 1043l-24 312q-91 45 -193.5 76t-205.5 31q-106 0 -194 -23.5t-151.5 -69.5t-99 -114.5t-36.5 -159.5q-1 -85 35.5 -149.5t96 -115.5t134.5 -93t151 -81q68 -35 130.5 -70.5t110.5 -77.5t77 -92.5t28 -115.5q0 -49 -17 -99t-53 -90.5t-92 -66t-136 -25.5h-34
q-73 0 -136 31.5t-117 84t-99.5 121.5t-83.5 143h-14l23 -318q38 -18 85.5 -37t102.5 -34t115 -24.5t122 -9.5q109 0 204 22t165.5 69.5t111.5 121.5t42 179q1 89 -32 155.5t-89 119.5t-130 96t-156 84q-76 38 -142.5 73.5t-116 74.5t-77.5 86t-27 107t22.5 107.5t58 80
t85.5 50t105 17.5q46 0 89.5 -8.5t89.5 -32.5q60 -36 103 -84.5t74 -96.5t50 -89.5t31 -64.5h14z" />
    <glyph glyph-name="T" unicode="T" horiz-adv-x="1248" 
d="M1020 1396l156 -278h9v321h-1123v-321h11l154 278h291v-1284l-163 -93v-19h539v19l-164 93v1284h290z" />
    <glyph glyph-name="U" unicode="U" horiz-adv-x="1407" 
d="M1388 1421v18h-381v-18l168 -108v-829q0 -96 -21.5 -181t-68 -148t-121 -99.5t-181.5 -36.5q-87 0 -158 30t-121 88.5t-77.5 143.5t-27.5 194v852l163 93v19h-538v-19l163 -93v-855q0 -121 40.5 -213.5t112 -155.5t169.5 -95t214 -32q134 0 228.5 36t154 104.5t87 168
t27.5 225.5v803z" />
    <glyph glyph-name="V" unicode="V" horiz-adv-x="1410" 
d="M984 1420l206 -93h2l-402 -1128l-380 1127l186 94v19h-589v-19l169 -93l471 -1327h116l475 1328l179 92v19h-433v-19z" />
    <glyph glyph-name="W" unicode="W" horiz-adv-x="2065" 
d="M1822 1327h8l-336 -1110l-332 1109h6l177 94v19h-556v-19l144 -92l79 -251l-280 -857l-309 1106h1l167 94v19h-562v-19l160 -92l403 -1328h113l329 1007l318 -1007h121l403 1329l178 90v20h-430v-20z" />
    <glyph glyph-name="X" unicode="X" horiz-adv-x="1399" 
d="M1116 1327h4l-357 -484l-309 483l165 92v21h-570v-21l155 -92l406 -633l-413 -584l-184 -89v-20h416v20l-175 92h-2l384 541l346 -542l-164 -91v-20h568v20l-154 91l-444 693l387 525l185 89v21h-420v-21z" />
    <glyph glyph-name="Y" unicode="Y" horiz-adv-x="1386" 
d="M777 721l-351 605h1l151 92v21h-565v-21l177 -92l397 -687v-527l-163 -93v-19h538v19l-163 93v562l400 653h1l190 91v21h-454v-21l210 -94z" />
    <glyph glyph-name="Z" unicode="Z" horiz-adv-x="1269" 
d="M111 1117l216 279h586l-845 -1373q2 -7 3 -12.5t1 -10.5h1097l45 321l-9 1l-216 -279h-669l847 1372q0 6 -1 11.5t-1 12.5h-1018l-45 -320z" />
    <glyph glyph-name="bracketleft" unicode="[" horiz-adv-x="626" 
d="M595 -180v38h-293v1708h293v35h-414v-1781h414z" />
    <glyph glyph-name="backslash" unicode="\" horiz-adv-x="787" 
d="M717 -323h61l-674 1869h-61z" />
    <glyph glyph-name="bracketright" unicode="]" horiz-adv-x="626" 
d="M276 -142h-293v-38h414v1781h-414v-35h293v-1708z" />
    <glyph glyph-name="asciicircum" unicode="^" horiz-adv-x="854" 
d="M66 905l38 -22l321 478l325 -478l37 22l-354 616h-13z" />
    <glyph glyph-name="underscore" unicode="_" horiz-adv-x="988" 
d="M957 -201v45h-926v-45h926z" />
    <glyph glyph-name="grave" unicode="`" horiz-adv-x="749" 
d="M463 1529h-214l-7 -14l340 -290h16z" />
    <glyph glyph-name="a" unicode="a" horiz-adv-x="1033" 
d="M261 243q0 63 29 112.5t81 86.5t124 59.5t158 31.5v-377q-47 -42 -104.5 -60.5t-124.5 -18.5q-85 0 -124 43.5t-39 122.5zM850 689q0 71 -15 132t-52.5 107t-101.5 72t-162 26q-121 0 -223.5 -40.5t-174.5 -105.5l13 -19q60 35 128.5 51t146.5 16q68 0 114.5 -19
t75.5 -52t41.5 -78t12.5 -97v-115q-116 -7 -223.5 -34t-190 -73.5t-132 -112t-49.5 -149.5q0 -53 19.5 -94t55 -69.5t84.5 -43.5t109 -15q99 0 184 40t148 105l24 -145l278 62v12l-110 67v572z" />
    <glyph glyph-name="b" unicode="b" horiz-adv-x="1135" 
d="M852 486q0 -108 -20.5 -196t-59 -151t-94 -97t-125.5 -34q-81 0 -141.5 42.5t-92.5 130.5v653q43 49 98.5 76.5t120.5 27.5q72 0 130.5 -30t99 -88t62.5 -142t22 -192zM122 150q36 -45 84.5 -77t103.5 -53t113.5 -32t115.5 -12q128 0 226.5 43t165.5 118t101.5 176
t34.5 217q0 113 -31 204.5t-87 156.5t-134 100.5t-173 35.5q-99 0 -183.5 -41t-139.5 -107v612l-12 11l-295 -73v-13l110 -68v-1198z" />
    <glyph glyph-name="c" unicode="c" horiz-adv-x="1019" 
d="M605 1027q-114 0 -211.5 -39.5t-169 -111.5t-112.5 -174.5t-41 -228.5q0 -112 34.5 -204t95.5 -157t146 -100.5t185 -35.5q143 0 248.5 60t168.5 159l-12 14q-27 -27 -63 -49.5t-77 -38t-85.5 -24t-88.5 -8.5q-82 0 -145 32t-105.5 91t-64.5 142.5t-22 187.5
q0 102 19.5 185t58.5 142t98.5 91.5t139.5 33.5q15 0 31.5 -2t30.5 -4.5t24 -5t13 -3.5q20 -24 39 -56t38.5 -68.5t38.5 -76t37 -78.5h18l42 267q-24 9 -59.5 19.5t-77.5 19.5t-86.5 15t-85.5 6z" />
    <glyph glyph-name="d" unicode="d" horiz-adv-x="1191" 
d="M286 516q0 106 22.5 193.5t63.5 150.5t99.5 97.5t131.5 34.5q37 0 72 -11.5t63.5 -34.5t49.5 -59t31 -85v-641q-100 -87 -229 -87q-70 0 -126.5 29t-96 85.5t-60.5 139t-21 188.5zM714 1429v-20l105 -58v-403q-45 38 -101.5 58.5t-122.5 20.5q-121 0 -217.5 -42
t-164.5 -116.5t-104.5 -177.5t-36.5 -226q0 -107 28 -197t81.5 -155t130 -101t172.5 -36q59 0 108 12t90 32.5t75.5 47t65.5 55.5l25 -147l278 62v12l-110 67v1374l-12 11z" />
    <glyph glyph-name="e" unicode="e" horiz-adv-x="1022" 
d="M543 992q109 0 167 -92.5t58 -276.5l-486 -22q5 88 24.5 160t53.5 123.5t80 79.5t103 28zM940 209q-27 -27 -62 -49t-76.5 -37.5t-87 -24.5t-92.5 -9q-83 0 -146.5 30.5t-107 87.5t-66 138.5t-23.5 183.5v24.5t2 22.5h690q0 94 -28 176.5t-81.5 143.5t-131.5 96t-178 35
q-104 0 -192 -39.5t-152 -112t-100 -173.5t-36 -224q0 -111 33 -203.5t93.5 -159t145 -103t187.5 -36.5q146 0 252 60t171 159z" />
    <glyph glyph-name="f" unicode="f" horiz-adv-x="675" 
d="M393 90v878h236v32h-236l-55 183q-21 69 -18.5 129.5t23.5 106.5t59.5 72.5t90.5 26.5q14 0 30 -4.5t19 -5.5q18 -30 35 -58.5t34 -58t34.5 -61.5t37.5 -70h18l36 238q-40 20 -101.5 37t-137.5 17q-84 0 -159.5 -28t-126.5 -82.5t-68 -134.5t16 -185l37 -122h-161v-32
h160v-878l-156 -71v-19h521v19z" />
    <glyph glyph-name="g" unicode="g" horiz-adv-x="1115" 
d="M511 357q-54 0 -94 22.5t-66.5 63.5t-39.5 100t-13 131t12.5 130.5t38.5 100t66.5 64.5t95.5 23q54 0 94 -22.5t66.5 -64.5t39 -100.5t12.5 -130.5q0 -73 -13 -131.5t-39.5 -100t-66 -63.5t-93.5 -22zM535 -390q-172 0 -266 57.5t-94 161.5q0 27 8 49.5t20.5 41t29 34.5
t32.5 29q44 -10 95.5 -13t105.5 -3q60 0 118 2t110 2q47 0 86 -8t66.5 -26t43 -47.5t15.5 -71.5q0 -99 -93 -153.5t-277 -54.5zM928 674q0 74 -29 135.5t-82 109.5l220 -4v166l-11 3l-245 -140q-59 42 -127 62.5t-143 20.5q-87 0 -163 -26t-132.5 -72.5t-89 -111
t-32.5 -140.5q0 -96 49.5 -174.5t135.5 -127.5q-35 -19 -67 -42.5t-56 -51.5t-38.5 -61.5t-14.5 -72.5q0 -51 30.5 -90.5t96.5 -59.5q-42 -16 -78.5 -37.5t-64 -48t-43.5 -58t-16 -67.5q0 -48 32.5 -87.5t94.5 -67t152.5 -42.5t207.5 -15q123 0 223 22t170.5 62.5t108.5 98
t38 127.5q0 137 -97.5 200t-275.5 63h-273q-99 0 -143 18t-44 70q0 37 24.5 69t67.5 55q43 -19 91.5 -28.5t105.5 -9.5q91 0 167.5 26.5t132 74t86.5 112t31 140.5z" />
    <glyph glyph-name="h" unicode="h" horiz-adv-x="1252" 
d="M1218 0v19l-155 71h-1v634q0 67 -23 123t-64.5 96t-99.5 62t-128 22q-106 0 -197 -43t-163 -116v623l-12 11l-290 -74v-19l105 -58v-1261l-156 -71v-19h506v19l-153 71v734q52 54 115.5 79t133.5 25q116 0 173 -61.5t57 -162.5v-614l-153 -71v-19h505z" />
    <glyph glyph-name="i" unicode="i" horiz-adv-x="577" 
d="M52 953v-18l138 -59v-786l-156 -72v-18h508v18l-155 72v926l-12 11zM161 1339q0 -51 33.5 -83t85.5 -32q54 0 87.5 32t33.5 83q0 49 -33.5 82t-87.5 33q-52 0 -85.5 -32.5t-33.5 -82.5z" />
    <glyph glyph-name="j" unicode="j" horiz-adv-x="508" 
d="M164 876v-932q0 -120 -40.5 -200.5t-117.5 -141.5l5 -17q94 21 160.5 69.5t108.5 117t61.5 152.5t19.5 175v917l-12 11l-323 -74v-18zM255 1224q53 0 86 32t33 83q0 49 -33 82t-86 33q-54 0 -87.5 -32.5t-33.5 -82.5q0 -51 33.5 -83t87.5 -32z" />
    <glyph glyph-name="k" unicode="k" horiz-adv-x="1153" 
d="M1086 988v12h-371v-12l168 -79l-496 -507v1089l-12 11l-290 -74v-20l105 -57v-1261l-156 -72v-18h508v18l-155 72v272l117 116l363 -478h241v19l-480 573l301 317z" />
    <glyph glyph-name="l" unicode="l" horiz-adv-x="577" 
d="M85 1428v-19l105 -58v-1261l-156 -72v-18h508v18l-155 72v1401l-12 11z" />
    <glyph glyph-name="m" unicode="m" horiz-adv-x="1840" 
d="M668 18v-18h503v18l-153 72v625q0 23 -2 49.5t-6 49.5q46 51 107 82.5t134 31.5q54 0 92.5 -15.5t63 -44t35.5 -67.5t11 -87v-624l-153 -72v-18h505v18l-155 72v636q0 75 -23.5 131.5t-63.5 94t-93.5 56.5t-113.5 19q-55 0 -106 -14t-96 -38t-84 -56.5t-70 -69.5
q-19 50 -48 84t-64.5 55t-76.5 30t-85 9q-51 0 -99.5 -12t-92 -34t-81 -51t-67.5 -64v20l1 130l-12 11l-324 -74v-18l139 -59v-786l-156 -72v-18h506v18l-153 72l-1 733q46 49 106 77t131 28q51 0 88.5 -16t62 -44.5t36 -68.5t11.5 -88v-621z" />
    <glyph glyph-name="n" unicode="n" horiz-adv-x="1253" 
d="M1218 0v18l-155 72v634q0 67 -23 123t-65 96t-100 62t-128 22q-104 0 -196 -42.5t-164 -115.5v147l-12 11l-323 -74v-18l138 -59v-786l-156 -72v-18h506v18l-153 72v735q52 53 116 78t133 25q115 0 172.5 -61.5t57.5 -162.5v-614l-153 -72v-18h505z" />
    <glyph glyph-name="o" unicode="o" horiz-adv-x="1183" 
d="M591 1027q-111 0 -206 -39.5t-164.5 -110t-109.5 -167t-40 -209.5q0 -114 40 -210.5t109.5 -166.5t164.5 -109t206 -39q112 0 207.5 39t165 109t109 166.5t39.5 210.5q0 113 -39.5 209.5t-109 167t-165 110t-207.5 39.5zM286 501q0 112 21.5 203t61.5 155.5t96 99.5
t126 35q69 0 125.5 -35t96.5 -99.5t62 -155.5t22 -203q0 -113 -21.5 -204t-61.5 -155.5t-96.5 -99t-126.5 -34.5t-126.5 34.5t-96 99t-61 155.5t-21.5 204z" />
    <glyph glyph-name="p" unicode="p" horiz-adv-x="1198" 
d="M600 8q-68 0 -125.5 41t-95.5 129v656q41 49 97.5 76.5t124.5 27.5q71 0 128.5 -30t98 -88t62.5 -142t22 -192q0 -107 -21.5 -195t-62 -151t-98 -97.5t-130.5 -34.5zM1127 530q0 113 -31.5 205t-87.5 157t-134.5 100t-173.5 35q-97 0 -179 -38t-142 -111v138l-12 11
l-323 -74v-19l138 -58v-1202l-155 -72v-18h525v18l-173 72v389q16 -16 40 -31.5t54.5 -28t67.5 -20t79 -7.5q122 0 216.5 43t159 118t98 176t33.5 217z" />
    <glyph glyph-name="q" unicode="q" horiz-adv-x="1205" 
d="M603 992q39 0 74.5 -13t64 -38.5t48.5 -64.5t29 -91v-624q-51 -45 -105 -66t-123 -21q-70 0 -127 29.5t-97 86.5t-61.5 140.5t-21.5 190.5q0 108 22.5 195.5t64.5 148.5t101 94t131 33zM905 932q-66 48 -145.5 71.5t-160.5 23.5q-123 0 -220.5 -42.5t-166 -117.5
t-104.5 -177.5t-36 -221.5q0 -103 27 -193t80 -156.5t130.5 -104.5t179.5 -38q56 0 103.5 12.5t88.5 33t75.5 47t62.5 53.5v-448l-155 -72v-18h508v18l-156 72v1329h-30z" />
    <glyph glyph-name="r" unicode="r" horiz-adv-x="844" 
d="M812 1014q-21 8 -42 11.5t-43 3.5q-50 0 -99 -12.5t-93 -35.5t-82 -55.5t-66 -72.5v163l-12 11l-323 -74v-18l138 -59v-786l-156 -72v-18h516v18l-163 72v725q29 35 73 59.5t91 24.5q39 0 68 -13t53 -34.5t44 -48.5t39 -55h13z" />
    <glyph glyph-name="s" unicode="s" horiz-adv-x="886" 
d="M772 968q-29 12 -65.5 22.5t-75.5 18.5t-79.5 13t-76.5 5q-82 0 -152 -16.5t-121.5 -51t-80.5 -87t-29 -123.5q0 -66 28.5 -114.5t73 -85.5t99 -65.5t106.5 -54.5q55 -27 102.5 -51t82.5 -51t55 -60.5t20 -79.5q0 -35 -10.5 -67.5t-35 -57t-65.5 -39.5t-102 -15
q-34 0 -70.5 4.5t-61.5 10.5q-24 22 -46.5 55.5t-42.5 71t-36.5 74.5t-28.5 67h-18l-61 -239q27 -14 67.5 -27.5t87 -24.5t97 -17.5t98.5 -6.5q86 0 159 18t125.5 54t82 89.5t29.5 124.5q0 62 -28.5 109t-75 85.5t-104 69.5t-116.5 60q-51 25 -95 49.5t-76.5 51.5
t-51.5 58.5t-19 70.5q0 34 11.5 66t36 57t63 40t92.5 15q27 0 55.5 -3t42.5 -8q16 -16 34.5 -42.5t38 -59t40 -69.5t39.5 -73h17z" />
    <glyph glyph-name="t" unicode="t" horiz-adv-x="744" 
d="M682 968v32h-317v225h-14l-180 -188l-135 -56v-13h134v-721q0 -66 18.5 -116.5t52.5 -85t80.5 -52t103.5 -17.5q48 0 90.5 11t79 29t66 41.5t50.5 47.5l-10 15q-35 -23 -85.5 -38t-104.5 -15q-72 0 -108 43t-36 125v733h315z" />
    <glyph glyph-name="u" unicode="u" horiz-adv-x="1227" 
d="M702 953v-18l139 -59v-695q-23 -24 -54 -43.5t-66.5 -33.5t-74 -21.5t-76.5 -7.5q-53 0 -92.5 18t-65.5 50.5t-38.5 78t-12.5 100.5v694l-11 11l-324 -74v-18l139 -59v-599q0 -73 24.5 -129t65.5 -94.5t96.5 -58t116.5 -19.5q55 0 109.5 13.5t104 36t92 52t72.5 61.5
l24 -163l277 62v12l-110 67v899l-11 11z" />
    <glyph glyph-name="v" unicode="v" horiz-adv-x="1008" 
d="M845 909l-273 -702l-250 703l129 71v19h-455v-19l108 -74l351 -907h68l356 909l110 73v18h-269v-18z" />
    <glyph glyph-name="w" unicode="w" horiz-adv-x="1515" 
d="M996 1000h-399v-19l120 -75l27 -94l-208 -579l-208 676l123 72v19h-437v-19l106 -73l305 -908h65l271 743l238 -743h65l320 908l124 73v19h-295v-19l124 -72l-228 -667l-170 544l-42 122l99 73v19z" />
    <glyph glyph-name="x" unicode="x" horiz-adv-x="1092" 
d="M601 0h483v18l-143 76l-319 457l272 358l131 72v19h-308v-19l118 -72l-239 -320l-214 320l113 72v19h-487v-19l125 -61l316 -448l-288 -382l-138 -72v-18h302v18l-107 72l257 343l235 -343l-109 -72v-18z" />
    <glyph glyph-name="y" unicode="y" horiz-adv-x="995" 
d="M721 981l125 -73l-267 -702l-263 702l131 73v19h-456v-19l106 -72l378 -953l-55 -128q-26 -45 -73.5 -70t-99 -39t-98 -21t-70.5 -16l-5 -17l118 -170q22 7 54.5 29t74 73t89.5 138.5t102 224.5l371 948l108 73v19h-270v-19z" />
    <glyph glyph-name="z" unicode="z" horiz-adv-x="957" 
d="M330 968h313l-599 -953l6 -15h805v244l-14 2l-198 -214h-365l596 951l-3 17h-750v-227l16 -1z" />
    <glyph glyph-name="braceleft" unicode="{" horiz-adv-x="629" 
d="M360 46q0 64 13 128t26.5 126.5t21 124t-2.5 121.5q-5 40 -24 69.5t-48.5 50.5t-68 34t-83.5 19v3q42 5 80.5 17.5t68.5 33.5t49.5 51t25.5 71q10 62 2 125t-21.5 126t-26 126t-12.5 125q0 58 17.5 93t47 53.5t69.5 24.5t85 6v37q-193 0 -298 -57.5t-105 -184.5
q0 -59 15 -122t33.5 -126t33.5 -123.5t15 -113.5q0 -76 -57.5 -111t-155.5 -35v-38q98 0 155.5 -33t57.5 -110q0 -54 -15 -117.5t-33 -128t-33.5 -126t-15.5 -111.5q0 -112 91.5 -177.5t280.5 -65.5h31v39q-44 0 -83.5 5.5t-69.5 24t-48 53t-18 93.5z" />
    <glyph glyph-name="bar" unicode="|" horiz-adv-x="436" 
d="M246 -323v1868h-56v-1868h56z" />
    <glyph glyph-name="braceright" unicode="}" horiz-adv-x="629" 
d="M406 74q0 50 -15.5 111.5t-33.5 126t-33 128t-15 117.5q0 77 58 110t155 33v38q-97 0 -155 35t-58 111q0 53 15 113.5t33.5 123.5t33.5 126t15 122q0 127 -105 184.5t-299 57.5v-37q45 0 85 -6t69.5 -24.5t47 -53.5t17.5 -93q0 -62 -12.5 -125t-26 -126t-21.5 -126
t2 -125q6 -41 25.5 -71t49.5 -51t68.5 -33.5t81.5 -17.5v-3q-45 -6 -84 -19t-68.5 -34t-48 -50.5t-24.5 -69.5q-10 -60 -2.5 -121.5t21 -124t26.5 -126.5t13 -128q0 -59 -18 -93.5t-48 -53t-69.5 -24t-83.5 -5.5v-39h31q189 0 281 65.5t92 177.5z" />
    <glyph glyph-name="asciitilde" unicode="~" horiz-adv-x="1023" 
d="M290 547q41 0 92 -17.5t104.5 -38.5t106.5 -38.5t97 -17.5q53 0 92.5 20.5t67 54t44 75.5t25.5 85l-17 6q-29 -57 -67.5 -82.5t-105.5 -25.5q-44 0 -96 17.5t-105 38.5t-103 38.5t-91 17.5q-52 0 -91 -21t-67 -54.5t-46 -76t-27 -85.5l21 -6q24 55 64 82.5t102 27.5z" />
    <glyph glyph-name="uni00A0" unicode="&#xa0;" horiz-adv-x="400" 
 />
    <glyph glyph-name="exclamdown" unicode="&#xa1;" horiz-adv-x="507" 
d="M138 -424h231l-103 1024h-25zM385 900q0 57 -37 92t-94 35t-94 -35t-37 -92q0 -56 37 -91.5t94 -35.5t94 35.5t37 91.5z" />
    <glyph glyph-name="cent" unicode="&#xa2;" horiz-adv-x="1011" 
d="M530 110q-115 34 -178.5 145.5t-63.5 286.5q0 89 15 163.5t45 131.5t75.5 94.5t106.5 52.5v-874zM610 1027h-12t-12 -1v226h-56v-231q-99 -13 -182 -57.5t-143.5 -115.5t-94.5 -166t-34 -209q0 -112 33.5 -203t94 -156t144 -101t182.5 -37v-199h56v201q125 11 217.5 68.5
t150.5 148.5l-13 14q-27 -27 -62.5 -48t-77 -35.5t-86 -21.5t-88.5 -7q-11 0 -21 0.5t-20 1.5v894q5 0 10.5 0.5t10.5 0.5q15 0 31.5 -2t30.5 -4.5t24 -5t13 -3.5q20 -24 39 -56t38 -68.5t38 -76t37 -78.5h19l42 267q-24 9 -59.5 19.5t-77.5 19.5t-86.5 15t-85.5 6z" />
    <glyph glyph-name="sterling" unicode="&#xa3;" horiz-adv-x="1207" 
d="M1058 1076l-15 309q-27 16 -62 29.5t-74 23.5t-81 16t-83 6q-99 0 -185 -26t-150.5 -80.5t-101.5 -138.5t-37 -200q0 -32 7 -67.5t16.5 -70t18.5 -67t12 -58.5h-221l-4 -43h228q3 -83 -8 -183.5t-40.5 -196.5t-80 -176.5t-126.5 -123.5q5 -10 8.5 -19.5t8.5 -19.5
q52 14 97.5 23.5t88 15.5t83.5 8.5t83 2.5q50 0 115.5 -8t135 -17t138.5 -17t126 -8q66 44 122 115.5t94 165.5l-18 15q-58 -65 -123 -96t-152 -31q-41 1 -80.5 6t-78.5 10.5t-77.5 10t-77.5 4.5q-72 0 -144.5 -13.5t-141.5 -33.5q50 39 94.5 96t79 128.5t56.5 157.5t27 184
h340q0 12 1 21t3 22h-345q-3 44 -14 93t-22.5 95.5t-21 87.5t-9.5 71q0 67 13 123.5t43 97.5t78 65t117 25q57 -14 103.5 -48t84.5 -79.5t71 -99t63 -107.5h18z" />
    <glyph glyph-name="yen" unicode="&#xa5;" horiz-adv-x="1363" 
d="M177 1326l384 -672h-354v-43h363v-187h-363v-43h363v-269l-164 -94v-18h539v19l-164 93v269h328v43h-328v187h328v43h-328v20l400 653h1l190 91v21h-422v-21l175 -91h2l-370 -602l-348 601l154 92v21h-562v-21z" />
    <glyph glyph-name="brokenbar" unicode="&#xa6;" horiz-adv-x="434" 
d="M244 747v798h-55v-798h55zM189 -323h55v796h-55v-796z" />
    <glyph glyph-name="section" unicode="&#xa7;" horiz-adv-x="951" 
d="M737 462q0 -29 -5 -59t-16 -58q-42 31 -90.5 59t-101.5 58q-58 33 -109.5 70.5t-89.5 79.5t-60 89t-21 100q1 37 8 70.5t22 60.5q44 -32 95 -60t102 -58q52 -31 100.5 -68.5t85 -81.5t58.5 -94.5t22 -107.5zM827 1403q-28 16 -63.5 32.5t-75 30t-82 22t-84.5 8.5h-6
q-83 0 -152.5 -20.5t-119 -62t-77.5 -102.5t-29 -142q-1 -57 18.5 -101t51.5 -79q-51 -42 -77.5 -105.5t-27.5 -144.5q0 -76 28 -137t74.5 -111.5t104.5 -91t118 -75.5q53 -31 101.5 -59.5t86 -61t59.5 -73.5t22 -98q0 -44 -13 -88t-40.5 -80t-71 -58.5t-104.5 -22.5h-28
q-57 0 -106 28t-91 75t-77.5 108.5t-65.5 127.5h-11l18 -286q30 -17 67 -33t80 -29.5t89.5 -21.5t95.5 -8q86 0 160 20t129 62.5t87 109t33 159.5q1 57 -14.5 100.5t-43.5 78.5q44 43 68 106t25 145q1 79 -24.5 142t-69 114t-101.5 93t-121 78q-59 34 -111 62t-90.5 58.5
t-60.5 68.5t-21 91t17.5 94.5t44.5 71t65.5 45t80.5 15.5q37 0 72 -8t72 -32q45 -32 78.5 -74.5t57 -84.5t38.5 -78.5t24 -57.5h10z" />
    <glyph glyph-name="dieresis" unicode="&#xa8;" horiz-adv-x="979" 
d="M404 1339q0 46 -31 76t-81 30q-47 0 -78 -29.5t-31 -76.5t31 -77t78 -30q50 0 81 30.5t31 76.5zM684 1232q50 0 80 30t30 77t-31 76.5t-79 29.5t-79 -29.5t-31 -76.5t31 -77t79 -30z" />
    <glyph glyph-name="copyright" unicode="&#xa9;" 
d="M861 1411q151 0 279 -53t221 -146t145 -220t52 -276q0 -150 -54 -276t-149 -217.5t-225.5 -143t-282.5 -51.5q-151 0 -278.5 52.5t-220.5 145t-145 219t-52 274.5q0 151 53.5 278t148 219t224.5 143.5t284 51.5zM1160 1094q-20 8 -50.5 17t-66 16.5t-73.5 12.5t-74 5
q-97 0 -180.5 -33.5t-144.5 -95t-95.5 -148.5t-34.5 -194q0 -96 29 -174t81.5 -133.5t124.5 -85.5t158 -30q124 0 213 51t143 137l-10 11q-23 -23 -53.5 -40.5t-65 -29.5t-72 -18t-75.5 -6q-67 0 -120 26t-90 75t-57 119t-20 158q0 86 16.5 157t50 121t83.5 77.5t117 27.5
q26 0 51.5 -5.5t30.5 -7.5q33 -42 66.5 -106.5t65.5 -132.5h16zM83 719q0 -162 58 -298t161 -235t244.5 -154.5t308.5 -55.5t308.5 56t245 155t161.5 235.5t58 297.5t-58.5 297t-162.5 235t-245.5 154.5t-308.5 55.5q-166 0 -307.5 -56t-244 -155t-160.5 -235t-58 -297z" />
    <glyph glyph-name="ordfeminine" unicode="&#xaa;" horiz-adv-x="426" 
d="M119 1148q0 46 37.5 74t99.5 36v-149q-31 -25 -75 -25q-32 0 -47 17.5t-15 46.5zM356 1320q0 29 -6 54t-21.5 43.5t-42.5 29t-68 10.5q-53 0 -97 -18t-74 -47l5 -8q25 15 51.5 21.5t55.5 6.5q53 0 75 -25.5t22 -65.5v-49q-46 -3 -89 -14t-75 -29.5t-51.5 -44.5t-19.5 -60
q0 -42 29.5 -65.5t76.5 -23.5q39 0 72.5 16.5t59.5 42.5l12 -59l128 29v5l-43 35v216z" />
    <glyph glyph-name="guillemotleft" unicode="&#xab;" horiz-adv-x="880" 
d="M448 161l-227 354l227 353l-35 27l-323 -367v-28l323 -365zM757 135l35 26l-226 354l226 353l-35 27l-322 -367v-28z" />
    <glyph glyph-name="registered" unicode="&#xae;" horiz-adv-x="1062" 
d="M534 673q-86 0 -162 33t-132.5 89.5t-89.5 132.5t-33 162t33 162t89.5 133t132.5 90t162 33t162 -33t133 -90t90 -133t33 -162t-33 -162t-90 -132.5t-133 -89.5t-162 -33zM995 1090q0 95 -36.5 179t-99 146.5t-146.5 99t-179 36.5t-179 -36.5t-146.5 -99t-98.5 -146.5
t-36 -179t36 -179t98.5 -146.5t146.5 -98.5t179 -36t179 36t146.5 98.5t99 146.5t36.5 179zM338 1315l44 -50v-322l-41 -49v-5h182v5l-41 49v361h38q50 0 70.5 -25.5t20.5 -69.5q0 -48 -20.5 -77t-68.5 -30h-20v-15l17 1h8t8 1l-1 -1l97 -199h138v3l-46 44l-90 143
q-17 3 -31.5 6t-26.5 8q27 4 52.5 12t45 21.5t31.5 34t12 50.5q0 49 -42 79.5t-127 30.5h-209v-6z" />
    <glyph glyph-name="macron" unicode="&#xaf;" horiz-adv-x="1540" 
d="M1121 1517v43h-646v-43h646z" />
    <glyph glyph-name="twosuperior" unicode="&#xb2;" horiz-adv-x="567" 
d="M45 1337q6 18 20 53.5t38 71.5t58.5 62.5t80.5 26.5q55 0 85.5 -41.5t30.5 -113.5q0 -103 -87.5 -222.5t-253.5 -275.5l5 -53h482l29 245l-4 1l-128 -133h-271q90 68 161 122t120.5 103.5t76 98t26.5 106.5q0 86 -65.5 137t-194.5 51q-28 0 -53 -2t-49 -6.5t-49 -11.5
t-54 -18l-14 -201h10z" />
    <glyph glyph-name="threesuperior" unicode="&#xb3;" horiz-adv-x="584" 
d="M392 1020q0 -72 -38 -116.5t-107 -44.5q-39 0 -70 17.5t-55.5 47t-43.5 68t-34 81.5h-10l14 -197q13 -8 34.5 -15.5t48 -13.5t56 -10t58.5 -4q65 0 118.5 15t92.5 42.5t60.5 66t21.5 84.5q0 77 -55 129.5t-146 74.5q88 22 133.5 63.5t45.5 100.5q0 37 -17.5 67.5
t-49.5 52.5t-77.5 34.5t-101.5 12.5q-63 0 -117.5 -12t-87.5 -26l-15 -201q2 0 4.5 0.5t4.5 0.5q12 30 28 67.5t39.5 69.5t56 54t77.5 22q54 0 80 -40t26 -103q0 -79 -46 -121t-132 -59v-22q43 -3 80 -16.5t64.5 -37.5t43.5 -57t16 -75z" />
    <glyph glyph-name="acute" unicode="&#xb4;" horiz-adv-x="749" 
d="M377 1529l-135 -304h16l340 290l-7 14h-214z" />
    <glyph glyph-name="paragraph" unicode="&#xb6;" horiz-adv-x="1337" 
d="M1019 43h-233v1353h233v-1353zM1089 1329l159 91v19h-491q-163 0 -295 -47.5t-225.5 -139t-144 -225t-50.5 -306.5t50.5 -307t144.5 -226t229 -140t304 -48h482v19l-163 92v1218z" />
    <glyph glyph-name="cedilla" unicode="&#xb8;" horiz-adv-x="760" 
d="M249 -455q66 11 119.5 31t91.5 47t59 61t21 73q0 31 -13.5 57.5t-36.5 46.5t-55 32.5t-69 17.5l73 100l-40 6l-116 -164l4 -14q19 -5 37.5 -13t33.5 -22t24 -34t9 -47q0 -59 -38 -98.5t-107 -68.5z" />
    <glyph glyph-name="onesuperior" unicode="&#xb9;" horiz-adv-x="394" 
d="M30 1441v-8h103v-506l-71 -73v-9h292v9l-71 73v651h-8z" />
    <glyph glyph-name="ordmasculine" unicode="&#xba;" horiz-adv-x="481" 
d="M455 1246q0 46 -16.5 84.5t-45 66.5t-68 44t-85.5 16q-45 0 -84.5 -16t-68 -44t-45 -66.5t-16.5 -84.5t16.5 -84.5t45 -66.5t67.5 -44t85 -16t85.5 16t68 44t45 66.5t16.5 84.5zM133 1246q0 93 28 145t79 52t79.5 -52t28.5 -145t-28.5 -145t-78.5 -52q-51 0 -79.5 52
t-28.5 145z" />
    <glyph glyph-name="guillemotright" unicode="&#xbb;" horiz-adv-x="880" 
d="M90 868l226 -353l-226 -354l35 -26l323 365v28l-323 367zM792 528l-323 367l-34 -27l226 -353l-226 -354l34 -26l323 365v28z" />
    <glyph glyph-name="questiondown" unicode="&#xbf;" horiz-adv-x="942" 
d="M564 605l-51 -160q-93 -90 -172 -160.5t-137.5 -136t-91.5 -131.5t-33 -146q0 -78 30.5 -138t87.5 -100.5t138.5 -61t183.5 -20.5q49 0 98 6t94 16.5t84.5 24t70.5 28.5l12 290l-18 -1q-26 -51 -62.5 -105.5t-78.5 -100.5t-87.5 -78t-89.5 -37q-117 0 -179 72.5
t-62 203.5q0 69 32.5 143.5t81.5 149t107 146.5t110 135l-42 161h-26zM572 1024q-58 0 -94 -34.5t-36 -90.5q0 -55 36 -90.5t94 -35.5q57 0 93.5 35t36.5 91q0 28 -10 51t-27.5 39.5t-41 25.5t-51.5 9z" />
    <glyph glyph-name="Agrave" unicode="&#xc0;" horiz-adv-x="1460" 
d="M902 515h-522l261 735zM1278 111l-490 1328h-277v-19l95 -135l-422 -1174l-179 -92v-19h443v19l-210 93h-1l127 359h554l128 -359l-161 -93v-19h562v19zM561 1889h-214l-7 -14l340 -290h16z" />
    <glyph glyph-name="Aacute" unicode="&#xc1;" horiz-adv-x="1460" 
d="M902 515h-522l261 735zM1278 111l-490 1328h-277v-19l95 -135l-422 -1174l-179 -92v-19h443v19l-210 93h-1l127 359h554l128 -359l-161 -93v-19h562v19zM687 1968l-135 -304h16l340 290l-7 14h-214z" />
    <glyph glyph-name="Acircumflex" unicode="&#xc2;" horiz-adv-x="1460" 
d="M902 515h-522l261 735zM1278 111l-490 1328h-277v-19l95 -135l-422 -1174l-179 -92v-19h443v19l-210 93h-1l127 359h554l128 -359l-161 -93v-19h562v19zM429 1571l19 -10l283 219l283 -219l18 10l-268 373h-68z" />
    <glyph glyph-name="Atilde" unicode="&#xc3;" horiz-adv-x="1460" 
d="M902 515h-522l261 735zM1278 111l-490 1328h-277v-19l95 -135l-422 -1174l-179 -92v-19h443v19l-210 93h-1l127 359h554l128 -359l-161 -93v-19h562v19zM520 1744q33 0 69 -15.5t72.5 -33.5t73 -33.5t72.5 -15.5q47 0 82.5 18.5t60 50t40 72t23.5 83.5l-15 5
q-47 -99 -150 -99q-35 0 -71.5 15.5t-73 33.5t-72 33.5t-69.5 15.5q-47 0 -82.5 -18.5t-60.5 -49.5t-40.5 -71.5t-24.5 -84.5l17 -4q46 98 149 98z" />
    <glyph glyph-name="Adieresis" unicode="&#xc4;" horiz-adv-x="1460" 
d="M902 515h-522l261 735zM1278 111l-490 1328h-277v-19l95 -135l-422 -1174l-179 -92v-19h443v19l-210 93h-1l127 359h554l128 -359l-161 -93v-19h562v19zM575 1748q0 46 -31 76t-81 30q-47 0 -78 -29.5t-31 -76.5t31 -77t78 -30q50 0 81 30.5t31 76.5zM855 1641
q50 0 80 30t30 77t-31 76.5t-79 29.5t-79 -29.5t-31 -76.5t31 -77t79 -30z" />
    <glyph glyph-name="Aring" unicode="&#xc5;" horiz-adv-x="1460" 
d="M902 515h-522l261 735zM1278 111l-490 1328h-277v-19l95 -135l-422 -1174l-179 -92v-19h443v19l-210 93h-1l127 359h554l128 -359l-161 -93v-19h562v19zM685 1961q-45 0 -82.5 -13.5t-65 -38t-42.5 -58.5t-15 -75t15 -74.5t42.5 -57.5t65 -37.5t82.5 -13.5
q44 0 81.5 13.5t64.5 37.5t42 57.5t15 74.5t-14.5 75t-41.5 58.5t-64.5 38t-82.5 13.5zM577 1776q0 33 7 62t21 50.5t34 34t46 12.5t46 -12.5t33.5 -34t20.5 -50.5t7 -62q0 -69 -28.5 -113t-78.5 -44q-51 0 -79.5 44t-28.5 113z" />
    <glyph glyph-name="AE" unicode="&#xc6;" horiz-adv-x="2149" 
d="M580 515l540 783v-783h-540zM1634 717l119 -189h17v416h-17l-119 -184h-302v636h466l172 -323h9v366h-1022v-19l142 -82l-849 -1227l-215 -92v-19h442v19l-174 93h-1l247 359h571v-359l-163 -93v-19h1089l53 366l-9 1l-224 -324h-534v674h302z" />
    <glyph glyph-name="Ccedilla" unicode="&#xc7;" horiz-adv-x="1367" 
d="M1237 1354q-106 48 -217 78t-228 30q-167 0 -300.5 -56t-227 -156t-143.5 -237t-50 -299q0 -161 51.5 -296.5t145.5 -233.5t226 -153t292 -55q122 0 231 29t220 78l26 372h-18q-8 -27 -25.5 -80t-50.5 -113t-86.5 -118.5t-133.5 -97.5l-9 -5q-39 -12 -75.5 -17t-69.5 -5
q-118 0 -209 50t-153.5 141.5t-95 220t-32.5 285.5q0 153 30.5 281.5t90 222t148 146t205.5 52.5q39 0 79.5 -5t82.5 -18l8 -4q82 -39 135 -97t86 -117.5t49.5 -112t25.5 -81.5h18zM540 -455q66 11 119.5 31t91.5 47t59 61t21 73q0 31 -13.5 57.5t-36.5 46.5t-55 32.5
t-69 17.5l73 100l-40 6l-116 -164l4 -14q19 -5 37.5 -13t33.5 -22t24 -34t9 -47q0 -59 -38 -98.5t-107 -68.5z" />
    <glyph glyph-name="Egrave" unicode="&#xc8;" horiz-adv-x="1208" 
d="M719 760h-302v636h466l172 -323h9v366h-1022v-19l163 -93v-1216l-163 -92v-19h1089l53 366l-9 1l-224 -324h-534v674h302l120 -189h17v416h-17zM512 1922h-214l-7 -14l340 -290h16z" />
    <glyph glyph-name="Eacute" unicode="&#xc9;" horiz-adv-x="1208" 
d="M719 760h-302v636h466l172 -323h9v366h-1022v-19l163 -93v-1216l-163 -92v-19h1089l53 366l-9 1l-224 -324h-534v674h302l120 -189h17v416h-17zM741 1893l-135 -304h16l340 290l-7 14h-214z" />
    <glyph glyph-name="Ecircumflex" unicode="&#xca;" horiz-adv-x="1208" 
d="M719 760h-302v636h466l172 -323h9v366h-1022v-19l163 -93v-1216l-163 -92v-19h1089l53 366l-9 1l-224 -324h-534v674h302l120 -189h17v416h-17zM302 1571l19 -10l283 219l283 -219l18 10l-268 373h-68z" />
    <glyph glyph-name="Edieresis" unicode="&#xcb;" horiz-adv-x="1208" 
d="M719 760h-302v636h466l172 -323h9v366h-1022v-19l163 -93v-1216l-163 -92v-19h1089l53 366l-9 1l-224 -324h-534v674h302l120 -189h17v416h-17zM531 1743q0 46 -31 76t-81 30q-47 0 -78 -29.5t-31 -76.5t31 -77t78 -30q50 0 81 30.5t31 76.5zM811 1636q50 0 80 30t30 77
t-31 76.5t-79 29.5t-79 -29.5t-31 -76.5t31 -77t79 -30z" />
    <glyph glyph-name="Igrave" unicode="&#xcc;" horiz-adv-x="622" 
d="M42 19v-19h538v19l-163 93v1215l163 93v19h-538v-19l163 -93v-1216zM211 1902h-214l-7 -14l340 -290h16z" />
    <glyph glyph-name="Iacute" unicode="&#xcd;" horiz-adv-x="622" 
d="M42 19v-19h538v19l-163 93v1215l163 93v19h-538v-19l163 -93v-1216zM425 1868l-135 -304h16l340 290l-7 14h-214z" />
    <glyph glyph-name="Icircumflex" unicode="&#xce;" horiz-adv-x="622" 
d="M42 19v-19h538v19l-163 93v1215l163 93v19h-538v-19l163 -93v-1216zM10 1571l19 -10l283 219l283 -219l18 10l-268 373h-68z" />
    <glyph glyph-name="Idieresis" unicode="&#xcf;" horiz-adv-x="622" 
d="M42 19v-19h538v19l-163 93v1215l163 93v19h-538v-19l163 -93v-1216zM226 1778q0 46 -31 76t-81 30q-47 0 -78 -29.5t-31 -76.5t31 -77t78 -30q50 0 81 30.5t31 76.5zM506 1671q50 0 80 30t30 77t-31 76.5t-79 29.5t-79 -29.5t-31 -76.5t31 -77t79 -30z" />
    <glyph glyph-name="Eth" unicode="&#xd0;" horiz-adv-x="1466" 
d="M417 672h179v82h-179v642h247q251 0 374 -172t123 -516q0 -161 -29.5 -285t-91.5 -208.5t-158.5 -128t-231.5 -43.5h-233v629zM1394 721q0 173 -50.5 306.5t-143.5 225t-225 139t-295 47.5h-634v-19l159 -91v-575h-146v-82h146v-561l-163 -92v-19h624q169 0 304 48
t229 140t144.5 226t50.5 307z" />
    <glyph glyph-name="Ntilde" unicode="&#xd1;" horiz-adv-x="1439" 
d="M350 1439h-307v-19l166 -93v-1201l-166 -108v-18h378v18l-168 108v1103l913 -1255l63 26v1313l168 108v18h-381v-18l168 -108v-1021zM555 1744q33 0 69 -15.5t72.5 -33.5t73 -33.5t72.5 -15.5q47 0 82.5 18.5t60 50t40 72t23.5 83.5l-15 5q-47 -99 -150 -99
q-35 0 -71.5 15.5t-73 33.5t-72 33.5t-69.5 15.5q-47 0 -82.5 -18.5t-60.5 -49.5t-40.5 -71.5t-24.5 -84.5l17 -4q46 98 149 98z" />
    <glyph glyph-name="Ograve" unicode="&#xd2;" horiz-adv-x="1541" 
d="M769 1462q-153 0 -281.5 -55.5t-221 -154.5t-144 -235.5t-51.5 -299.5q0 -162 51.5 -298.5t144 -234.5t221 -153t281.5 -55q155 0 283.5 55t221.5 153.5t144.5 234.5t51.5 299t-52 299.5t-145 235.5t-221.5 154t-282.5 55zM305 717q0 159 30.5 288.5t90 221t146 141.5
t197.5 50t198 -50t147 -141.5t91 -221t31 -288.5t-31 -288t-91 -220t-147 -140.5t-198 -49.5t-197.5 49.5t-146 141t-90 220.5t-30.5 287zM663 1925h-214l-7 -14l340 -290h16z" />
    <glyph glyph-name="Oacute" unicode="&#xd3;" horiz-adv-x="1541" 
d="M769 1462q-153 0 -281.5 -55.5t-221 -154.5t-144 -235.5t-51.5 -299.5q0 -162 51.5 -298.5t144 -234.5t221 -153t281.5 -55q155 0 283.5 55t221.5 153.5t144.5 234.5t51.5 299t-52 299.5t-145 235.5t-221.5 154t-282.5 55zM305 717q0 159 30.5 288.5t90 221t146 141.5
t197.5 50t198 -50t147 -141.5t91 -221t31 -288.5t-31 -288t-91 -220t-147 -140.5t-198 -49.5t-197.5 49.5t-146 141t-90 220.5t-30.5 287zM928 1893l-135 -304h16l340 290l-7 14h-214z" />
    <glyph glyph-name="Ocircumflex" unicode="&#xd4;" horiz-adv-x="1541" 
d="M769 1462q-153 0 -281.5 -55.5t-221 -154.5t-144 -235.5t-51.5 -299.5q0 -162 51.5 -298.5t144 -234.5t221 -153t281.5 -55q155 0 283.5 55t221.5 153.5t144.5 234.5t51.5 299t-52 299.5t-145 235.5t-221.5 154t-282.5 55zM305 717q0 159 30.5 288.5t90 221t146 141.5
t197.5 50t198 -50t147 -141.5t91 -221t31 -288.5t-31 -288t-91 -220t-147 -140.5t-198 -49.5t-197.5 49.5t-146 141t-90 220.5t-30.5 287zM469 1571l19 -10l283 219l283 -219l18 10l-268 373h-68z" />
    <glyph glyph-name="Otilde" unicode="&#xd5;" horiz-adv-x="1541" 
d="M769 1462q-153 0 -281.5 -55.5t-221 -154.5t-144 -235.5t-51.5 -299.5q0 -162 51.5 -298.5t144 -234.5t221 -153t281.5 -55q155 0 283.5 55t221.5 153.5t144.5 234.5t51.5 299t-52 299.5t-145 235.5t-221.5 154t-282.5 55zM305 717q0 159 30.5 288.5t90 221t146 141.5
t197.5 50t198 -50t147 -141.5t91 -221t31 -288.5t-31 -288t-91 -220t-147 -140.5t-198 -49.5t-197.5 49.5t-146 141t-90 220.5t-30.5 287zM607 1744q33 0 69 -15.5t72.5 -33.5t73 -33.5t72.5 -15.5q47 0 82.5 18.5t60 50t40 72t23.5 83.5l-15 5q-47 -99 -150 -99
q-35 0 -71.5 15.5t-73 33.5t-72 33.5t-69.5 15.5q-47 0 -82.5 -18.5t-60.5 -49.5t-40.5 -71.5t-24.5 -84.5l17 -4q46 98 149 98z" />
    <glyph glyph-name="Odieresis" unicode="&#xd6;" horiz-adv-x="1541" 
d="M769 1462q-153 0 -281.5 -55.5t-221 -154.5t-144 -235.5t-51.5 -299.5q0 -162 51.5 -298.5t144 -234.5t221 -153t281.5 -55q155 0 283.5 55t221.5 153.5t144.5 234.5t51.5 299t-52 299.5t-145 235.5t-221.5 154t-282.5 55zM305 717q0 159 30.5 288.5t90 221t146 141.5
t197.5 50t198 -50t147 -141.5t91 -221t31 -288.5t-31 -288t-91 -220t-147 -140.5t-198 -49.5t-197.5 49.5t-146 141t-90 220.5t-30.5 287zM686 1778q0 46 -31 76t-81 30q-47 0 -78 -29.5t-31 -76.5t31 -77t78 -30q50 0 81 30.5t31 76.5zM966 1671q50 0 80 30t30 77t-31 76.5
t-79 29.5t-79 -29.5t-31 -76.5t31 -77t79 -30z" />
    <glyph glyph-name="multiply" unicode="&#xd7;" horiz-adv-x="959" 
d="M851 243l-337 339l337 337l-34 35l-338 -337l-338 339l-35 -36l338 -340l-338 -336l35 -34l337 337l338 -339z" />
    <glyph glyph-name="Oslash" unicode="&#xd8;" horiz-adv-x="1541" 
d="M305 717q0 159 30.5 288.5t90 221t146 141.5t197.5 50q121 0 215 -60l-454 -1262q-110 83 -167.5 242.5t-57.5 378.5zM1236 717q0 -159 -31 -288t-91 -220t-147 -140.5t-198 -49.5q-106 0 -189 45l452 1258q100 -88 152 -242.5t52 -362.5zM1008 1423q-56 19 -115.5 29
t-123.5 10q-153 0 -281.5 -55.5t-221 -154.5t-144 -235.5t-51.5 -299.5q0 -124 30.5 -233.5t87 -199t136.5 -156t179 -104.5l-108 -300h62l101 281q49 -14 101 -21.5t109 -7.5q155 0 283.5 55t221.5 153.5t144.5 234.5t51.5 299q0 120 -29 226.5t-82 194.5t-129 155
t-169 108l69 191h-61z" />
    <glyph glyph-name="Ugrave" unicode="&#xd9;" horiz-adv-x="1407" 
d="M1388 1421v18h-381v-18l168 -108v-829q0 -96 -21.5 -181t-68 -148t-121 -99.5t-181.5 -36.5q-87 0 -158 30t-121 88.5t-77.5 143.5t-27.5 194v852l163 93v19h-538v-19l163 -93v-855q0 -121 40.5 -213.5t112 -155.5t169.5 -95t214 -32q134 0 228.5 36t154 104.5t87 168
t27.5 225.5v803zM691 1899h-214l-7 -14l340 -290h16z" />
    <glyph glyph-name="Uacute" unicode="&#xda;" horiz-adv-x="1407" 
d="M1388 1421v18h-381v-18l168 -108v-829q0 -96 -21.5 -181t-68 -148t-121 -99.5t-181.5 -36.5q-87 0 -158 30t-121 88.5t-77.5 143.5t-27.5 194v852l163 93v19h-538v-19l163 -93v-855q0 -121 40.5 -213.5t112 -155.5t169.5 -95t214 -32q134 0 228.5 36t154 104.5t87 168
t27.5 225.5v803zM926 1856l-135 -304h16l340 290l-7 14h-214z" />
    <glyph glyph-name="Ucircumflex" unicode="&#xdb;" horiz-adv-x="1407" 
d="M1388 1421v18h-381v-18l168 -108v-829q0 -96 -21.5 -181t-68 -148t-121 -99.5t-181.5 -36.5q-87 0 -158 30t-121 88.5t-77.5 143.5t-27.5 194v852l163 93v19h-538v-19l163 -93v-855q0 -121 40.5 -213.5t112 -155.5t169.5 -95t214 -32q134 0 228.5 36t154 104.5t87 168
t27.5 225.5v803zM479 1571l19 -10l283 219l283 -219l18 10l-268 373h-68z" />
    <glyph glyph-name="Udieresis" unicode="&#xdc;" horiz-adv-x="1407" 
d="M1388 1421v18h-381v-18l168 -108v-829q0 -96 -21.5 -181t-68 -148t-121 -99.5t-181.5 -36.5q-87 0 -158 30t-121 88.5t-77.5 143.5t-27.5 194v852l163 93v19h-538v-19l163 -93v-855q0 -121 40.5 -213.5t112 -155.5t169.5 -95t214 -32q134 0 228.5 36t154 104.5t87 168
t27.5 225.5v803zM698 1778q0 46 -31 76t-81 30q-47 0 -78 -29.5t-31 -76.5t31 -77t78 -30q50 0 81 30.5t31 76.5zM978 1671q50 0 80 30t30 77t-31 76.5t-79 29.5t-79 -29.5t-31 -76.5t31 -77t79 -30z" />
    <glyph glyph-name="Yacute" unicode="&#xdd;" horiz-adv-x="1386" 
d="M777 721l-351 605h1l151 92v21h-565v-21l177 -92l397 -687v-527l-163 -93v-19h538v19l-163 93v562l400 653h1l190 91v21h-454v-21l210 -94zM893 1857l-135 -304h16l340 290l-7 14h-214z" />
    <glyph glyph-name="Thorn" unicode="&#xde;" horiz-adv-x="1220" 
d="M423 1173h75q97 0 183.5 -25.5t151.5 -81.5t103 -144.5t38 -213.5q0 -114 -36.5 -197.5t-102 -138t-155 -81t-196.5 -26.5h-61v908zM1208 721q0 154 -56 250t-151 150t-221 73.5t-267 19.5h-90v83l163 131v11h-538v-11l163 -130v-1157l-163 -130v-11h538v11l-163 131v83
h77q147 0 276 19.5t225 74t151.5 151.5t55.5 251z" />
    <glyph glyph-name="germandbls" unicode="&#xdf;" horiz-adv-x="1247" 
d="M1002 232q0 -47 -11.5 -86.5t-31.5 -68.5t-48.5 -45t-61.5 -16q-91 6 -158 59.5t-124 145.5h-19q0 -46 1 -91.5t1 -91.5q48 -23 117 -42.5t150 -19.5q80 0 146.5 20t115 57.5t77.5 91.5t33 123q5 67 -14 129t-54.5 118.5t-84 107.5t-102.5 95.5t-110.5 82.5t-107.5 70
q41 25 95 59t102 79.5t81.5 103.5t33.5 131q0 75 -33 132.5t-89 96.5t-129 59t-153 20t-157 -23t-137 -78t-96.5 -147t-36.5 -230v-74h-141v-32h140v-878l-156 -72v-18h480v18l-127 71v1021q0 196 55 302t174 106q53 0 94 -21t69.5 -56t43.5 -82t15 -100q0 -45 -15 -93
t-48 -100t-84.5 -108.5t-124.5 -119.5l-2 -40q81 -52 158.5 -111t138 -128t98 -150t37.5 -177z" />
    <glyph glyph-name="agrave" unicode="&#xe0;" horiz-adv-x="1033" 
d="M261 243q0 63 29 112.5t81 86.5t124 59.5t158 31.5v-377q-47 -42 -104.5 -60.5t-124.5 -18.5q-85 0 -124 43.5t-39 122.5zM850 689q0 71 -15 132t-52.5 107t-101.5 72t-162 26q-121 0 -223.5 -40.5t-174.5 -105.5l13 -19q60 35 128.5 51t146.5 16q68 0 114.5 -19
t75.5 -52t41.5 -78t12.5 -97v-115q-116 -7 -223.5 -34t-190 -73.5t-132 -112t-49.5 -149.5q0 -53 19.5 -94t55 -69.5t84.5 -43.5t109 -15q99 0 184 40t148 105l24 -145l278 62v12l-110 67v572zM408 1465h-214l-7 -14l340 -290h16z" />
    <glyph glyph-name="aacute" unicode="&#xe1;" horiz-adv-x="1033" 
d="M261 243q0 63 29 112.5t81 86.5t124 59.5t158 31.5v-377q-47 -42 -104.5 -60.5t-124.5 -18.5q-85 0 -124 43.5t-39 122.5zM850 689q0 71 -15 132t-52.5 107t-101.5 72t-162 26q-121 0 -223.5 -40.5t-174.5 -105.5l13 -19q60 35 128.5 51t146.5 16q68 0 114.5 -19
t75.5 -52t41.5 -78t12.5 -97v-115q-116 -7 -223.5 -34t-190 -73.5t-132 -112t-49.5 -149.5q0 -53 19.5 -94t55 -69.5t84.5 -43.5t109 -15q99 0 184 40t148 105l24 -145l278 62v12l-110 67v572zM639 1412l-135 -304h16l340 290l-7 14h-214z" />
    <glyph glyph-name="acircumflex" unicode="&#xe2;" horiz-adv-x="1033" 
d="M261 243q0 63 29 112.5t81 86.5t124 59.5t158 31.5v-377q-47 -42 -104.5 -60.5t-124.5 -18.5q-85 0 -124 43.5t-39 122.5zM850 689q0 71 -15 132t-52.5 107t-101.5 72t-162 26q-121 0 -223.5 -40.5t-174.5 -105.5l13 -19q60 35 128.5 51t146.5 16q68 0 114.5 -19
t75.5 -52t41.5 -78t12.5 -97v-115q-116 -7 -223.5 -34t-190 -73.5t-132 -112t-49.5 -149.5q0 -53 19.5 -94t55 -69.5t84.5 -43.5t109 -15q99 0 184 40t148 105l24 -145l278 62v12l-110 67v572zM215 1132l19 -10l283 219l283 -219l18 10l-268 373h-68z" />
    <glyph glyph-name="atilde" unicode="&#xe3;" horiz-adv-x="1033" 
d="M261 243q0 63 29 112.5t81 86.5t124 59.5t158 31.5v-377q-47 -42 -104.5 -60.5t-124.5 -18.5q-85 0 -124 43.5t-39 122.5zM850 689q0 71 -15 132t-52.5 107t-101.5 72t-162 26q-121 0 -223.5 -40.5t-174.5 -105.5l13 -19q60 35 128.5 51t146.5 16q68 0 114.5 -19
t75.5 -52t41.5 -78t12.5 -97v-115q-116 -7 -223.5 -34t-190 -73.5t-132 -112t-49.5 -149.5q0 -53 19.5 -94t55 -69.5t84.5 -43.5t109 -15q99 0 184 40t148 105l24 -145l278 62v12l-110 67v572zM398 1267q33 0 69 -15.5t72.5 -33.5t73 -33.5t72.5 -15.5q47 0 82.5 18.5t60 50
t40 72t23.5 83.5l-15 5q-47 -99 -150 -99q-35 0 -71.5 15.5t-73 33.5t-72 33.5t-69.5 15.5q-47 0 -82.5 -18.5t-60.5 -49.5t-40.5 -71.5t-24.5 -84.5l17 -4q46 98 149 98z" />
    <glyph glyph-name="adieresis" unicode="&#xe4;" horiz-adv-x="1033" 
d="M261 243q0 63 29 112.5t81 86.5t124 59.5t158 31.5v-377q-47 -42 -104.5 -60.5t-124.5 -18.5q-85 0 -124 43.5t-39 122.5zM850 689q0 71 -15 132t-52.5 107t-101.5 72t-162 26q-121 0 -223.5 -40.5t-174.5 -105.5l13 -19q60 35 128.5 51t146.5 16q68 0 114.5 -19
t75.5 -52t41.5 -78t12.5 -97v-115q-116 -7 -223.5 -34t-190 -73.5t-132 -112t-49.5 -149.5q0 -53 19.5 -94t55 -69.5t84.5 -43.5t109 -15q99 0 184 40t148 105l24 -145l278 62v12l-110 67v572zM431 1292q0 46 -31 76t-81 30q-47 0 -78 -29.5t-31 -76.5t31 -77t78 -30
q50 0 81 30.5t31 76.5zM711 1185q50 0 80 30t30 77t-31 76.5t-79 29.5t-79 -29.5t-31 -76.5t31 -77t79 -30z" />
    <glyph glyph-name="aring" unicode="&#xe5;" horiz-adv-x="1033" 
d="M261 243q0 63 29 112.5t81 86.5t124 59.5t158 31.5v-377q-47 -42 -104.5 -60.5t-124.5 -18.5q-85 0 -124 43.5t-39 122.5zM850 689q0 71 -15 132t-52.5 107t-101.5 72t-162 26q-121 0 -223.5 -40.5t-174.5 -105.5l13 -19q60 35 128.5 51t146.5 16q68 0 114.5 -19
t75.5 -52t41.5 -78t12.5 -97v-115q-116 -7 -223.5 -34t-190 -73.5t-132 -112t-49.5 -149.5q0 -53 19.5 -94t55 -69.5t84.5 -43.5t109 -15q99 0 184 40t148 105l24 -145l278 62v12l-110 67v572zM528 1488q-45 0 -82.5 -13.5t-65 -38t-42.5 -58.5t-15 -75t15 -74.5t42.5 -57.5
t65 -37.5t82.5 -13.5q44 0 81.5 13.5t64.5 37.5t42 57.5t15 74.5t-14.5 75t-41.5 58.5t-64.5 38t-82.5 13.5zM420 1303q0 33 7 62t21 50.5t34 34t46 12.5t46 -12.5t33.5 -34t20.5 -50.5t7 -62q0 -69 -28.5 -113t-78.5 -44q-51 0 -79.5 44t-28.5 113z" />
    <glyph glyph-name="ae" unicode="&#xe6;" horiz-adv-x="1625" 
d="M655 533q-2 -14 -2 -27.5v-27.5q0 -78 16 -145.5t46 -124.5q-46 -44 -86 -70t-75 -39.5t-67 -17.5t-63 -4q-85 0 -124 43.5t-39 122.5q0 62 29 112t81.5 86.5t125 59.5t158.5 32zM1124 992q109 0 167.5 -92.5t58.5 -276.5l-486 -22q5 88 24.5 160t53 123.5t79.5 79.5
t103 28zM1552 576q0 94 -28 176.5t-81.5 143.5t-131.5 96t-178 35q-98 0 -181 -35t-146 -99q-34 61 -102.5 97t-184.5 36q-121 0 -223.5 -40.5t-174.5 -105.5l13 -19q60 35 128.5 51t146.5 16q68 0 114.5 -19t75.5 -52t41.5 -78t12.5 -97v-115q-116 -7 -223.5 -34
t-190 -73.5t-132 -112t-49.5 -149.5q0 -53 19.5 -94t55 -69.5t84.5 -43.5t109 -15q99 0 183 41t149 104l67 69q59 -101 157.5 -157.5t229.5 -56.5q146 0 252 60t171 159l-14 14q-27 -27 -62 -47.5t-76.5 -35t-86.5 -22t-92 -7.5q-81 0 -144 29.5t-107.5 85t-68 135.5
t-24.5 182q0 13 0.5 24.5t1.5 22.5h690z" />
    <glyph glyph-name="ccedilla" unicode="&#xe7;" horiz-adv-x="1019" 
d="M605 1027q-114 0 -211.5 -39.5t-169 -111.5t-112.5 -174.5t-41 -228.5q0 -112 34.5 -204t95.5 -157t146 -100.5t185 -35.5q143 0 248.5 60t168.5 159l-12 14q-27 -27 -63 -49.5t-77 -38t-85.5 -24t-88.5 -8.5q-82 0 -145 32t-105.5 91t-64.5 142.5t-22 187.5
q0 102 19.5 185t58.5 142t98.5 91.5t139.5 33.5q15 0 31.5 -2t30.5 -4.5t24 -5t13 -3.5q20 -24 39 -56t38.5 -68.5t38.5 -76t37 -78.5h18l42 267q-24 9 -59.5 19.5t-77.5 19.5t-86.5 15t-85.5 6zM365 -455q66 11 119.5 31t91.5 47t59 61t21 73q0 31 -13.5 57.5t-36.5 46.5
t-55 32.5t-69 17.5l73 100l-40 6l-116 -164l4 -14q19 -5 37.5 -13t33.5 -22t24 -34t9 -47q0 -59 -38 -98.5t-107 -68.5z" />
    <glyph glyph-name="egrave" unicode="&#xe8;" horiz-adv-x="1022" 
d="M543 992q109 0 167 -92.5t58 -276.5l-486 -22q5 88 24.5 160t53.5 123.5t80 79.5t103 28zM940 209q-27 -27 -62 -49t-76.5 -37.5t-87 -24.5t-92.5 -9q-83 0 -146.5 30.5t-107 87.5t-66 138.5t-23.5 183.5v24.5t2 22.5h690q0 94 -28 176.5t-81.5 143.5t-131.5 96t-178 35
q-104 0 -192 -39.5t-152 -112t-100 -173.5t-36 -224q0 -111 33 -203.5t93.5 -159t145 -103t187.5 -36.5q146 0 252 60t171 159zM429 1459h-214l-7 -14l340 -290h16z" />
    <glyph glyph-name="eacute" unicode="&#xe9;" horiz-adv-x="1022" 
d="M543 992q109 0 167 -92.5t58 -276.5l-486 -22q5 88 24.5 160t53.5 123.5t80 79.5t103 28zM940 209q-27 -27 -62 -49t-76.5 -37.5t-87 -24.5t-92.5 -9q-83 0 -146.5 30.5t-107 87.5t-66 138.5t-23.5 183.5v24.5t2 22.5h690q0 94 -28 176.5t-81.5 143.5t-131.5 96t-178 35
q-104 0 -192 -39.5t-152 -112t-100 -173.5t-36 -224q0 -111 33 -203.5t93.5 -159t145 -103t187.5 -36.5q146 0 252 60t171 159zM702 1431l-135 -304h16l340 290l-7 14h-214z" />
    <glyph glyph-name="ecircumflex" unicode="&#xea;" horiz-adv-x="1022" 
d="M543 992q109 0 167 -92.5t58 -276.5l-486 -22q5 88 24.5 160t53.5 123.5t80 79.5t103 28zM940 209q-27 -27 -62 -49t-76.5 -37.5t-87 -24.5t-92.5 -9q-83 0 -146.5 30.5t-107 87.5t-66 138.5t-23.5 183.5v24.5t2 22.5h690q0 94 -28 176.5t-81.5 143.5t-131.5 96t-178 35
q-104 0 -192 -39.5t-152 -112t-100 -173.5t-36 -224q0 -111 33 -203.5t93.5 -159t145 -103t187.5 -36.5q146 0 252 60t171 159zM209 1132l19 -10l283 219l283 -219l18 10l-268 373h-68z" />
    <glyph glyph-name="edieresis" unicode="&#xeb;" horiz-adv-x="1022" 
d="M543 992q109 0 167 -92.5t58 -276.5l-486 -22q5 88 24.5 160t53.5 123.5t80 79.5t103 28zM940 209q-27 -27 -62 -49t-76.5 -37.5t-87 -24.5t-92.5 -9q-83 0 -146.5 30.5t-107 87.5t-66 138.5t-23.5 183.5v24.5t2 22.5h690q0 94 -28 176.5t-81.5 143.5t-131.5 96t-178 35
q-104 0 -192 -39.5t-152 -112t-100 -173.5t-36 -224q0 -111 33 -203.5t93.5 -159t145 -103t187.5 -36.5q146 0 252 60t171 159zM455 1263q0 46 -31 76t-81 30q-47 0 -78 -29.5t-31 -76.5t31 -77t78 -30q50 0 81 30.5t31 76.5zM735 1156q50 0 80 30t30 77t-31 76.5t-79 29.5
t-79 -29.5t-31 -76.5t31 -77t79 -30z" />
    <glyph glyph-name="igrave" unicode="&#xec;" horiz-adv-x="576" 
d="M52 953v-18l138 -59v-786l-156 -72v-18h508v18l-155 72v926l-12 11zM190 1439h-214l-7 -14l340 -290h16z" />
    <glyph glyph-name="iacute" unicode="&#xed;" horiz-adv-x="576" 
d="M52 953v-18l138 -59v-786l-156 -72v-18h508v18l-155 72v926l-12 11zM343 1426l-135 -304h16l340 290l-7 14h-214z" />
    <glyph glyph-name="icircumflex" unicode="&#xee;" horiz-adv-x="576" 
d="M52 953v-18l138 -59v-786l-156 -72v-18h508v18l-155 72v926l-12 11zM-23 1106l19 -10l283 219l283 -219l18 10l-268 373h-68z" />
    <glyph glyph-name="idieresis" unicode="&#xef;" horiz-adv-x="576" 
d="M52 953v-18l138 -59v-786l-156 -72v-18h508v18l-155 72v926l-12 11zM182 1276q0 46 -31 76t-81 30q-47 0 -78 -29.5t-31 -76.5t31 -77t78 -30q50 0 81 30.5t31 76.5zM462 1169q50 0 80 30t30 77t-31 76.5t-79 29.5t-79 -29.5t-31 -76.5t31 -77t79 -30z" />
    <glyph glyph-name="eth" unicode="&#xf0;" horiz-adv-x="1209" 
d="M592 994q65 0 121.5 -31t98.5 -91.5t66.5 -149.5t24.5 -206q0 -116 -19.5 -210t-57.5 -160t-95.5 -102t-133.5 -36q-75 0 -132.5 34.5t-96.5 98.5t-58.5 154t-19.5 202q0 114 19.5 205.5t57.5 156.5t94.5 100t130.5 35zM946 1529l-260 -134q-97 60 -206.5 98.5
t-237.5 59.5l-13 -35q116 -21 208.5 -62.5t167.5 -102.5l-324 -163l23 -38l338 168q95 -88 152 -189t91 -229q-48 52 -119 88t-174 36q-112 0 -206.5 -39.5t-163.5 -109t-107.5 -166t-38.5 -210.5q0 -115 40 -211.5t109.5 -166.5t165 -108.5t206.5 -38.5q114 0 209.5 41.5
t164.5 118t107.5 186t38.5 245.5q0 117 -23 229t-71 214t-121 192t-172 163l237 125z" />
    <glyph glyph-name="ntilde" unicode="&#xf1;" horiz-adv-x="1253" 
d="M1218 0v18l-155 72v634q0 67 -23 123t-65 96t-100 62t-128 22q-104 0 -196 -42.5t-164 -115.5v147l-12 11l-323 -74v-18l138 -59v-786l-156 -72v-18h506v18l-153 72v735q52 53 116 78t133 25q115 0 172.5 -61.5t57.5 -162.5v-614l-153 -72v-18h505zM463 1305
q33 0 69 -15.5t72.5 -33.5t73 -33.5t72.5 -15.5q47 0 82.5 18.5t60 50t40 72t23.5 83.5l-15 5q-47 -99 -150 -99q-35 0 -71.5 15.5t-73 33.5t-72 33.5t-69.5 15.5q-47 0 -82.5 -18.5t-60.5 -49.5t-40.5 -71.5t-24.5 -84.5l17 -4q46 98 149 98z" />
    <glyph glyph-name="ograve" unicode="&#xf2;" horiz-adv-x="1183" 
d="M591 1027q-111 0 -206 -39.5t-164.5 -110t-109.5 -167t-40 -209.5q0 -114 40 -210.5t109.5 -166.5t164.5 -109t206 -39q112 0 207.5 39t165 109t109 166.5t39.5 210.5q0 113 -39.5 209.5t-109 167t-165 110t-207.5 39.5zM286 501q0 112 21.5 203t61.5 155.5t96 99.5
t126 35q69 0 125.5 -35t96.5 -99.5t62 -155.5t22 -203q0 -113 -21.5 -204t-61.5 -155.5t-96.5 -99t-126.5 -34.5t-126.5 34.5t-96 99t-61 155.5t-21.5 204zM467 1442h-214l-7 -14l340 -290h16z" />
    <glyph glyph-name="oacute" unicode="&#xf3;" horiz-adv-x="1183" 
d="M591 1027q-111 0 -206 -39.5t-164.5 -110t-109.5 -167t-40 -209.5q0 -114 40 -210.5t109.5 -166.5t164.5 -109t206 -39q112 0 207.5 39t165 109t109 166.5t39.5 210.5q0 113 -39.5 209.5t-109 167t-165 110t-207.5 39.5zM286 501q0 112 21.5 203t61.5 155.5t96 99.5
t126 35q69 0 125.5 -35t96.5 -99.5t62 -155.5t22 -203q0 -113 -21.5 -204t-61.5 -155.5t-96.5 -99t-126.5 -34.5t-126.5 34.5t-96 99t-61 155.5t-21.5 204zM729 1422l-135 -304h16l340 290l-7 14h-214z" />
    <glyph glyph-name="ocircumflex" unicode="&#xf4;" horiz-adv-x="1183" 
d="M591 1027q-111 0 -206 -39.5t-164.5 -110t-109.5 -167t-40 -209.5q0 -114 40 -210.5t109.5 -166.5t164.5 -109t206 -39q112 0 207.5 39t165 109t109 166.5t39.5 210.5q0 113 -39.5 209.5t-109 167t-165 110t-207.5 39.5zM286 501q0 112 21.5 203t61.5 155.5t96 99.5
t126 35q69 0 125.5 -35t96.5 -99.5t62 -155.5t22 -203q0 -113 -21.5 -204t-61.5 -155.5t-96.5 -99t-126.5 -34.5t-126.5 34.5t-96 99t-61 155.5t-21.5 204zM290 1132l19 -10l283 219l283 -219l18 10l-268 373h-68z" />
    <glyph glyph-name="otilde" unicode="&#xf5;" horiz-adv-x="1183" 
d="M591 1027q-111 0 -206 -39.5t-164.5 -110t-109.5 -167t-40 -209.5q0 -114 40 -210.5t109.5 -166.5t164.5 -109t206 -39q112 0 207.5 39t165 109t109 166.5t39.5 210.5q0 113 -39.5 209.5t-109 167t-165 110t-207.5 39.5zM286 501q0 112 21.5 203t61.5 155.5t96 99.5
t126 35q69 0 125.5 -35t96.5 -99.5t62 -155.5t22 -203q0 -113 -21.5 -204t-61.5 -155.5t-96.5 -99t-126.5 -34.5t-126.5 34.5t-96 99t-61 155.5t-21.5 204zM436 1259q33 0 69 -15.5t72.5 -33.5t73 -33.5t72.5 -15.5q47 0 82.5 18.5t60 50t40 72t23.5 83.5l-15 5
q-47 -99 -150 -99q-35 0 -71.5 15.5t-73 33.5t-72 33.5t-69.5 15.5q-47 0 -82.5 -18.5t-60.5 -49.5t-40.5 -71.5t-24.5 -84.5l17 -4q46 98 149 98z" />
    <glyph glyph-name="odieresis" unicode="&#xf6;" horiz-adv-x="1183" 
d="M591 1027q-111 0 -206 -39.5t-164.5 -110t-109.5 -167t-40 -209.5q0 -114 40 -210.5t109.5 -166.5t164.5 -109t206 -39q112 0 207.5 39t165 109t109 166.5t39.5 210.5q0 113 -39.5 209.5t-109 167t-165 110t-207.5 39.5zM286 501q0 112 21.5 203t61.5 155.5t96 99.5
t126 35q69 0 125.5 -35t96.5 -99.5t62 -155.5t22 -203q0 -113 -21.5 -204t-61.5 -155.5t-96.5 -99t-126.5 -34.5t-126.5 34.5t-96 99t-61 155.5t-21.5 204zM507 1339q0 46 -31 76t-81 30q-47 0 -78 -29.5t-31 -76.5t31 -77t78 -30q50 0 81 30.5t31 76.5zM787 1232
q50 0 80 30t30 77t-31 76.5t-79 29.5t-79 -29.5t-31 -76.5t31 -77t79 -30z" />
    <glyph glyph-name="divide" unicode="&#xf7;" horiz-adv-x="1060" 
d="M520 118q51 0 83 30.5t32 80.5q0 49 -32 80t-83 31q-50 0 -82.5 -31t-32.5 -80q0 -50 33 -80.5t82 -30.5zM520 955q-50 0 -82.5 -31t-32.5 -80q0 -50 33 -80.5t82 -30.5q51 0 83 30.5t32 80.5q0 49 -32 80t-83 31zM114 556v-46h831v46h-831z" />
    <glyph glyph-name="oslash" unicode="&#xf8;" horiz-adv-x="1183" 
d="M591 994q33 0 63.5 -8.5t58.5 -24.5l-311 -866q-56 64 -86 167t-30 239q0 112 21.5 203t61.5 155.5t96 99.5t126 35zM897 501q0 -113 -21.5 -204t-61.5 -155.5t-96.5 -99t-126.5 -34.5q-80 0 -142 45l312 871q64 -62 100 -170t36 -253zM730 1009q-66 18 -139 18
q-111 0 -206 -39.5t-164.5 -110t-109.5 -167t-40 -209.5q0 -84 22 -159t62 -137t96 -109t124 -77l-59 -164h62l52 145q38 -11 78 -17.5t83 -6.5q112 0 207.5 39t165 109t109 166.5t39.5 210.5q0 87 -23.5 164t-66.5 140.5t-103 111t-134 75.5l59 164h-61z" />
    <glyph glyph-name="ugrave" unicode="&#xf9;" horiz-adv-x="1227" 
d="M702 953v-18l139 -59v-695q-23 -24 -54 -43.5t-66.5 -33.5t-74 -21.5t-76.5 -7.5q-53 0 -92.5 18t-65.5 50.5t-38.5 78t-12.5 100.5v694l-11 11l-324 -74v-18l139 -59v-599q0 -73 24.5 -129t65.5 -94.5t96.5 -58t116.5 -19.5q55 0 109.5 13.5t104 36t92 52t72.5 61.5
l24 -163l277 62v12l-110 67v899l-11 11zM517 1468h-214l-7 -14l340 -290h16z" />
    <glyph glyph-name="uacute" unicode="&#xfa;" horiz-adv-x="1227" 
d="M702 953v-18l139 -59v-695q-23 -24 -54 -43.5t-66.5 -33.5t-74 -21.5t-76.5 -7.5q-53 0 -92.5 18t-65.5 50.5t-38.5 78t-12.5 100.5v694l-11 11l-324 -74v-18l139 -59v-599q0 -73 24.5 -129t65.5 -94.5t96.5 -58t116.5 -19.5q55 0 109.5 13.5t104 36t92 52t72.5 61.5
l24 -163l277 62v12l-110 67v899l-11 11zM679 1487l-135 -304h16l340 290l-7 14h-214z" />
    <glyph glyph-name="ucircumflex" unicode="&#xfb;" horiz-adv-x="1227" 
d="M702 953v-18l139 -59v-695q-23 -24 -54 -43.5t-66.5 -33.5t-74 -21.5t-76.5 -7.5q-53 0 -92.5 18t-65.5 50.5t-38.5 78t-12.5 100.5v694l-11 11l-324 -74v-18l139 -59v-599q0 -73 24.5 -129t65.5 -94.5t96.5 -58t116.5 -19.5q55 0 109.5 13.5t104 36t92 52t72.5 61.5
l24 -163l277 62v12l-110 67v899l-11 11zM311 1139l19 -10l283 219l283 -219l18 10l-268 373h-68z" />
    <glyph glyph-name="udieresis" unicode="&#xfc;" horiz-adv-x="1227" 
d="M702 953v-18l139 -59v-695q-23 -24 -54 -43.5t-66.5 -33.5t-74 -21.5t-76.5 -7.5q-53 0 -92.5 18t-65.5 50.5t-38.5 78t-12.5 100.5v694l-11 11l-324 -74v-18l139 -59v-599q0 -73 24.5 -129t65.5 -94.5t96.5 -58t116.5 -19.5q55 0 109.5 13.5t104 36t92 52t72.5 61.5
l24 -163l277 62v12l-110 67v899l-11 11zM529 1339q0 46 -31 76t-81 30q-47 0 -78 -29.5t-31 -76.5t31 -77t78 -30q50 0 81 30.5t31 76.5zM809 1232q50 0 80 30t30 77t-31 76.5t-79 29.5t-79 -29.5t-31 -76.5t31 -77t79 -30z" />
    <glyph glyph-name="yacute" unicode="&#xfd;" horiz-adv-x="995" 
d="M721 981l125 -73l-267 -702l-263 702l131 73v19h-456v-19l106 -72l378 -953l-55 -128q-26 -45 -73.5 -70t-99 -39t-98 -21t-70.5 -16l-5 -17l118 -170q22 7 54.5 29t74 73t89.5 138.5t102 224.5l371 948l108 73v19h-270v-19zM639 1477l-135 -304h16l340 290l-7 14h-214z
" />
    <glyph glyph-name="thorn" unicode="&#xfe;" horiz-adv-x="1170" 
d="M573 8q-81 0 -141.5 42.5t-92.5 130.5v653q44 49 99.5 76.5t120.5 27.5q72 0 130 -30t99.5 -88t63.5 -142t22 -192t-21 -196t-60 -151t-94.5 -97t-125.5 -34zM663 1027q-99 0 -184 -41t-140 -107v612l-12 11l-295 -73v-13l111 -68v-1674l-156 -72v-18h508v18l-156 72v343
q54 -20 110 -29.5t111 -11.5q128 0 226 43t165 118t101.5 176t34.5 217q0 113 -31 204.5t-87 156.5t-134 100.5t-172 35.5z" />
    <glyph glyph-name="ydieresis" unicode="&#xff;" horiz-adv-x="995" 
d="M721 981l125 -73l-267 -702l-263 702l131 73v19h-456v-19l106 -72l378 -953l-55 -128q-26 -45 -73.5 -70t-99 -39t-98 -21t-70.5 -16l-5 -17l118 -170q22 7 54.5 29t74 73t89.5 138.5t102 224.5l371 948l108 73v19h-270v-19zM453 1281q0 46 -31 76t-81 30
q-47 0 -78 -29.5t-31 -76.5t31 -77t78 -30q50 0 81 30.5t31 76.5zM733 1174q50 0 80 30t30 77t-31 76.5t-79 29.5t-79 -29.5t-31 -76.5t31 -77t79 -30z" />
    <glyph glyph-name="Amacron" unicode="&#x100;" horiz-adv-x="1460" 
d="M902 515h-522l261 735zM1278 111l-490 1328h-277v-19l95 -135l-422 -1174l-179 -92v-19h443v19l-210 93h-1l127 359h554l128 -359l-161 -93v-19h562v19zM982 1640v43h-646v-43h646z" />
    <glyph glyph-name="amacron" unicode="&#x101;" horiz-adv-x="1033" 
d="M261 243q0 63 29 112.5t81 86.5t124 59.5t158 31.5v-377q-47 -42 -104.5 -60.5t-124.5 -18.5q-85 0 -124 43.5t-39 122.5zM850 689q0 71 -15 132t-52.5 107t-101.5 72t-162 26q-121 0 -223.5 -40.5t-174.5 -105.5l13 -19q60 35 128.5 51t146.5 16q68 0 114.5 -19
t75.5 -52t41.5 -78t12.5 -97v-115q-116 -7 -223.5 -34t-190 -73.5t-132 -112t-49.5 -149.5q0 -53 19.5 -94t55 -69.5t84.5 -43.5t109 -15q99 0 184 40t148 105l24 -145l278 62v12l-110 67v572zM832 1182v43h-646v-43h646z" />
    <glyph glyph-name="Abreve" unicode="&#x102;" horiz-adv-x="1460" 
d="M902 515h-522l261 735zM1278 111l-490 1328h-277v-19l95 -135l-422 -1174l-179 -92v-19h443v19l-210 93h-1l127 359h554l128 -359l-161 -93v-19h562v19zM728 1738q-114 0 -172.5 40t-72.5 126l-17 -5q1 -60 17.5 -114t49 -95.5t81 -65.5t114.5 -24q67 0 116.5 24t82 65.5
t49 95.5t17.5 114l-16 5q-15 -86 -74.5 -126t-174.5 -40z" />
    <glyph glyph-name="abreve" unicode="&#x103;" horiz-adv-x="1033" 
d="M261 243q0 63 29 112.5t81 86.5t124 59.5t158 31.5v-377q-47 -42 -104.5 -60.5t-124.5 -18.5q-85 0 -124 43.5t-39 122.5zM850 689q0 71 -15 132t-52.5 107t-101.5 72t-162 26q-121 0 -223.5 -40.5t-174.5 -105.5l13 -19q60 35 128.5 51t146.5 16q68 0 114.5 -19
t75.5 -52t41.5 -78t12.5 -97v-115q-116 -7 -223.5 -34t-190 -73.5t-132 -112t-49.5 -149.5q0 -53 19.5 -94t55 -69.5t84.5 -43.5t109 -15q99 0 184 40t148 105l24 -145l278 62v12l-110 67v572zM515 1299q-114 0 -172.5 40t-72.5 126l-17 -5q1 -60 17.5 -114t49 -95.5
t81 -65.5t114.5 -24q67 0 116.5 24t82 65.5t49 95.5t17.5 114l-16 5q-15 -86 -74.5 -126t-174.5 -40z" />
    <glyph glyph-name="Aogonek" unicode="&#x104;" horiz-adv-x="1460" 
d="M902 515h-522l261 735zM1278 111l-490 1328h-277v-19l95 -135l-422 -1174l-179 -92v-19h443v19l-210 93h-1l127 359h554l128 -359l-161 -93v-19h562v19zM1406 15q-63 -38 -114.5 -76.5t-87.5 -77.5t-56 -79.5t-20 -82.5q0 -69 45 -108t128 -39q41 0 76.5 10.5t65.5 27.5
t55.5 38.5t45.5 44.5l-10 11q-38 -33 -77 -44t-77 -11q-52 0 -79.5 26t-27.5 80q0 66 37 132t123 134z" />
    <glyph glyph-name="aogonek" unicode="&#x105;" horiz-adv-x="1033" 
d="M261 243q0 63 29 112.5t81 86.5t124 59.5t158 31.5v-377q-47 -42 -104.5 -60.5t-124.5 -18.5q-85 0 -124 43.5t-39 122.5zM850 689q0 71 -15 132t-52.5 107t-101.5 72t-162 26q-121 0 -223.5 -40.5t-174.5 -105.5l13 -19q60 35 128.5 51t146.5 16q68 0 114.5 -19
t75.5 -52t41.5 -78t12.5 -97v-115q-116 -7 -223.5 -34t-190 -73.5t-132 -112t-49.5 -149.5q0 -53 19.5 -94t55 -69.5t84.5 -43.5t109 -15q99 0 184 40t148 105l24 -145l278 62v12l-110 67v572zM809 27q-63 -38 -114.5 -76.5t-87.5 -77.5t-56 -79.5t-20 -82.5q0 -69 45 -108
t128 -39q41 0 76.5 10.5t65.5 27.5t55.5 38.5t45.5 44.5l-10 11q-38 -33 -77 -44t-77 -11q-52 0 -79.5 26t-27.5 80q0 66 37 132t123 134z" />
    <glyph glyph-name="Cacute" unicode="&#x106;" horiz-adv-x="1367" 
d="M1237 1354q-106 48 -217 78t-228 30q-167 0 -300.5 -56t-227 -156t-143.5 -237t-50 -299q0 -161 51.5 -296.5t145.5 -233.5t226 -153t292 -55q122 0 231 29t220 78l26 372h-18q-8 -27 -25.5 -80t-50.5 -113t-86.5 -118.5t-133.5 -97.5l-9 -5q-39 -12 -75.5 -17t-69.5 -5
q-118 0 -209 50t-153.5 141.5t-95 220t-32.5 285.5q0 153 30.5 281.5t90 222t148 146t205.5 52.5q39 0 79.5 -5t82.5 -18l8 -4q82 -39 135 -97t86 -117.5t49.5 -112t25.5 -81.5h18zM936 1903l-135 -304h16l340 290l-7 14h-214z" />
    <glyph glyph-name="cacute" unicode="&#x107;" horiz-adv-x="1019" 
d="M605 1027q-114 0 -211.5 -39.5t-169 -111.5t-112.5 -174.5t-41 -228.5q0 -112 34.5 -204t95.5 -157t146 -100.5t185 -35.5q143 0 248.5 60t168.5 159l-12 14q-27 -27 -63 -49.5t-77 -38t-85.5 -24t-88.5 -8.5q-82 0 -145 32t-105.5 91t-64.5 142.5t-22 187.5
q0 102 19.5 185t58.5 142t98.5 91.5t139.5 33.5q15 0 31.5 -2t30.5 -4.5t24 -5t13 -3.5q20 -24 39 -56t38.5 -68.5t38.5 -76t37 -78.5h18l42 267q-24 9 -59.5 19.5t-77.5 19.5t-86.5 15t-85.5 6zM743 1479l-135 -304h16l340 290l-7 14h-214z" />
    <glyph glyph-name="Ccircumflex" unicode="&#x108;" horiz-adv-x="1367" 
d="M1237 1354q-106 48 -217 78t-228 30q-167 0 -300.5 -56t-227 -156t-143.5 -237t-50 -299q0 -161 51.5 -296.5t145.5 -233.5t226 -153t292 -55q122 0 231 29t220 78l26 372h-18q-8 -27 -25.5 -80t-50.5 -113t-86.5 -118.5t-133.5 -97.5l-9 -5q-39 -12 -75.5 -17t-69.5 -5
q-118 0 -209 50t-153.5 141.5t-95 220t-32.5 285.5q0 153 30.5 281.5t90 222t148 146t205.5 52.5q39 0 79.5 -5t82.5 -18l8 -4q82 -39 135 -97t86 -117.5t49.5 -112t25.5 -81.5h18zM487 1571l19 -10l283 219l283 -219l18 10l-268 373h-68z" />
    <glyph glyph-name="ccircumflex" unicode="&#x109;" horiz-adv-x="1019" 
d="M605 1027q-114 0 -211.5 -39.5t-169 -111.5t-112.5 -174.5t-41 -228.5q0 -112 34.5 -204t95.5 -157t146 -100.5t185 -35.5q143 0 248.5 60t168.5 159l-12 14q-27 -27 -63 -49.5t-77 -38t-85.5 -24t-88.5 -8.5q-82 0 -145 32t-105.5 91t-64.5 142.5t-22 187.5
q0 102 19.5 185t58.5 142t98.5 91.5t139.5 33.5q15 0 31.5 -2t30.5 -4.5t24 -5t13 -3.5q20 -24 39 -56t38.5 -68.5t38.5 -76t37 -78.5h18l42 267q-24 9 -59.5 19.5t-77.5 19.5t-86.5 15t-85.5 6zM281 1132l19 -10l283 219l283 -219l18 10l-268 373h-68z" />
    <glyph glyph-name="Cdotaccent" unicode="&#x10a;" horiz-adv-x="1367" 
d="M1237 1354q-106 48 -217 78t-228 30q-167 0 -300.5 -56t-227 -156t-143.5 -237t-50 -299q0 -161 51.5 -296.5t145.5 -233.5t226 -153t292 -55q122 0 231 29t220 78l26 372h-18q-8 -27 -25.5 -80t-50.5 -113t-86.5 -118.5t-133.5 -97.5l-9 -5q-39 -12 -75.5 -17t-69.5 -5
q-118 0 -209 50t-153.5 141.5t-95 220t-32.5 285.5q0 153 30.5 281.5t90 222t148 146t205.5 52.5q39 0 79.5 -5t82.5 -18l8 -4q82 -39 135 -97t86 -117.5t49.5 -112t25.5 -81.5h18zM674 1748q0 -51 33 -82t86 -31t86 31t33 82q0 49 -33.5 81t-85.5 32q-53 0 -86 -32t-33 -81
z" />
    <glyph glyph-name="cdotaccent" unicode="&#x10b;" horiz-adv-x="1019" 
d="M605 1027q-114 0 -211.5 -39.5t-169 -111.5t-112.5 -174.5t-41 -228.5q0 -112 34.5 -204t95.5 -157t146 -100.5t185 -35.5q143 0 248.5 60t168.5 159l-12 14q-27 -27 -63 -49.5t-77 -38t-85.5 -24t-88.5 -8.5q-82 0 -145 32t-105.5 91t-64.5 142.5t-22 187.5
q0 102 19.5 185t58.5 142t98.5 91.5t139.5 33.5q15 0 31.5 -2t30.5 -4.5t24 -5t13 -3.5q20 -24 39 -56t38.5 -68.5t38.5 -76t37 -78.5h18l42 267q-24 9 -59.5 19.5t-77.5 19.5t-86.5 15t-85.5 6zM499 1316q0 -51 33 -82t86 -31t86 31t33 82q0 49 -33.5 81t-85.5 32
q-53 0 -86 -32t-33 -81z" />
    <glyph glyph-name="Ccaron" unicode="&#x10c;" horiz-adv-x="1367" 
d="M1237 1354q-106 48 -217 78t-228 30q-167 0 -300.5 -56t-227 -156t-143.5 -237t-50 -299q0 -161 51.5 -296.5t145.5 -233.5t226 -153t292 -55q122 0 231 29t220 78l26 372h-18q-8 -27 -25.5 -80t-50.5 -113t-86.5 -118.5t-133.5 -97.5l-9 -5q-39 -12 -75.5 -17t-69.5 -5
q-118 0 -209 50t-153.5 141.5t-95 220t-32.5 285.5q0 153 30.5 281.5t90 222t148 146t205.5 52.5q39 0 79.5 -5t82.5 -18l8 -4q82 -39 135 -97t86 -117.5t49.5 -112t25.5 -81.5h18zM1125 1943l-18 10l-283 -218l-283 218l-19 -10l267 -372h68z" />
    <glyph glyph-name="ccaron" unicode="&#x10d;" horiz-adv-x="1019" 
d="M605 1027q-114 0 -211.5 -39.5t-169 -111.5t-112.5 -174.5t-41 -228.5q0 -112 34.5 -204t95.5 -157t146 -100.5t185 -35.5q143 0 248.5 60t168.5 159l-12 14q-27 -27 -63 -49.5t-77 -38t-85.5 -24t-88.5 -8.5q-82 0 -145 32t-105.5 91t-64.5 142.5t-22 187.5
q0 102 19.5 185t58.5 142t98.5 91.5t139.5 33.5q15 0 31.5 -2t30.5 -4.5t24 -5t13 -3.5q20 -24 39 -56t38.5 -68.5t38.5 -76t37 -78.5h18l42 267q-24 9 -59.5 19.5t-77.5 19.5t-86.5 15t-85.5 6zM923 1504l-18 10l-283 -218l-283 218l-19 -10l267 -372h68z" />
    <glyph glyph-name="Dcaron" unicode="&#x10e;" horiz-adv-x="1466" 
d="M664 1396q251 0 374 -172t123 -516q0 -161 -29.5 -285t-91.5 -208.5t-158.5 -128t-231.5 -43.5h-233v1353h247zM42 19v-19h624q169 0 304 48t229 140t144.5 226t50.5 307t-50.5 306.5t-143.5 225t-225 139t-295 47.5h-634v-19l159 -91v-1218zM798 1933l-18 10l-283 -218
l-283 218l-19 -10l267 -372h68z" />
    <glyph glyph-name="dcaron" unicode="&#x10f;" horiz-adv-x="1413" 
d="M286 516q0 106 22.5 193.5t63.5 150.5t99.5 97.5t131.5 34.5q37 0 72 -11.5t63.5 -34.5t49.5 -59t31 -85v-641q-100 -87 -229 -87q-70 0 -126.5 29t-96 85.5t-60.5 139t-21 188.5zM714 1429v-20l105 -58v-403q-45 38 -101.5 58.5t-122.5 20.5q-121 0 -217.5 -42
t-164.5 -116.5t-104.5 -177.5t-36.5 -226q0 -107 28 -197t81.5 -155t130 -101t172.5 -36q59 0 108 12t90 32.5t75.5 47t65.5 55.5l25 -147l278 62v12l-110 67v1374l-12 11zM1214 1412q36 -38 54.5 -82.5t18.5 -86.5q0 -30 -5.5 -62t-18 -63t-32 -58.5t-47.5 -48.5l12 -20
q58 26 107.5 58.5t86 72t57 87.5t20.5 105q0 70 -20.5 116.5t-55.5 72.5z" />
    <glyph glyph-name="Dcroat" unicode="&#x110;" horiz-adv-x="1466" 
d="M1161 708q0 -161 -29.5 -285t-91.5 -208.5t-158.5 -128t-231.5 -43.5h-233v632h271v43h-271v678h247q251 0 374 -172t123 -516zM1394 721q0 173 -50.5 306.5t-143.5 225t-225 139t-295 47.5h-634v-19l159 -91v-611h-163v-43h163v-564l-163 -92v-19h624q169 0 304 48
t229 140t144.5 226t50.5 307z" />
    <glyph glyph-name="dcroat" unicode="&#x111;" horiz-adv-x="1191" 
d="M603 992q37 0 72 -11.5t63.5 -34.5t49.5 -59t31 -85v-641q-100 -87 -229 -87q-70 0 -126.5 29t-96 85.5t-60.5 139t-21 188.5t22.5 193.5t63.5 150.5t99.5 97.5t131.5 34.5zM1126 50l-110 67v1111h105v81h-105v182l-12 11l-290 -73v-20l105 -58v-42h-215v-81h215v-280
q-45 38 -101.5 58.5t-122.5 20.5q-121 0 -217.5 -42t-164.5 -116.5t-104.5 -177.5t-36.5 -226q0 -107 28 -197t81.5 -155t130 -101t172.5 -36q59 0 108 12t90 32.5t75.5 47t65.5 55.5l25 -147l278 62v12z" />
    <glyph glyph-name="Emacron" unicode="&#x112;" horiz-adv-x="1208" 
d="M719 760h-302v636h466l172 -323h9v366h-1022v-19l163 -93v-1216l-163 -92v-19h1089l53 366l-9 1l-224 -324h-534v674h302l120 -189h17v416h-17zM936 1622v43h-646v-43h646z" />
    <glyph glyph-name="emacron" unicode="&#x113;" horiz-adv-x="1022" 
d="M543 992q109 0 167 -92.5t58 -276.5l-486 -22q5 88 24.5 160t53.5 123.5t80 79.5t103 28zM940 209q-27 -27 -62 -49t-76.5 -37.5t-87 -24.5t-92.5 -9q-83 0 -146.5 30.5t-107 87.5t-66 138.5t-23.5 183.5v24.5t2 22.5h690q0 94 -28 176.5t-81.5 143.5t-131.5 96t-178 35
q-104 0 -192 -39.5t-152 -112t-100 -173.5t-36 -224q0 -111 33 -203.5t93.5 -159t145 -103t187.5 -36.5q146 0 252 60t171 159zM876 1209v43h-646v-43h646z" />
    <glyph glyph-name="Ebreve" unicode="&#x114;" horiz-adv-x="1208" 
d="M719 760h-302v636h466l172 -323h9v366h-1022v-19l163 -93v-1216l-163 -92v-19h1089l53 366l-9 1l-224 -324h-534v674h302l120 -189h17v416h-17zM602 1738q-114 0 -172.5 40t-72.5 126l-17 -5q1 -60 17.5 -114t49 -95.5t81 -65.5t114.5 -24q67 0 116.5 24t82 65.5t49 95.5
t17.5 114l-16 5q-15 -86 -74.5 -126t-174.5 -40z" />
    <glyph glyph-name="ebreve" unicode="&#x115;" horiz-adv-x="1022" 
d="M543 992q109 0 167 -92.5t58 -276.5l-486 -22q5 88 24.5 160t53.5 123.5t80 79.5t103 28zM940 209q-27 -27 -62 -49t-76.5 -37.5t-87 -24.5t-92.5 -9q-83 0 -146.5 30.5t-107 87.5t-66 138.5t-23.5 183.5v24.5t2 22.5h690q0 94 -28 176.5t-81.5 143.5t-131.5 96t-178 35
q-104 0 -192 -39.5t-152 -112t-100 -173.5t-36 -224q0 -111 33 -203.5t93.5 -159t145 -103t187.5 -36.5q146 0 252 60t171 159zM546 1299q-114 0 -172.5 40t-72.5 126l-17 -5q1 -60 17.5 -114t49 -95.5t81 -65.5t114.5 -24q67 0 116.5 24t82 65.5t49 95.5t17.5 114l-16 5
q-15 -86 -74.5 -126t-174.5 -40z" />
    <glyph glyph-name="Edotaccent" unicode="&#x116;" horiz-adv-x="1208" 
d="M719 760h-302v636h466l172 -323h9v366h-1022v-19l163 -93v-1216l-163 -92v-19h1089l53 366l-9 1l-224 -324h-534v674h302l120 -189h17v416h-17zM484 1778q0 -51 33 -82t86 -31t86 31t33 82q0 49 -33.5 81t-85.5 32q-53 0 -86 -32t-33 -81z" />
    <glyph glyph-name="edotaccent" unicode="&#x117;" horiz-adv-x="1022" 
d="M543 992q109 0 167 -92.5t58 -276.5l-486 -22q5 88 24.5 160t53.5 123.5t80 79.5t103 28zM940 209q-27 -27 -62 -49t-76.5 -37.5t-87 -24.5t-92.5 -9q-83 0 -146.5 30.5t-107 87.5t-66 138.5t-23.5 183.5v24.5t2 22.5h690q0 94 -28 176.5t-81.5 143.5t-131.5 96t-178 35
q-104 0 -192 -39.5t-152 -112t-100 -173.5t-36 -224q0 -111 33 -203.5t93.5 -159t145 -103t187.5 -36.5q146 0 252 60t171 159zM433 1280q0 -51 33 -82t86 -31t86 31t33 82q0 49 -33.5 81t-85.5 32q-53 0 -86 -32t-33 -81z" />
    <glyph glyph-name="Eogonek" unicode="&#x118;" horiz-adv-x="1208" 
d="M719 760h-302v636h466l172 -323h9v366h-1022v-19l163 -93v-1216l-163 -92v-19h1089l53 366l-9 1l-224 -324h-534v674h302l120 -189h17v416h-17zM1093 15q-63 -38 -114.5 -76.5t-87.5 -77.5t-56 -79.5t-20 -82.5q0 -69 45 -108t128 -39q41 0 76.5 10.5t65.5 27.5
t55.5 38.5t45.5 44.5l-10 11q-38 -33 -77 -44t-77 -11q-52 0 -79.5 26t-27.5 80q0 66 37 132t123 134z" />
    <glyph glyph-name="eogonek" unicode="&#x119;" horiz-adv-x="1022" 
d="M543 992q109 0 167 -92.5t58 -276.5l-486 -22q5 88 24.5 160t53.5 123.5t80 79.5t103 28zM940 209q-27 -27 -62 -49t-76.5 -37.5t-87 -24.5t-92.5 -9q-83 0 -146.5 30.5t-107 87.5t-66 138.5t-23.5 183.5v24.5t2 22.5h690q0 94 -28 176.5t-81.5 143.5t-131.5 96t-178 35
q-104 0 -192 -39.5t-152 -112t-100 -173.5t-36 -224q0 -111 33 -203.5t93.5 -159t145 -103t187.5 -36.5q146 0 252 60t171 159zM798 80q-63 -38 -114.5 -76.5t-87.5 -77.5t-56 -79.5t-20 -82.5q0 -69 45 -108t128 -39q41 0 76.5 10.5t65.5 27.5t55.5 38.5t45.5 44.5l-10 11
q-38 -33 -77 -44t-77 -11q-52 0 -79.5 26t-27.5 80q0 66 37 132t123 134z" />
    <glyph glyph-name="Ecaron" unicode="&#x11a;" horiz-adv-x="1208" 
d="M719 760h-302v636h466l172 -323h9v366h-1022v-19l163 -93v-1216l-163 -92v-19h1089l53 366l-9 1l-224 -324h-534v674h302l120 -189h17v416h-17zM905 1943l-18 10l-283 -218l-283 218l-19 -10l267 -372h68z" />
    <glyph glyph-name="ecaron" unicode="&#x11b;" horiz-adv-x="1022" 
d="M543 992q109 0 167 -92.5t58 -276.5l-486 -22q5 88 24.5 160t53.5 123.5t80 79.5t103 28zM940 209q-27 -27 -62 -49t-76.5 -37.5t-87 -24.5t-92.5 -9q-83 0 -146.5 30.5t-107 87.5t-66 138.5t-23.5 183.5v24.5t2 22.5h690q0 94 -28 176.5t-81.5 143.5t-131.5 96t-178 35
q-104 0 -192 -39.5t-152 -112t-100 -173.5t-36 -224q0 -111 33 -203.5t93.5 -159t145 -103t187.5 -36.5q146 0 252 60t171 159zM858 1504l-18 10l-283 -218l-283 218l-19 -10l267 -372h68z" />
    <glyph glyph-name="Gcircumflex" unicode="&#x11c;" horiz-adv-x="1430" 
d="M1238 1354q-100 45 -210.5 76.5t-222.5 31.5q-175 0 -312 -56.5t-230.5 -156.5t-142.5 -236.5t-49 -296.5q0 -162 50 -297.5t143.5 -234t227 -153.5t300.5 -55q93 0 171.5 17t142 42.5t113 56.5t85.5 59l7 5v504h-398v-13l199 -113l-1 -332q0 -35 -26.5 -68t-67.5 -58.5
t-90.5 -41t-96.5 -15.5q-132 0 -231 49.5t-164 140.5t-97.5 219t-32.5 287q0 139 26 266.5t83.5 224.5t148.5 155t221 58q37 0 75.5 -5t78.5 -18l11 -5q82 -39 135 -97t86 -117.5t49.5 -112t25.5 -81.5h19zM502 1571l19 -10l283 219l283 -219l18 10l-268 373h-68z" />
    <glyph glyph-name="gcircumflex" unicode="&#x11d;" horiz-adv-x="1115" 
d="M511 357q-54 0 -94 22.5t-66.5 63.5t-39.5 100t-13 131t12.5 130.5t38.5 100t66.5 64.5t95.5 23q54 0 94 -22.5t66.5 -64.5t39 -100.5t12.5 -130.5q0 -73 -13 -131.5t-39.5 -100t-66 -63.5t-93.5 -22zM535 -390q-172 0 -266 57.5t-94 161.5q0 27 8 49.5t20.5 41t29 34.5
t32.5 29q44 -10 95.5 -13t105.5 -3q60 0 118 2t110 2q47 0 86 -8t66.5 -26t43 -47.5t15.5 -71.5q0 -99 -93 -153.5t-277 -54.5zM928 674q0 74 -29 135.5t-82 109.5l220 -4v166l-11 3l-245 -140q-59 42 -127 62.5t-143 20.5q-87 0 -163 -26t-132.5 -72.5t-89 -111
t-32.5 -140.5q0 -96 49.5 -174.5t135.5 -127.5q-35 -19 -67 -42.5t-56 -51.5t-38.5 -61.5t-14.5 -72.5q0 -51 30.5 -90.5t96.5 -59.5q-42 -16 -78.5 -37.5t-64 -48t-43.5 -58t-16 -67.5q0 -48 32.5 -87.5t94.5 -67t152.5 -42.5t207.5 -15q123 0 223 22t170.5 62.5t108.5 98
t38 127.5q0 137 -97.5 200t-275.5 63h-273q-99 0 -143 18t-44 70q0 37 24.5 69t67.5 55q43 -19 91.5 -28.5t105.5 -9.5q91 0 167.5 26.5t132 74t86.5 112t31 140.5zM204 1137l19 -10l283 219l283 -219l18 10l-268 373h-68z" />
    <glyph glyph-name="Gbreve" unicode="&#x11e;" horiz-adv-x="1430" 
d="M1238 1354q-100 45 -210.5 76.5t-222.5 31.5q-175 0 -312 -56.5t-230.5 -156.5t-142.5 -236.5t-49 -296.5q0 -162 50 -297.5t143.5 -234t227 -153.5t300.5 -55q93 0 171.5 17t142 42.5t113 56.5t85.5 59l7 5v504h-398v-13l199 -113l-1 -332q0 -35 -26.5 -68t-67.5 -58.5
t-90.5 -41t-96.5 -15.5q-132 0 -231 49.5t-164 140.5t-97.5 219t-32.5 287q0 139 26 266.5t83.5 224.5t148.5 155t221 58q37 0 75.5 -5t78.5 -18l11 -5q82 -39 135 -97t86 -117.5t49.5 -112t25.5 -81.5h19zM812 1738q-114 0 -172.5 40t-72.5 126l-17 -5q1 -60 17.5 -114
t49 -95.5t81 -65.5t114.5 -24q67 0 116.5 24t82 65.5t49 95.5t17.5 114l-16 5q-15 -86 -74.5 -126t-174.5 -40z" />
    <glyph glyph-name="gbreve" unicode="&#x11f;" horiz-adv-x="1115" 
d="M511 357q-54 0 -94 22.5t-66.5 63.5t-39.5 100t-13 131t12.5 130.5t38.5 100t66.5 64.5t95.5 23q54 0 94 -22.5t66.5 -64.5t39 -100.5t12.5 -130.5q0 -73 -13 -131.5t-39.5 -100t-66 -63.5t-93.5 -22zM535 -390q-172 0 -266 57.5t-94 161.5q0 27 8 49.5t20.5 41t29 34.5
t32.5 29q44 -10 95.5 -13t105.5 -3q60 0 118 2t110 2q47 0 86 -8t66.5 -26t43 -47.5t15.5 -71.5q0 -99 -93 -153.5t-277 -54.5zM928 674q0 74 -29 135.5t-82 109.5l220 -4v166l-11 3l-245 -140q-59 42 -127 62.5t-143 20.5q-87 0 -163 -26t-132.5 -72.5t-89 -111
t-32.5 -140.5q0 -96 49.5 -174.5t135.5 -127.5q-35 -19 -67 -42.5t-56 -51.5t-38.5 -61.5t-14.5 -72.5q0 -51 30.5 -90.5t96.5 -59.5q-42 -16 -78.5 -37.5t-64 -48t-43.5 -58t-16 -67.5q0 -48 32.5 -87.5t94.5 -67t152.5 -42.5t207.5 -15q123 0 223 22t170.5 62.5t108.5 98
t38 127.5q0 137 -97.5 200t-275.5 63h-273q-99 0 -143 18t-44 70q0 37 24.5 69t67.5 55q43 -19 91.5 -28.5t105.5 -9.5q91 0 167.5 26.5t132 74t86.5 112t31 140.5zM556 1299q-114 0 -172.5 40t-72.5 126l-17 -5q1 -60 17.5 -114t49 -95.5t81 -65.5t114.5 -24q67 0 116.5 24
t82 65.5t49 95.5t17.5 114l-16 5q-15 -86 -74.5 -126t-174.5 -40z" />
    <glyph glyph-name="Gdotaccent" unicode="&#x120;" horiz-adv-x="1430" 
d="M1238 1354q-100 45 -210.5 76.5t-222.5 31.5q-175 0 -312 -56.5t-230.5 -156.5t-142.5 -236.5t-49 -296.5q0 -162 50 -297.5t143.5 -234t227 -153.5t300.5 -55q93 0 171.5 17t142 42.5t113 56.5t85.5 59l7 5v504h-398v-13l199 -113l-1 -332q0 -35 -26.5 -68t-67.5 -58.5
t-90.5 -41t-96.5 -15.5q-132 0 -231 49.5t-164 140.5t-97.5 219t-32.5 287q0 139 26 266.5t83.5 224.5t148.5 155t221 58q37 0 75.5 -5t78.5 -18l11 -5q82 -39 135 -97t86 -117.5t49.5 -112t25.5 -81.5h19zM691 1754q0 -51 33 -82t86 -31t86 31t33 82q0 49 -33.5 81
t-85.5 32q-53 0 -86 -32t-33 -81z" />
    <glyph glyph-name="gdotaccent" unicode="&#x121;" horiz-adv-x="1115" 
d="M511 357q-54 0 -94 22.5t-66.5 63.5t-39.5 100t-13 131t12.5 130.5t38.5 100t66.5 64.5t95.5 23q54 0 94 -22.5t66.5 -64.5t39 -100.5t12.5 -130.5q0 -73 -13 -131.5t-39.5 -100t-66 -63.5t-93.5 -22zM535 -390q-172 0 -266 57.5t-94 161.5q0 27 8 49.5t20.5 41t29 34.5
t32.5 29q44 -10 95.5 -13t105.5 -3q60 0 118 2t110 2q47 0 86 -8t66.5 -26t43 -47.5t15.5 -71.5q0 -99 -93 -153.5t-277 -54.5zM928 674q0 74 -29 135.5t-82 109.5l220 -4v166l-11 3l-245 -140q-59 42 -127 62.5t-143 20.5q-87 0 -163 -26t-132.5 -72.5t-89 -111
t-32.5 -140.5q0 -96 49.5 -174.5t135.5 -127.5q-35 -19 -67 -42.5t-56 -51.5t-38.5 -61.5t-14.5 -72.5q0 -51 30.5 -90.5t96.5 -59.5q-42 -16 -78.5 -37.5t-64 -48t-43.5 -58t-16 -67.5q0 -48 32.5 -87.5t94.5 -67t152.5 -42.5t207.5 -15q123 0 223 22t170.5 62.5t108.5 98
t38 127.5q0 137 -97.5 200t-275.5 63h-273q-99 0 -143 18t-44 70q0 37 24.5 69t67.5 55q43 -19 91.5 -28.5t105.5 -9.5q91 0 167.5 26.5t132 74t86.5 112t31 140.5zM391 1329q0 -51 33 -82t86 -31t86 31t33 82q0 49 -33.5 81t-85.5 32q-53 0 -86 -32t-33 -81z" />
    <glyph glyph-name="uni0122" unicode="&#x122;" horiz-adv-x="1430" 
d="M1238 1354q-100 45 -210.5 76.5t-222.5 31.5q-175 0 -312 -56.5t-230.5 -156.5t-142.5 -236.5t-49 -296.5q0 -162 50 -297.5t143.5 -234t227 -153.5t300.5 -55q93 0 171.5 17t142 42.5t113 56.5t85.5 59l7 5v504h-398v-13l199 -113l-1 -332q0 -35 -26.5 -68t-67.5 -58.5
t-90.5 -41t-96.5 -15.5q-132 0 -231 49.5t-164 140.5t-97.5 219t-32.5 287q0 139 26 266.5t83.5 224.5t148.5 155t221 58q37 0 75.5 -5t78.5 -18l11 -5q82 -39 135 -97t86 -117.5t49.5 -112t25.5 -81.5h19zM653 -253q45 -29 71 -65.5t26 -75.5q0 -55 -28 -105t-82 -86
q2 -6 4.5 -10.5t4.5 -9.5q51 21 97 54t80.5 76t55 93.5t20.5 104.5q0 69 -30.5 116t-80.5 59z" />
    <glyph glyph-name="uni0123" unicode="&#x123;" horiz-adv-x="1115" 
d="M511 357q-54 0 -94 22.5t-66.5 63.5t-39.5 100t-13 131t12.5 130.5t38.5 100t66.5 64.5t95.5 23q54 0 94 -22.5t66.5 -64.5t39 -100.5t12.5 -130.5q0 -73 -13 -131.5t-39.5 -100t-66 -63.5t-93.5 -22zM535 -390q-172 0 -266 57.5t-94 161.5q0 27 8 49.5t20.5 41t29 34.5
t32.5 29q44 -10 95.5 -13t105.5 -3q60 0 118 2t110 2q47 0 86 -8t66.5 -26t43 -47.5t15.5 -71.5q0 -99 -93 -153.5t-277 -54.5zM928 674q0 74 -29 135.5t-82 109.5l220 -4v166l-11 3l-245 -140q-59 42 -127 62.5t-143 20.5q-87 0 -163 -26t-132.5 -72.5t-89 -111
t-32.5 -140.5q0 -96 49.5 -174.5t135.5 -127.5q-35 -19 -67 -42.5t-56 -51.5t-38.5 -61.5t-14.5 -72.5q0 -51 30.5 -90.5t96.5 -59.5q-42 -16 -78.5 -37.5t-64 -48t-43.5 -58t-16 -67.5q0 -48 32.5 -87.5t94.5 -67t152.5 -42.5t207.5 -15q123 0 223 22t170.5 62.5t108.5 98
t38 127.5q0 137 -97.5 200t-275.5 63h-273q-99 0 -143 18t-44 70q0 37 24.5 69t67.5 55q43 -19 91.5 -28.5t105.5 -9.5q91 0 167.5 26.5t132 74t86.5 112t31 140.5zM673 1685q-58 -26 -108 -58.5t-86 -72t-56.5 -87.5t-20.5 -105q0 -70 20 -116.5t56 -72.5l177 91
q-36 38 -54.5 83t-18.5 87q0 30 5.5 61.5t18 62.5t32 58.5t47.5 48.5z" />
    <glyph glyph-name="Hcircumflex" unicode="&#x124;" horiz-adv-x="1540" 
d="M960 0h539v19l-164 93v1215l164 93v19h-539v-19l163 -93v-569h-706v569l163 93v19h-538v-19l163 -93v-1216l-163 -92v-19h538v19l-163 93v602h706v-603l-163 -92v-19zM468 1571l19 -10l283 219l283 -219l18 10l-268 373h-68z" />
    <glyph glyph-name="hcircumflex" unicode="&#x125;" horiz-adv-x="1252" 
d="M1218 0v19l-155 71h-1v634q0 67 -23 123t-64.5 96t-99.5 62t-128 22q-106 0 -197 -43t-163 -116v623l-12 11l-290 -74v-19l105 -58v-1261l-156 -71v-19h506v19l-153 71v734q52 54 115.5 79t133.5 25q116 0 173 -61.5t57 -162.5v-614l-153 -71v-19h505zM-19 1537l19 -10
l283 219l283 -219l18 10l-268 373h-68z" />
    <glyph glyph-name="Hbar" unicode="&#x126;" horiz-adv-x="1540" 
d="M417 1031h706v-273h-706v273zM1335 112v1215l164 93v19h-539v-19l163 -93v-252h-706v252l163 93v19h-538v-19l163 -93v-1216l-163 -92v-19h538v19l-163 93v602h706v-603l-163 -92v-19h539v19z" />
    <glyph glyph-name="hbar" unicode="&#x127;" horiz-adv-x="1252" 
d="M387 90v734q52 54 115.5 79t133.5 25q116 0 173 -61.5t57 -162.5v-614l-153 -71v-19h505v19l-155 71h-1v634q0 67 -23 123t-64.5 96t-99.5 62t-128 22q-106 0 -197 -43t-163 -116v300h286v44h-286v279l-12 11l-290 -74v-19l105 -58v-139h-163v-44h163v-1078l-156 -71v-19
h506v19z" />
    <glyph glyph-name="Itilde" unicode="&#x128;" horiz-adv-x="622" 
d="M42 19v-19h538v19l-163 93v1215l163 93v19h-538v-19l163 -93v-1216zM148 1744q33 0 69 -15.5t72.5 -33.5t73 -33.5t72.5 -15.5q47 0 82.5 18.5t60 50t40 72t23.5 83.5l-15 5q-47 -99 -150 -99q-35 0 -71.5 15.5t-73 33.5t-72 33.5t-69.5 15.5q-47 0 -82.5 -18.5
t-60.5 -49.5t-40.5 -71.5t-24.5 -84.5l17 -4q46 98 149 98z" />
    <glyph glyph-name="itilde" unicode="&#x129;" horiz-adv-x="576" 
d="M52 953v-18l138 -59v-786l-156 -72v-18h508v18l-155 72v926l-12 11zM95 1267q33 0 69 -15.5t72.5 -33.5t73 -33.5t72.5 -15.5q47 0 82.5 18.5t60 50t40 72t23.5 83.5l-15 5q-47 -99 -150 -99q-35 0 -71.5 15.5t-73 33.5t-72 33.5t-69.5 15.5q-47 0 -82.5 -18.5
t-60.5 -49.5t-40.5 -71.5t-24.5 -84.5l17 -4q46 98 149 98z" />
    <glyph glyph-name="Imacron" unicode="&#x12a;" horiz-adv-x="622" 
d="M42 19v-19h538v19l-163 93v1215l163 93v19h-538v-19l163 -93v-1216zM645 1658v43h-646v-43h646z" />
    <glyph glyph-name="imacron" unicode="&#x12b;" horiz-adv-x="576" 
d="M52 953v-18l138 -59v-786l-156 -72v-18h508v18l-155 72v926l-12 11zM607 1206v43h-646v-43h646z" />
    <glyph glyph-name="Ibreve" unicode="&#x12c;" horiz-adv-x="622" 
d="M42 19v-19h538v19l-163 93v1215l163 93v19h-538v-19l163 -93v-1216zM309 1738q-114 0 -172.5 40t-72.5 126l-17 -5q1 -60 17.5 -114t49 -95.5t81 -65.5t114.5 -24q67 0 116.5 24t82 65.5t49 95.5t17.5 114l-16 5q-15 -86 -74.5 -126t-174.5 -40z" />
    <glyph glyph-name="ibreve" unicode="&#x12d;" horiz-adv-x="576" 
d="M52 953v-18l138 -59v-786l-156 -72v-18h508v18l-155 72v926l-12 11zM278 1292q-114 0 -172.5 40t-72.5 126l-17 -5q1 -60 17.5 -114t49 -95.5t81 -65.5t114.5 -24q67 0 116.5 24t82 65.5t49 95.5t17.5 114l-16 5q-15 -86 -74.5 -126t-174.5 -40z" />
    <glyph glyph-name="Iogonek" unicode="&#x12e;" horiz-adv-x="622" 
d="M42 19v-19h538v19l-163 93v1215l163 93v19h-538v-19l163 -93v-1216zM304 15q-63 -38 -114.5 -76.5t-87.5 -77.5t-56 -79.5t-20 -82.5q0 -69 45 -108t128 -39q41 0 76.5 10.5t65.5 27.5t55.5 38.5t45.5 44.5l-10 11q-38 -33 -77 -44t-77 -11q-52 0 -79.5 26t-27.5 80
q0 66 37 132t123 134z" />
    <glyph glyph-name="iogonek" unicode="&#x12f;" horiz-adv-x="577" 
d="M52 953v-18l138 -59v-786l-156 -72v-18h508v18l-155 72v926l-12 11zM161 1339q0 -51 33.5 -83t85.5 -32q54 0 87.5 32t33.5 83q0 49 -33.5 82t-87.5 33q-52 0 -85.5 -32.5t-33.5 -82.5zM308 15q-63 -38 -114.5 -76.5t-87.5 -77.5t-56 -79.5t-20 -82.5q0 -69 45 -108
t128 -39q41 0 76.5 10.5t65.5 27.5t55.5 38.5t45.5 44.5l-10 11q-38 -33 -77 -44t-77 -11q-52 0 -79.5 26t-27.5 80q0 66 37 132t123 134z" />
    <glyph glyph-name="Idotaccent" unicode="&#x130;" horiz-adv-x="622" 
d="M42 19v-19h538v19l-163 93v1215l163 93v19h-538v-19l163 -93v-1216zM199 1718q0 -51 33 -82t86 -31t86 31t33 82q0 49 -33.5 81t-85.5 32q-53 0 -86 -32t-33 -81z" />
    <glyph glyph-name="dotlessi" unicode="&#x131;" horiz-adv-x="576" 
d="M52 953v-18l138 -59v-786l-156 -72v-18h508v18l-155 72v926l-12 11z" />
    <glyph glyph-name="IJ" unicode="&#x132;" horiz-adv-x="1606" 
d="M42 19v-19h538v19l-163 93v1215l163 93v19h-538v-19l163 -93v-1216zM1002 19q-28 0 -57.5 22t-59 58t-56.5 82t-50 94.5t-40 95.5t-27 84h-20l28 -391q27 -18 62.5 -34t75.5 -28t82.5 -19t84.5 -7q80 0 150.5 24t122.5 69t82 110t30 148v1000l162 93v19h-559v-19l184 -93
h1v-919q0 -92 -9.5 -164t-32 -122t-60.5 -76.5t-94 -26.5z" />
    <glyph glyph-name="ij" unicode="&#x133;" horiz-adv-x="1084" 
d="M52 953v-18l138 -59v-786l-156 -72v-18h508v18l-155 72v926l-12 11zM161 1339q0 -51 33.5 -83t85.5 -32q54 0 87.5 32t33.5 83q0 49 -33.5 82t-87.5 33q-52 0 -85.5 -32.5t-33.5 -82.5zM741 876v-932q0 -120 -40.5 -200.5t-117.5 -141.5l5 -17q94 21 160.5 69.5
t108.5 117t61.5 152.5t19.5 175v917l-12 11l-323 -74v-18zM832 1224q53 0 86 32t33 83q0 49 -33 82t-86 33q-54 0 -87.5 -32.5t-33.5 -82.5q0 -51 33.5 -83t87.5 -32z" />
    <glyph glyph-name="Jcircumflex" unicode="&#x134;" horiz-adv-x="984" 
d="M380 19q-28 0 -57.5 22t-59 58t-56.5 82t-50 94.5t-40 95.5t-27 84h-20l28 -391q27 -18 62.5 -34t75.5 -28t82.5 -19t84.5 -7q80 0 150.5 24t122.5 69t82 110t30 148v1000l162 93v19h-559v-19l184 -93h1v-919q0 -92 -9.5 -164t-32 -122t-60.5 -76.5t-94 -26.5zM381 1571
l19 -10l283 219l283 -219l18 10l-268 373h-68z" />
    <glyph glyph-name="jcircumflex" unicode="&#x135;" horiz-adv-x="508" 
d="M11 -415q94 21 160.5 69.5t108.5 117t61.5 152.5t19.5 175v917l-12 11l-323 -74v-18l138 -59v-932q0 -120 -40.5 -200.5t-117.5 -141.5zM-57 1132l19 -10l283 219l283 -219l18 10l-268 373h-68z" />
    <glyph glyph-name="uni0136" unicode="&#x136;" horiz-adv-x="1439" 
d="M42 1420l163 -93v-1216l-163 -92v-19h538v19l-163 93v1215l163 93v19h-538v-19zM486 729l522 -729h364v30l-172 82l-546 727l465 488l185 93v19h-508v-19l247 -104zM601 -253q45 -29 71 -65.5t26 -75.5q0 -55 -28 -105t-82 -86q2 -6 4.5 -10.5t4.5 -9.5q51 21 97 54
t80.5 76t55 93.5t20.5 104.5q0 69 -30.5 116t-80.5 59z" />
    <glyph glyph-name="uni0137" unicode="&#x137;" horiz-adv-x="1153" 
d="M1086 988v12h-371v-12l168 -79l-496 -507v1089l-12 11l-290 -74v-20l105 -57v-1261l-156 -72v-18h508v18l-155 72v272l117 116l363 -478h241v19l-480 573l301 317zM458 -253q45 -29 71 -65.5t26 -75.5q0 -55 -28 -105t-82 -86q2 -6 4.5 -10.5t4.5 -9.5q51 21 97 54
t80.5 76t55 93.5t20.5 104.5q0 69 -30.5 116t-80.5 59z" />
    <glyph glyph-name="kgreenlandic" unicode="&#x138;" horiz-adv-x="1153" 
d="M929 909l157 79v12h-371v-12l168 -79l-496 -507v612l-12 11l-290 -73v-21l105 -57v-784l-156 -72v-18h508v18l-155 72v272l117 116l363 -478h241v19l-480 573z" />
    <glyph glyph-name="Lacute" unicode="&#x139;" horiz-adv-x="1130" 
d="M42 0h1015l53 366l-9 1l-224 -324h-460v1284l184 93v19h-559v-19l163 -93v-1216l-163 -92v-19zM446 1877l-135 -304h16l340 290l-7 14h-214z" />
    <glyph glyph-name="lacute" unicode="&#x13a;" horiz-adv-x="577" 
d="M85 1428v-19l105 -58v-1261l-156 -72v-18h508v18l-155 72v1401l-12 11zM388 1833l-135 -304h16l340 290l-7 14h-214z" />
    <glyph glyph-name="uni013B" unicode="&#x13b;" horiz-adv-x="1130" 
d="M42 0h1015l53 366l-9 1l-224 -324h-460v1284l184 93v19h-559v-19l163 -93v-1216l-163 -92v-19zM447 -253q45 -29 71 -65.5t26 -75.5q0 -55 -28 -105t-82 -86q2 -6 4.5 -10.5t4.5 -9.5q51 21 97 54t80.5 76t55 93.5t20.5 104.5q0 69 -30.5 116t-80.5 59z" />
    <glyph glyph-name="uni013C" unicode="&#x13c;" horiz-adv-x="577" 
d="M85 1428v-19l105 -58v-1261l-156 -72v-18h508v18l-155 72v1401l-12 11zM170 -253q45 -29 71 -65.5t26 -75.5q0 -55 -28 -105t-82 -86q2 -6 4.5 -10.5t4.5 -9.5q51 21 97 54t80.5 76t55 93.5t20.5 104.5q0 69 -30.5 116t-80.5 59z" />
    <glyph glyph-name="Lcaron" unicode="&#x13d;" horiz-adv-x="1130" 
d="M42 0h1015l53 366l-9 1l-224 -324h-460v1284l184 93v19h-559v-19l163 -93v-1216l-163 -92v-19zM844 1436q36 -38 54.5 -82.5t18.5 -86.5q0 -30 -5.5 -62t-18 -63t-32 -58.5t-47.5 -48.5l12 -20q58 26 107.5 58.5t86 72t57 87.5t20.5 105q0 70 -20.5 116.5t-55.5 72.5z
" />
    <glyph glyph-name="lcaron" unicode="&#x13e;" horiz-adv-x="739" 
d="M85 1428v-19l105 -58v-1261l-156 -72v-18h508v18l-155 72v1401l-12 11zM590 1452q36 -38 54.5 -82.5t18.5 -86.5q0 -30 -5.5 -62t-18 -63t-32 -58.5t-47.5 -48.5l12 -20q58 26 107.5 58.5t86 72t57 87.5t20.5 105q0 70 -20.5 116.5t-55.5 72.5z" />
    <glyph glyph-name="Ldot" unicode="&#x13f;" horiz-adv-x="1130" 
d="M42 0h1015l53 366l-9 1l-224 -324h-460v1284l184 93v19h-559v-19l163 -93v-1216l-163 -92v-19zM716 742q0 -51 33 -82t86 -31t86 31t33 82q0 49 -33.5 81t-85.5 32q-53 0 -86 -32t-33 -81z" />
    <glyph glyph-name="ldot" unicode="&#x140;" horiz-adv-x="786" 
d="M85 1428v-19l105 -58v-1261l-156 -72v-18h508v18l-155 72v1401l-12 11zM506 636q0 -51 33 -82t86 -31t86 31t33 82q0 49 -33.5 81t-85.5 32q-53 0 -86 -32t-33 -81z" />
    <glyph glyph-name="Lslash" unicode="&#x141;" horiz-adv-x="1130" 
d="M417 788v539l184 93v19h-559v-19l163 -93v-689l-221 -156v-62l221 156v-465l-163 -92v-19h1015l53 366l-9 1l-224 -324h-460v683l245 173v62z" />
    <glyph glyph-name="lslash" unicode="&#x142;" horiz-adv-x="730" 
d="M708 891v63l-246 -174v711l-12 11l-290 -74v-19l105 -58v-710l-236 -166v-63l236 166v-488l-155 -72v-18h507v18l-155 72v627z" />
    <glyph glyph-name="Nacute" unicode="&#x143;" horiz-adv-x="1439" 
d="M350 1439h-307v-19l166 -93v-1201l-166 -108v-18h378v18l-168 108v1103l913 -1255l63 26v1313l168 108v18h-381v-18l168 -108v-1021zM812 1873l-135 -304h16l340 290l-7 14h-214z" />
    <glyph glyph-name="nacute" unicode="&#x144;" horiz-adv-x="1253" 
d="M1218 0v18l-155 72v634q0 67 -23 123t-65 96t-100 62t-128 22q-104 0 -196 -42.5t-164 -115.5v147l-12 11l-323 -74v-18l138 -59v-786l-156 -72v-18h506v18l-153 72v735q52 53 116 78t133 25q115 0 172.5 -61.5t57.5 -162.5v-614l-153 -72v-18h505zM679 1460l-135 -304
h16l340 290l-7 14h-214z" />
    <glyph glyph-name="uni0145" unicode="&#x145;" horiz-adv-x="1439" 
d="M350 1439h-307v-19l166 -93v-1201l-166 -108v-18h378v18l-168 108v1103l913 -1255l63 26v1313l168 108v18h-381v-18l168 -108v-1021zM601 -253q45 -29 71 -65.5t26 -75.5q0 -55 -28 -105t-82 -86q2 -6 4.5 -10.5t4.5 -9.5q51 21 97 54t80.5 76t55 93.5t20.5 104.5
q0 69 -30.5 116t-80.5 59z" />
    <glyph glyph-name="uni0146" unicode="&#x146;" horiz-adv-x="1253" 
d="M1218 0v18l-155 72v634q0 67 -23 123t-65 96t-100 62t-128 22q-104 0 -196 -42.5t-164 -115.5v147l-12 11l-323 -74v-18l138 -59v-786l-156 -72v-18h506v18l-153 72v735q52 53 116 78t133 25q115 0 172.5 -61.5t57.5 -162.5v-614l-153 -72v-18h505zM508 -253
q45 -29 71 -65.5t26 -75.5q0 -55 -28 -105t-82 -86q2 -6 4.5 -10.5t4.5 -9.5q51 21 97 54t80.5 76t55 93.5t20.5 104.5q0 69 -30.5 116t-80.5 59z" />
    <glyph glyph-name="Ncaron" unicode="&#x147;" horiz-adv-x="1439" 
d="M350 1439h-307v-19l166 -93v-1201l-166 -108v-18h378v18l-168 108v1103l913 -1255l63 26v1313l168 108v18h-381v-18l168 -108v-1021zM1021 1943l-18 10l-283 -218l-283 218l-19 -10l267 -372h68z" />
    <glyph glyph-name="ncaron" unicode="&#x148;" horiz-adv-x="1253" 
d="M1218 0v18l-155 72v634q0 67 -23 123t-65 96t-100 62t-128 22q-104 0 -196 -42.5t-164 -115.5v147l-12 11l-323 -74v-18l138 -59v-786l-156 -72v-18h506v18l-153 72v735q52 53 116 78t133 25q115 0 172.5 -61.5t57.5 -162.5v-614l-153 -72v-18h505zM928 1504l-18 10
l-283 -218l-283 218l-19 -10l267 -372h68z" />
    <glyph glyph-name="napostrophe" unicode="&#x149;" horiz-adv-x="1501" 
d="M1466 0v18l-155 72v634q0 67 -23 123t-65 96t-100 62t-128 22q-104 0 -196 -42.5t-164 -115.5v147l-12 11l-323 -74v-18l138 -59v-786l-156 -72v-18h506v18l-153 72v735q52 53 116 78t133 25q115 0 172.5 -61.5t57.5 -162.5v-614l-153 -72v-18h505zM7 1321
q45 -29 71 -65.5t26 -75.5q0 -55 -28 -105t-82 -86q2 -6 4.5 -10.5t4.5 -9.5q51 21 97 54t80.5 76t55 93.5t20.5 104.5q0 69 -30.5 116t-80.5 59z" />
    <glyph glyph-name="Eng" unicode="&#x14a;" horiz-adv-x="1439" 
d="M1016 1421l168 -108v-1021l-834 1147h-307v-19l166 -93v-1201l-166 -108v-18h378v18l-168 108v1103l877 -1206v-79q0 -60 -13.5 -108t-39 -86.5t-62 -69.5t-83.5 -56l6 -17q94 21 151 64.5t88 99t41.5 117t10.5 118.5v1307l168 108v18h-381v-18z" />
    <glyph glyph-name="eng" unicode="&#x14b;" horiz-adv-x="1253" 
d="M866 -56q0 -120 -41 -200.5t-118 -141.5l6 -17q94 21 160.5 69.5t108.5 117t61.5 152.5t19.5 175v625q0 67 -23 123t-65 96t-100 62t-128 22q-104 0 -196 -42.5t-164 -115.5v147l-12 11l-323 -74v-18l138 -59v-786l-156 -72v-18h506v18l-153 72v735q52 53 116 78t133 25
q115 0 172.5 -61.5t57.5 -162.5v-760z" />
    <glyph glyph-name="Omacron" unicode="&#x14c;" horiz-adv-x="1541" 
d="M769 1462q-153 0 -281.5 -55.5t-221 -154.5t-144 -235.5t-51.5 -299.5q0 -162 51.5 -298.5t144 -234.5t221 -153t281.5 -55q155 0 283.5 55t221.5 153.5t144.5 234.5t51.5 299t-52 299.5t-145 235.5t-221.5 154t-282.5 55zM305 717q0 159 30.5 288.5t90 221t146 141.5
t197.5 50t198 -50t147 -141.5t91 -221t31 -288.5t-31 -288t-91 -220t-147 -140.5t-198 -49.5t-197.5 49.5t-146 141t-90 220.5t-30.5 287zM1092 1604v43h-646v-43h646z" />
    <glyph glyph-name="omacron" unicode="&#x14d;" horiz-adv-x="1183" 
d="M591 1027q-111 0 -206 -39.5t-164.5 -110t-109.5 -167t-40 -209.5q0 -114 40 -210.5t109.5 -166.5t164.5 -109t206 -39q112 0 207.5 39t165 109t109 166.5t39.5 210.5q0 113 -39.5 209.5t-109 167t-165 110t-207.5 39.5zM286 501q0 112 21.5 203t61.5 155.5t96 99.5
t126 35q69 0 125.5 -35t96.5 -99.5t62 -155.5t22 -203q0 -113 -21.5 -204t-61.5 -155.5t-96.5 -99t-126.5 -34.5t-126.5 34.5t-96 99t-61 155.5t-21.5 204zM923 1210v43h-646v-43h646z" />
    <glyph glyph-name="Obreve" unicode="&#x14e;" horiz-adv-x="1541" 
d="M769 1462q-153 0 -281.5 -55.5t-221 -154.5t-144 -235.5t-51.5 -299.5q0 -162 51.5 -298.5t144 -234.5t221 -153t281.5 -55q155 0 283.5 55t221.5 153.5t144.5 234.5t51.5 299t-52 299.5t-145 235.5t-221.5 154t-282.5 55zM305 717q0 159 30.5 288.5t90 221t146 141.5
t197.5 50t198 -50t147 -141.5t91 -221t31 -288.5t-31 -288t-91 -220t-147 -140.5t-198 -49.5t-197.5 49.5t-146 141t-90 220.5t-30.5 287zM769 1738q-114 0 -172.5 40t-72.5 126l-17 -5q1 -60 17.5 -114t49 -95.5t81 -65.5t114.5 -24q67 0 116.5 24t82 65.5t49 95.5
t17.5 114l-16 5q-15 -86 -74.5 -126t-174.5 -40z" />
    <glyph glyph-name="obreve" unicode="&#x14f;" horiz-adv-x="1183" 
d="M591 1027q-111 0 -206 -39.5t-164.5 -110t-109.5 -167t-40 -209.5q0 -114 40 -210.5t109.5 -166.5t164.5 -109t206 -39q112 0 207.5 39t165 109t109 166.5t39.5 210.5q0 113 -39.5 209.5t-109 167t-165 110t-207.5 39.5zM286 501q0 112 21.5 203t61.5 155.5t96 99.5
t126 35q69 0 125.5 -35t96.5 -99.5t62 -155.5t22 -203q0 -113 -21.5 -204t-61.5 -155.5t-96.5 -99t-126.5 -34.5t-126.5 34.5t-96 99t-61 155.5t-21.5 204zM590 1299q-114 0 -172.5 40t-72.5 126l-17 -5q1 -60 17.5 -114t49 -95.5t81 -65.5t114.5 -24q67 0 116.5 24t82 65.5
t49 95.5t17.5 114l-16 5q-15 -86 -74.5 -126t-174.5 -40z" />
    <glyph glyph-name="Ohungarumlaut" unicode="&#x150;" horiz-adv-x="1541" 
d="M769 1462q-153 0 -281.5 -55.5t-221 -154.5t-144 -235.5t-51.5 -299.5q0 -162 51.5 -298.5t144 -234.5t221 -153t281.5 -55q155 0 283.5 55t221.5 153.5t144.5 234.5t51.5 299t-52 299.5t-145 235.5t-221.5 154t-282.5 55zM305 717q0 159 30.5 288.5t90 221t146 141.5
t197.5 50t198 -50t147 -141.5t91 -221t31 -288.5t-31 -288t-91 -220t-147 -140.5t-198 -49.5t-197.5 49.5t-146 141t-90 220.5t-30.5 287zM612 1605l310 265l-7 13h-195l-123 -278h15zM885 1605h14l311 265l-7 13h-195z" />
    <glyph glyph-name="ohungarumlaut" unicode="&#x151;" horiz-adv-x="1183" 
d="M591 1027q-111 0 -206 -39.5t-164.5 -110t-109.5 -167t-40 -209.5q0 -114 40 -210.5t109.5 -166.5t164.5 -109t206 -39q112 0 207.5 39t165 109t109 166.5t39.5 210.5q0 113 -39.5 209.5t-109 167t-165 110t-207.5 39.5zM286 501q0 112 21.5 203t61.5 155.5t96 99.5
t126 35q69 0 125.5 -35t96.5 -99.5t62 -155.5t22 -203q0 -113 -21.5 -204t-61.5 -155.5t-96.5 -99t-126.5 -34.5t-126.5 34.5t-96 99t-61 155.5t-21.5 204zM442 1136l310 265l-7 13h-195l-123 -278h15zM715 1136h14l311 265l-7 13h-195z" />
    <glyph glyph-name="OE" unicode="&#x152;" horiz-adv-x="2192" 
d="M305 717q0 159 30.5 288.5t90 221t146 141.5t197.5 50t198 -50t147 -141.5t91 -221t31 -288.5t-31 -288t-91 -220t-147 -140.5t-198 -49.5t-197.5 49.5t-146 141t-90 220.5t-30.5 287zM1772 944h-17l-119 -184h-167q-5 111 -35 209t-81 179.5t-121.5 144.5t-156.5 103
h725l172 -323h9v366h-1026q-90 23 -186 23q-153 0 -281.5 -55.5t-221 -154.5t-144 -235.5t-51.5 -299.5q0 -162 51.5 -298.5t144 -234.5t221 -153t281.5 -55q51 0 98.5 6.5t92.5 17.5h1088l53 366l-10 1l-223 -324h-789q90 42 162 108.5t123 153t78.5 190.5t27.5 222h166
l119 -189h17v416z" />
    <glyph glyph-name="oe" unicode="&#x153;" horiz-adv-x="1904" 
d="M591 1027q-111 0 -206 -39.5t-164.5 -110t-109.5 -167t-40 -209.5q0 -114 40 -210.5t109.5 -166.5t164.5 -109t206 -39q112 0 207.5 39t165 109t109 166.5t39.5 210.5q0 113 -39.5 209.5t-109 167t-165 110t-207.5 39.5zM286 501q0 112 21.5 203t61.5 155.5t96 99.5
t126 35q69 0 125.5 -35t96.5 -99.5t62 -155.5t22 -203q0 -113 -21.5 -204t-61.5 -155.5t-96.5 -99t-126.5 -34.5t-126.5 34.5t-96 99t-61 155.5t-21.5 204zM1376 992q109 0 167 -92.5t58 -276.5l-486 -22q5 88 24.5 160t53.5 123.5t80 79.5t103 28zM1773 209
q-27 -27 -62 -49t-76.5 -37.5t-87 -24.5t-92.5 -9q-83 0 -146.5 30.5t-107 87.5t-66 138.5t-23.5 183.5v24.5t2 22.5h690q0 94 -28 176.5t-81.5 143.5t-131.5 96t-178 35q-104 0 -192 -39.5t-152 -112t-100 -173.5t-36 -224q0 -111 33 -203.5t93.5 -159t145 -103
t187.5 -36.5q146 0 252 60t171 159z" />
    <glyph glyph-name="Racute" unicode="&#x154;" horiz-adv-x="1418" 
d="M1170 1080q0 81 -31.5 147t-93.5 113t-154 73t-213 26h-636v-19l163 -93v-1216l-163 -92v-19h538v19l-163 93v1284h198q88 0 150.5 -23t102 -65.5t57.5 -102t18 -132.5q0 -84 -20 -151t-62.5 -113.5t-108.5 -71.5t-158 -26l-103 -1l5 -41h87q23 0 47 1t48 3l352 -673h332
l-1 18l-141 91l-323 557q-31 2 -61 6.5t-56 12.5q79 14 149.5 43t124 76.5t85 115.5t31.5 160zM675 1908l-135 -304h16l340 290l-7 14h-214z" />
    <glyph glyph-name="racute" unicode="&#x155;" horiz-adv-x="844" 
d="M812 1014q-21 8 -42 11.5t-43 3.5q-50 0 -99 -12.5t-93 -35.5t-82 -55.5t-66 -72.5v163l-12 11l-323 -74v-18l138 -59v-786l-156 -72v-18h516v18l-163 72v725q29 35 73 59.5t91 24.5q39 0 68 -13t53 -34.5t44 -48.5t39 -55h13zM459 1437l-135 -304h16l340 290l-7 14h-214
z" />
    <glyph glyph-name="uni0156" unicode="&#x156;" horiz-adv-x="1418" 
d="M1170 1080q0 81 -31.5 147t-93.5 113t-154 73t-213 26h-636v-19l163 -93v-1216l-163 -92v-19h538v19l-163 93v1284h198q88 0 150.5 -23t102 -65.5t57.5 -102t18 -132.5q0 -84 -20 -151t-62.5 -113.5t-108.5 -71.5t-158 -26l-103 -1l5 -41h87q23 0 47 1t48 3l352 -673h332
l-1 18l-141 91l-323 557q-31 2 -61 6.5t-56 12.5q79 14 149.5 43t124 76.5t85 115.5t31.5 160zM590 -253q45 -29 71 -65.5t26 -75.5q0 -55 -28 -105t-82 -86q2 -6 4.5 -10.5t4.5 -9.5q51 21 97 54t80.5 76t55 93.5t20.5 104.5q0 69 -30.5 116t-80.5 59z" />
    <glyph glyph-name="uni0157" unicode="&#x157;" horiz-adv-x="844" 
d="M812 1014q-21 8 -42 11.5t-43 3.5q-50 0 -99 -12.5t-93 -35.5t-82 -55.5t-66 -72.5v163l-12 11l-323 -74v-18l138 -59v-786l-156 -72v-18h516v18l-163 72v725q29 35 73 59.5t91 24.5q39 0 68 -13t53 -34.5t44 -48.5t39 -55h13zM144 -253q45 -29 71 -65.5t26 -75.5
q0 -55 -28 -105t-82 -86q2 -6 4.5 -10.5t4.5 -9.5q51 21 97 54t80.5 76t55 93.5t20.5 104.5q0 69 -30.5 116t-80.5 59z" />
    <glyph glyph-name="Rcaron" unicode="&#x158;" horiz-adv-x="1418" 
d="M1170 1080q0 81 -31.5 147t-93.5 113t-154 73t-213 26h-636v-19l163 -93v-1216l-163 -92v-19h538v19l-163 93v1284h198q88 0 150.5 -23t102 -65.5t57.5 -102t18 -132.5q0 -84 -20 -151t-62.5 -113.5t-108.5 -71.5t-158 -26l-103 -1l5 -41h87q23 0 47 1t48 3l352 -673h332
l-1 18l-141 91l-323 557q-31 2 -61 6.5t-56 12.5q79 14 149.5 43t124 76.5t85 115.5t31.5 160zM809 1934l-18 10l-283 -218l-283 218l-19 -10l267 -372h68z" />
    <glyph glyph-name="rcaron" unicode="&#x159;" horiz-adv-x="844" 
d="M812 1014q-21 8 -42 11.5t-43 3.5q-50 0 -99 -12.5t-93 -35.5t-82 -55.5t-66 -72.5v163l-12 11l-323 -74v-18l138 -59v-786l-156 -72v-18h516v18l-163 72v725q29 35 73 59.5t91 24.5q39 0 68 -13t53 -34.5t44 -48.5t39 -55h13zM724 1504l-18 10l-283 -218l-283 218
l-19 -10l267 -372h68z" />
    <glyph glyph-name="Sacute" unicode="&#x15a;" horiz-adv-x="1101" 
d="M993 1043l-24 312q-91 45 -193.5 76t-205.5 31q-106 0 -194 -23.5t-151.5 -69.5t-99 -114.5t-36.5 -159.5q-1 -85 35.5 -149.5t96 -115.5t134.5 -93t151 -81q68 -35 130.5 -70.5t110.5 -77.5t77 -92.5t28 -115.5q0 -49 -17 -99t-53 -90.5t-92 -66t-136 -25.5h-34
q-73 0 -136 31.5t-117 84t-99.5 121.5t-83.5 143h-14l23 -318q38 -18 85.5 -37t102.5 -34t115 -24.5t122 -9.5q109 0 204 22t165.5 69.5t111.5 121.5t42 179q1 89 -32 155.5t-89 119.5t-130 96t-156 84q-76 38 -142.5 73.5t-116 74.5t-77.5 86t-27 107t22.5 107.5t58 80
t85.5 50t105 17.5q46 0 89.5 -8.5t89.5 -32.5q60 -36 103 -84.5t74 -96.5t50 -89.5t31 -64.5h14zM703 1857l-135 -304h16l340 290l-7 14h-214z" />
    <glyph glyph-name="sacute" unicode="&#x15b;" horiz-adv-x="886" 
d="M772 968q-29 12 -65.5 22.5t-75.5 18.5t-79.5 13t-76.5 5q-82 0 -152 -16.5t-121.5 -51t-80.5 -87t-29 -123.5q0 -66 28.5 -114.5t73 -85.5t99 -65.5t106.5 -54.5q55 -27 102.5 -51t82.5 -51t55 -60.5t20 -79.5q0 -35 -10.5 -67.5t-35 -57t-65.5 -39.5t-102 -15
q-34 0 -70.5 4.5t-61.5 10.5q-24 22 -46.5 55.5t-42.5 71t-36.5 74.5t-28.5 67h-18l-61 -239q27 -14 67.5 -27.5t87 -24.5t97 -17.5t98.5 -6.5q86 0 159 18t125.5 54t82 89.5t29.5 124.5q0 62 -28.5 109t-75 85.5t-104 69.5t-116.5 60q-51 25 -95 49.5t-76.5 51.5
t-51.5 58.5t-19 70.5q0 34 11.5 66t36 57t63 40t92.5 15q27 0 55.5 -3t42.5 -8q16 -16 34.5 -42.5t38 -59t40 -69.5t39.5 -73h17zM582 1436l-135 -304h16l340 290l-7 14h-214z" />
    <glyph glyph-name="Scircumflex" unicode="&#x15c;" horiz-adv-x="1101" 
d="M993 1043l-24 312q-91 45 -193.5 76t-205.5 31q-106 0 -194 -23.5t-151.5 -69.5t-99 -114.5t-36.5 -159.5q-1 -85 35.5 -149.5t96 -115.5t134.5 -93t151 -81q68 -35 130.5 -70.5t110.5 -77.5t77 -92.5t28 -115.5q0 -49 -17 -99t-53 -90.5t-92 -66t-136 -25.5h-34
q-73 0 -136 31.5t-117 84t-99.5 121.5t-83.5 143h-14l23 -318q38 -18 85.5 -37t102.5 -34t115 -24.5t122 -9.5q109 0 204 22t165.5 69.5t111.5 121.5t42 179q1 89 -32 155.5t-89 119.5t-130 96t-156 84q-76 38 -142.5 73.5t-116 74.5t-77.5 86t-27 107t22.5 107.5t58 80
t85.5 50t105 17.5q46 0 89.5 -8.5t89.5 -32.5q60 -36 103 -84.5t74 -96.5t50 -89.5t31 -64.5h14zM249 1571l19 -10l283 219l283 -219l18 10l-268 373h-68z" />
    <glyph glyph-name="scircumflex" unicode="&#x15d;" horiz-adv-x="886" 
d="M772 968q-29 12 -65.5 22.5t-75.5 18.5t-79.5 13t-76.5 5q-82 0 -152 -16.5t-121.5 -51t-80.5 -87t-29 -123.5q0 -66 28.5 -114.5t73 -85.5t99 -65.5t106.5 -54.5q55 -27 102.5 -51t82.5 -51t55 -60.5t20 -79.5q0 -35 -10.5 -67.5t-35 -57t-65.5 -39.5t-102 -15
q-34 0 -70.5 4.5t-61.5 10.5q-24 22 -46.5 55.5t-42.5 71t-36.5 74.5t-28.5 67h-18l-61 -239q27 -14 67.5 -27.5t87 -24.5t97 -17.5t98.5 -6.5q86 0 159 18t125.5 54t82 89.5t29.5 124.5q0 62 -28.5 109t-75 85.5t-104 69.5t-116.5 60q-51 25 -95 49.5t-76.5 51.5
t-51.5 58.5t-19 70.5q0 34 11.5 66t36 57t63 40t92.5 15q27 0 55.5 -3t42.5 -8q16 -16 34.5 -42.5t38 -59t40 -69.5t39.5 -73h17zM142 1132l19 -10l283 219l283 -219l18 10l-268 373h-68z" />
    <glyph glyph-name="Scedilla" unicode="&#x15e;" horiz-adv-x="1101" 
d="M993 1043l-24 312q-91 45 -193.5 76t-205.5 31q-106 0 -194 -23.5t-151.5 -69.5t-99 -114.5t-36.5 -159.5q-1 -85 35.5 -149.5t96 -115.5t134.5 -93t151 -81q68 -35 130.5 -70.5t110.5 -77.5t77 -92.5t28 -115.5q0 -49 -17 -99t-53 -90.5t-92 -66t-136 -25.5h-34
q-73 0 -136 31.5t-117 84t-99.5 121.5t-83.5 143h-14l23 -318q38 -18 85.5 -37t102.5 -34t115 -24.5t122 -9.5q109 0 204 22t165.5 69.5t111.5 121.5t42 179q1 89 -32 155.5t-89 119.5t-130 96t-156 84q-76 38 -142.5 73.5t-116 74.5t-77.5 86t-27 107t22.5 107.5t58 80
t85.5 50t105 17.5q46 0 89.5 -8.5t89.5 -32.5q60 -36 103 -84.5t74 -96.5t50 -89.5t31 -64.5h14zM406 -455q66 11 119.5 31t91.5 47t59 61t21 73q0 31 -13.5 57.5t-36.5 46.5t-55 32.5t-69 17.5l73 100l-40 6l-116 -164l4 -14q19 -5 37.5 -13t33.5 -22t24 -34t9 -47
q0 -59 -38 -98.5t-107 -68.5z" />
    <glyph glyph-name="scedilla" unicode="&#x15f;" horiz-adv-x="886" 
d="M772 968q-29 12 -65.5 22.5t-75.5 18.5t-79.5 13t-76.5 5q-82 0 -152 -16.5t-121.5 -51t-80.5 -87t-29 -123.5q0 -66 28.5 -114.5t73 -85.5t99 -65.5t106.5 -54.5q55 -27 102.5 -51t82.5 -51t55 -60.5t20 -79.5q0 -35 -10.5 -67.5t-35 -57t-65.5 -39.5t-102 -15
q-34 0 -70.5 4.5t-61.5 10.5q-24 22 -46.5 55.5t-42.5 71t-36.5 74.5t-28.5 67h-18l-61 -239q27 -14 67.5 -27.5t87 -24.5t97 -17.5t98.5 -6.5q86 0 159 18t125.5 54t82 89.5t29.5 124.5q0 62 -28.5 109t-75 85.5t-104 69.5t-116.5 60q-51 25 -95 49.5t-76.5 51.5
t-51.5 58.5t-19 70.5q0 34 11.5 66t36 57t63 40t92.5 15q27 0 55.5 -3t42.5 -8q16 -16 34.5 -42.5t38 -59t40 -69.5t39.5 -73h17zM296 -462q66 11 119.5 31t91.5 47t59 61t21 73q0 31 -13.5 57.5t-36.5 46.5t-55 32.5t-69 17.5l73 100l-40 6l-116 -164l4 -14q19 -5 37.5 -13
t33.5 -22t24 -34t9 -47q0 -59 -38 -98.5t-107 -68.5z" />
    <glyph glyph-name="Scaron" unicode="&#x160;" horiz-adv-x="1101" 
d="M993 1043l-24 312q-91 45 -193.5 76t-205.5 31q-106 0 -194 -23.5t-151.5 -69.5t-99 -114.5t-36.5 -159.5q-1 -85 35.5 -149.5t96 -115.5t134.5 -93t151 -81q68 -35 130.5 -70.5t110.5 -77.5t77 -92.5t28 -115.5q0 -49 -17 -99t-53 -90.5t-92 -66t-136 -25.5h-34
q-73 0 -136 31.5t-117 84t-99.5 121.5t-83.5 143h-14l23 -318q38 -18 85.5 -37t102.5 -34t115 -24.5t122 -9.5q109 0 204 22t165.5 69.5t111.5 121.5t42 179q1 89 -32 155.5t-89 119.5t-130 96t-156 84q-76 38 -142.5 73.5t-116 74.5t-77.5 86t-27 107t22.5 107.5t58 80
t85.5 50t105 17.5q46 0 89.5 -8.5t89.5 -32.5q60 -36 103 -84.5t74 -96.5t50 -89.5t31 -64.5h14zM892 1936l-18 10l-283 -218l-283 218l-19 -10l267 -372h68z" />
    <glyph glyph-name="scaron" unicode="&#x161;" horiz-adv-x="886" 
d="M772 968q-29 12 -65.5 22.5t-75.5 18.5t-79.5 13t-76.5 5q-82 0 -152 -16.5t-121.5 -51t-80.5 -87t-29 -123.5q0 -66 28.5 -114.5t73 -85.5t99 -65.5t106.5 -54.5q55 -27 102.5 -51t82.5 -51t55 -60.5t20 -79.5q0 -35 -10.5 -67.5t-35 -57t-65.5 -39.5t-102 -15
q-34 0 -70.5 4.5t-61.5 10.5q-24 22 -46.5 55.5t-42.5 71t-36.5 74.5t-28.5 67h-18l-61 -239q27 -14 67.5 -27.5t87 -24.5t97 -17.5t98.5 -6.5q86 0 159 18t125.5 54t82 89.5t29.5 124.5q0 62 -28.5 109t-75 85.5t-104 69.5t-116.5 60q-51 25 -95 49.5t-76.5 51.5
t-51.5 58.5t-19 70.5q0 34 11.5 66t36 57t63 40t92.5 15q27 0 55.5 -3t42.5 -8q16 -16 34.5 -42.5t38 -59t40 -69.5t39.5 -73h17zM784 1492l-18 10l-283 -218l-283 218l-19 -10l267 -372h68z" />
    <glyph glyph-name="uni0162" unicode="&#x162;" horiz-adv-x="1248" 
d="M1020 1396l156 -278h9v321h-1123v-321h11l154 278h291v-1284l-163 -93v-19h539v19l-164 93v1284h290zM506 -253q45 -29 71 -65.5t26 -75.5q0 -55 -28 -105t-82 -86q2 -6 4.5 -10.5t4.5 -9.5q51 21 97 54t80.5 76t55 93.5t20.5 104.5q0 69 -30.5 116t-80.5 59z" />
    <glyph glyph-name="uni0163" unicode="&#x163;" horiz-adv-x="744" 
d="M682 968v32h-317v225h-14l-180 -188l-135 -56v-13h134v-721q0 -66 18.5 -116.5t52.5 -85t80.5 -52t103.5 -17.5q48 0 90.5 11t79 29t66 41.5t50.5 47.5l-10 15q-35 -23 -85.5 -38t-104.5 -15q-72 0 -108 43t-36 125v733h315zM254 -253q45 -29 71 -65.5t26 -75.5
q0 -55 -28 -105t-82 -86q2 -6 4.5 -10.5t4.5 -9.5q51 21 97 54t80.5 76t55 93.5t20.5 104.5q0 69 -30.5 116t-80.5 59z" />
    <glyph glyph-name="Tcaron" unicode="&#x164;" horiz-adv-x="1248" 
d="M1020 1396l156 -278h9v321h-1123v-321h11l154 278h291v-1284l-163 -93v-19h539v19l-164 93v1284h290zM925 1943l-18 10l-283 -218l-283 218l-19 -10l267 -372h68z" />
    <glyph glyph-name="tcaron" unicode="&#x165;" horiz-adv-x="956" 
d="M682 968v32h-317v225h-14l-180 -188l-135 -56v-13h134v-721q0 -66 18.5 -116.5t52.5 -85t80.5 -52t103.5 -17.5q48 0 90.5 11t79 29t66 41.5t50.5 47.5l-10 15q-35 -23 -85.5 -38t-104.5 -15q-72 0 -108 43t-36 125v733h315zM805 1423q36 -38 54.5 -82.5t18.5 -86.5
q0 -30 -5.5 -62t-18 -63t-32 -58.5t-47.5 -48.5l12 -20q58 26 107.5 58.5t86 72t57 87.5t20.5 105q0 70 -20.5 116.5t-55.5 72.5z" />
    <glyph glyph-name="Tbar" unicode="&#x166;" horiz-adv-x="1248" 
d="M950 699v43h-220v654h290l156 -278h9v321h-1123v-321h11l154 278h291v-654h-214v-43h214v-587l-163 -93v-19h539v19l-164 93v587h220z" />
    <glyph glyph-name="tbar" unicode="&#x167;" horiz-adv-x="744" 
d="M682 968v32h-317v225h-14l-180 -188l-135 -56v-13h134v-348h-155v-43h155v-330q0 -66 18.5 -116.5t52.5 -85t80.5 -52t103.5 -17.5q48 0 90.5 11t79 29t66 41.5t50.5 47.5l-10 15q-35 -23 -85.5 -38t-104.5 -15q-72 0 -108 43t-36 125v342h294v43h-294v348h315z" />
    <glyph glyph-name="Utilde" unicode="&#x168;" horiz-adv-x="1407" 
d="M1388 1421v18h-381v-18l168 -108v-829q0 -96 -21.5 -181t-68 -148t-121 -99.5t-181.5 -36.5q-87 0 -158 30t-121 88.5t-77.5 143.5t-27.5 194v852l163 93v19h-538v-19l163 -93v-855q0 -121 40.5 -213.5t112 -155.5t169.5 -95t214 -32q134 0 228.5 36t154 104.5t87 168
t27.5 225.5v803zM648 1744q33 0 69 -15.5t72.5 -33.5t73 -33.5t72.5 -15.5q47 0 82.5 18.5t60 50t40 72t23.5 83.5l-15 5q-47 -99 -150 -99q-35 0 -71.5 15.5t-73 33.5t-72 33.5t-69.5 15.5q-47 0 -82.5 -18.5t-60.5 -49.5t-40.5 -71.5t-24.5 -84.5l17 -4q46 98 149 98z" />
    <glyph glyph-name="utilde" unicode="&#x169;" horiz-adv-x="1227" 
d="M702 953v-18l139 -59v-695q-23 -24 -54 -43.5t-66.5 -33.5t-74 -21.5t-76.5 -7.5q-53 0 -92.5 18t-65.5 50.5t-38.5 78t-12.5 100.5v694l-11 11l-324 -74v-18l139 -59v-599q0 -73 24.5 -129t65.5 -94.5t96.5 -58t116.5 -19.5q55 0 109.5 13.5t104 36t92 52t72.5 61.5
l24 -163l277 62v12l-110 67v899l-11 11zM450 1305q33 0 69 -15.5t72.5 -33.5t73 -33.5t72.5 -15.5q47 0 82.5 18.5t60 50t40 72t23.5 83.5l-15 5q-47 -99 -150 -99q-35 0 -71.5 15.5t-73 33.5t-72 33.5t-69.5 15.5q-47 0 -82.5 -18.5t-60.5 -49.5t-40.5 -71.5t-24.5 -84.5
l17 -4q46 98 149 98z" />
    <glyph glyph-name="Umacron" unicode="&#x16a;" horiz-adv-x="1407" 
d="M1388 1421v18h-381v-18l168 -108v-829q0 -96 -21.5 -181t-68 -148t-121 -99.5t-181.5 -36.5q-87 0 -158 30t-121 88.5t-77.5 143.5t-27.5 194v852l163 93v19h-538v-19l163 -93v-855q0 -121 40.5 -213.5t112 -155.5t169.5 -95t214 -32q134 0 228.5 36t154 104.5t87 168
t27.5 225.5v803zM1077 1592v43h-646v-43h646z" />
    <glyph glyph-name="umacron" unicode="&#x16b;" horiz-adv-x="1227" 
d="M702 953v-18l139 -59v-695q-23 -24 -54 -43.5t-66.5 -33.5t-74 -21.5t-76.5 -7.5q-53 0 -92.5 18t-65.5 50.5t-38.5 78t-12.5 100.5v694l-11 11l-324 -74v-18l139 -59v-599q0 -73 24.5 -129t65.5 -94.5t96.5 -58t116.5 -19.5q55 0 109.5 13.5t104 36t92 52t72.5 61.5
l24 -163l277 62v12l-110 67v899l-11 11zM915 1202v43h-646v-43h646z" />
    <glyph glyph-name="Ubreve" unicode="&#x16c;" horiz-adv-x="1407" 
d="M1388 1421v18h-381v-18l168 -108v-829q0 -96 -21.5 -181t-68 -148t-121 -99.5t-181.5 -36.5q-87 0 -158 30t-121 88.5t-77.5 143.5t-27.5 194v852l163 93v19h-538v-19l163 -93v-855q0 -121 40.5 -213.5t112 -155.5t169.5 -95t214 -32q134 0 228.5 36t154 104.5t87 168
t27.5 225.5v803zM829 1717q-114 0 -172.5 40t-72.5 126l-17 -5q1 -60 17.5 -114t49 -95.5t81 -65.5t114.5 -24q67 0 116.5 24t82 65.5t49 95.5t17.5 114l-16 5q-15 -86 -74.5 -126t-174.5 -40z" />
    <glyph glyph-name="ubreve" unicode="&#x16d;" horiz-adv-x="1227" 
d="M702 953v-18l139 -59v-695q-23 -24 -54 -43.5t-66.5 -33.5t-74 -21.5t-76.5 -7.5q-53 0 -92.5 18t-65.5 50.5t-38.5 78t-12.5 100.5v694l-11 11l-324 -74v-18l139 -59v-599q0 -73 24.5 -129t65.5 -94.5t96.5 -58t116.5 -19.5q55 0 109.5 13.5t104 36t92 52t72.5 61.5
l24 -163l277 62v12l-110 67v899l-11 11zM612 1299q-114 0 -172.5 40t-72.5 126l-17 -5q1 -60 17.5 -114t49 -95.5t81 -65.5t114.5 -24q67 0 116.5 24t82 65.5t49 95.5t17.5 114l-16 5q-15 -86 -74.5 -126t-174.5 -40z" />
    <glyph glyph-name="Uring" unicode="&#x16e;" horiz-adv-x="1407" 
d="M1388 1421v18h-381v-18l168 -108v-829q0 -96 -21.5 -181t-68 -148t-121 -99.5t-181.5 -36.5q-87 0 -158 30t-121 88.5t-77.5 143.5t-27.5 194v852l163 93v19h-538v-19l163 -93v-855q0 -121 40.5 -213.5t112 -155.5t169.5 -95t214 -32q134 0 228.5 36t154 104.5t87 168
t27.5 225.5v803zM784 1961q-45 0 -82.5 -13.5t-65 -38t-42.5 -58.5t-15 -75t15 -74.5t42.5 -57.5t65 -37.5t82.5 -13.5q44 0 81.5 13.5t64.5 37.5t42 57.5t15 74.5t-14.5 75t-41.5 58.5t-64.5 38t-82.5 13.5zM676 1776q0 33 7 62t21 50.5t34 34t46 12.5t46 -12.5t33.5 -34
t20.5 -50.5t7 -62q0 -69 -28.5 -113t-78.5 -44q-51 0 -79.5 44t-28.5 113z" />
    <glyph glyph-name="uring" unicode="&#x16f;" horiz-adv-x="1227" 
d="M702 953v-18l139 -59v-695q-23 -24 -54 -43.5t-66.5 -33.5t-74 -21.5t-76.5 -7.5q-53 0 -92.5 18t-65.5 50.5t-38.5 78t-12.5 100.5v694l-11 11l-324 -74v-18l139 -59v-599q0 -73 24.5 -129t65.5 -94.5t96.5 -58t116.5 -19.5q55 0 109.5 13.5t104 36t92 52t72.5 61.5
l24 -163l277 62v12l-110 67v899l-11 11zM621 1522q-45 0 -82.5 -13.5t-65 -38t-42.5 -58.5t-15 -75t15 -74.5t42.5 -57.5t65 -37.5t82.5 -13.5q44 0 81.5 13.5t64.5 37.5t42 57.5t15 74.5t-14.5 75t-41.5 58.5t-64.5 38t-82.5 13.5zM513 1337q0 33 7 62t21 50.5t34 34
t46 12.5t46 -12.5t33.5 -34t20.5 -50.5t7 -62q0 -69 -28.5 -113t-78.5 -44q-51 0 -79.5 44t-28.5 113z" />
    <glyph glyph-name="Uhungarumlaut" unicode="&#x170;" horiz-adv-x="1407" 
d="M1388 1421v18h-381v-18l168 -108v-829q0 -96 -21.5 -181t-68 -148t-121 -99.5t-181.5 -36.5q-87 0 -158 30t-121 88.5t-77.5 143.5t-27.5 194v852l163 93v19h-538v-19l163 -93v-855q0 -121 40.5 -213.5t112 -155.5t169.5 -95t214 -32q134 0 228.5 36t154 104.5t87 168
t27.5 225.5v803zM575 1595l310 265l-7 13h-195l-123 -278h15zM848 1595h14l311 265l-7 13h-195z" />
    <glyph glyph-name="uhungarumlaut" unicode="&#x171;" horiz-adv-x="1227" 
d="M702 953v-18l139 -59v-695q-23 -24 -54 -43.5t-66.5 -33.5t-74 -21.5t-76.5 -7.5q-53 0 -92.5 18t-65.5 50.5t-38.5 78t-12.5 100.5v694l-11 11l-324 -74v-18l139 -59v-599q0 -73 24.5 -129t65.5 -94.5t96.5 -58t116.5 -19.5q55 0 109.5 13.5t104 36t92 52t72.5 61.5
l24 -163l277 62v12l-110 67v899l-11 11zM395 1170l310 265l-7 13h-195l-123 -278h15zM668 1170h14l311 265l-7 13h-195z" />
    <glyph glyph-name="Uogonek" unicode="&#x172;" horiz-adv-x="1407" 
d="M1388 1421v18h-381v-18l168 -108v-829q0 -96 -21.5 -181t-68 -148t-121 -99.5t-181.5 -36.5q-87 0 -158 30t-121 88.5t-77.5 143.5t-27.5 194v852l163 93v19h-538v-19l163 -93v-855q0 -121 40.5 -213.5t112 -155.5t169.5 -95t214 -32q134 0 228.5 36t154 104.5t87 168
t27.5 225.5v803zM1006 69q-63 -38 -114.5 -76.5t-87.5 -77.5t-56 -79.5t-20 -82.5q0 -69 45 -108t128 -39q41 0 76.5 10.5t65.5 27.5t55.5 38.5t45.5 44.5l-10 11q-38 -33 -77 -44t-77 -11q-52 0 -79.5 26t-27.5 80q0 66 37 132t123 134z" />
    <glyph glyph-name="uogonek" unicode="&#x173;" horiz-adv-x="1227" 
d="M702 953v-18l139 -59v-695q-23 -24 -54 -43.5t-66.5 -33.5t-74 -21.5t-76.5 -7.5q-53 0 -92.5 18t-65.5 50.5t-38.5 78t-12.5 100.5v694l-11 11l-324 -74v-18l139 -59v-599q0 -73 24.5 -129t65.5 -94.5t96.5 -58t116.5 -19.5q55 0 109.5 13.5t104 36t92 52t72.5 61.5
l24 -163l277 62v12l-110 67v899l-11 11zM1023 36q-63 -38 -114.5 -76.5t-87.5 -77.5t-56 -79.5t-20 -82.5q0 -69 45 -108t128 -39q41 0 76.5 10.5t65.5 27.5t55.5 38.5t45.5 44.5l-10 11q-38 -33 -77 -44t-77 -11q-52 0 -79.5 26t-27.5 80q0 66 37 132t123 134z" />
    <glyph glyph-name="Wcircumflex" unicode="&#x174;" horiz-adv-x="2065" 
d="M1822 1327h8l-336 -1110l-332 1109h6l177 94v19h-556v-19l144 -92l79 -251l-280 -857l-309 1106h1l167 94v19h-562v-19l160 -92l403 -1328h113l329 1007l318 -1007h121l403 1329l178 90v20h-430v-20zM758 1578l19 -10l283 219l283 -219l18 10l-268 373h-68z" />
    <glyph glyph-name="wcircumflex" unicode="&#x175;" horiz-adv-x="1515" 
d="M996 1000h-399v-19l120 -75l27 -94l-208 -579l-208 676l123 72v19h-437v-19l106 -73l305 -908h65l271 743l238 -743h65l320 908l124 73v19h-295v-19l124 -72l-228 -667l-170 544l-42 122l99 73v19zM486 1132l19 -10l283 219l283 -219l18 10l-268 373h-68z" />
    <glyph glyph-name="Ycircumflex" unicode="&#x176;" horiz-adv-x="1386" 
d="M777 721l-351 605h1l151 92v21h-565v-21l177 -92l397 -687v-527l-163 -93v-19h538v19l-163 93v562l400 653h1l190 91v21h-454v-21l210 -94zM456 1571l19 -10l283 219l283 -219l18 10l-268 373h-68z" />
    <glyph glyph-name="ycircumflex" unicode="&#x177;" horiz-adv-x="995" 
d="M721 981l125 -73l-267 -702l-263 702l131 73v19h-456v-19l106 -72l378 -953l-55 -128q-26 -45 -73.5 -70t-99 -39t-98 -21t-70.5 -16l-5 -17l118 -170q22 7 54.5 29t74 73t89.5 138.5t102 224.5l371 948l108 73v19h-270v-19zM196 1132l19 -10l283 219l283 -219l18 10
l-268 373h-68z" />
    <glyph glyph-name="Ydieresis" unicode="&#x178;" horiz-adv-x="1386" 
d="M777 721l-351 605h1l151 92v21h-565v-21l177 -92l397 -687v-527l-163 -93v-19h538v19l-163 93v562l400 653h1l190 91v21h-454v-21l210 -94zM651 1718q0 46 -31 76t-81 30q-47 0 -78 -29.5t-31 -76.5t31 -77t78 -30q50 0 81 30.5t31 76.5zM931 1611q50 0 80 30t30 77
t-31 76.5t-79 29.5t-79 -29.5t-31 -76.5t31 -77t79 -30z" />
    <glyph glyph-name="Zacute" unicode="&#x179;" horiz-adv-x="1269" 
d="M111 1117l216 279h586l-845 -1373q2 -7 3 -12.5t1 -10.5h1097l45 321l-9 1l-216 -279h-669l847 1372q0 6 -1 11.5t-1 12.5h-1018l-45 -320zM800 1876l-135 -304h16l340 290l-7 14h-214z" />
    <glyph glyph-name="zacute" unicode="&#x17a;" horiz-adv-x="957" 
d="M330 968h313l-599 -953l6 -15h805v244l-14 2l-198 -214h-365l596 951l-3 17h-750v-227l16 -1zM601 1434l-135 -304h16l340 290l-7 14h-214z" />
    <glyph glyph-name="Zdotaccent" unicode="&#x17b;" horiz-adv-x="1269" 
d="M111 1117l216 279h586l-845 -1373q2 -7 3 -12.5t1 -10.5h1097l45 321l-9 1l-216 -279h-669l847 1372q0 6 -1 11.5t-1 12.5h-1018l-45 -320zM607 1727q0 -51 33 -82t86 -31t86 31t33 82q0 49 -33.5 81t-85.5 32q-53 0 -86 -32t-33 -81z" />
    <glyph glyph-name="zdotaccent" unicode="&#x17c;" horiz-adv-x="957" 
d="M330 968h313l-599 -953l6 -15h805v244l-14 2l-198 -214h-365l596 951l-3 17h-750v-227l16 -1zM409 1261q0 -51 33 -82t86 -31t86 31t33 82q0 49 -33.5 81t-85.5 32q-53 0 -86 -32t-33 -81z" />
    <glyph glyph-name="Zcaron" unicode="&#x17d;" horiz-adv-x="1269" 
d="M111 1117l216 279h586l-845 -1373q2 -7 3 -12.5t1 -10.5h1097l45 321l-9 1l-216 -279h-669l847 1372q0 6 -1 11.5t-1 12.5h-1018l-45 -320zM1038 1943l-18 10l-283 -218l-283 218l-19 -10l267 -372h68z" />
    <glyph glyph-name="zcaron" unicode="&#x17e;" horiz-adv-x="957" 
d="M330 968h313l-599 -953l6 -15h805v244l-14 2l-198 -214h-365l596 951l-3 17h-750v-227l16 -1zM864 1489l-18 10l-283 -218l-283 218l-19 -10l267 -372h68z" />
    <glyph glyph-name="AEacute" unicode="&#x1fc;" horiz-adv-x="2149" 
d="M580 515l540 783v-783h-540zM1634 717l119 -189h17v416h-17l-119 -184h-302v636h466l172 -323h9v366h-1022v-19l142 -82l-849 -1227l-215 -92v-19h442v19l-174 93h-1l247 359h571v-359l-163 -93v-19h1089l53 366l-9 1l-224 -324h-534v674h302zM1659 1921l-135 -304h16
l340 290l-7 14h-214z" />
    <glyph glyph-name="aeacute" unicode="&#x1fd;" horiz-adv-x="1625" 
d="M655 533q-2 -14 -2 -27.5v-27.5q0 -78 16 -145.5t46 -124.5q-46 -44 -86 -70t-75 -39.5t-67 -17.5t-63 -4q-85 0 -124 43.5t-39 122.5q0 62 29 112t81.5 86.5t125 59.5t158.5 32zM1124 992q109 0 167.5 -92.5t58.5 -276.5l-486 -22q5 88 24.5 160t53 123.5t79.5 79.5
t103 28zM1552 576q0 94 -28 176.5t-81.5 143.5t-131.5 96t-178 35q-98 0 -181 -35t-146 -99q-34 61 -102.5 97t-184.5 36q-121 0 -223.5 -40.5t-174.5 -105.5l13 -19q60 35 128.5 51t146.5 16q68 0 114.5 -19t75.5 -52t41.5 -78t12.5 -97v-115q-116 -7 -223.5 -34
t-190 -73.5t-132 -112t-49.5 -149.5q0 -53 19.5 -94t55 -69.5t84.5 -43.5t109 -15q99 0 183 41t149 104l67 69q59 -101 157.5 -157.5t229.5 -56.5q146 0 252 60t171 159l-14 14q-27 -27 -62 -47.5t-76.5 -35t-86.5 -22t-92 -7.5q-81 0 -144 29.5t-107.5 85t-68 135.5
t-24.5 182q0 13 0.5 24.5t1.5 22.5h690zM956 1440l-135 -304h16l340 290l-7 14h-214z" />
    <glyph glyph-name="Oslashacute" unicode="&#x1fe;" horiz-adv-x="1541" 
d="M305 717q0 159 30.5 288.5t90 221t146 141.5t197.5 50q121 0 215 -60l-454 -1262q-110 83 -167.5 242.5t-57.5 378.5zM1236 717q0 -159 -31 -288t-91 -220t-147 -140.5t-198 -49.5q-106 0 -189 45l452 1258q100 -88 152 -242.5t52 -362.5zM1008 1423q-56 19 -115.5 29
t-123.5 10q-153 0 -281.5 -55.5t-221 -154.5t-144 -235.5t-51.5 -299.5q0 -124 30.5 -233.5t87 -199t136.5 -156t179 -104.5l-108 -300h62l101 281q49 -14 101 -21.5t109 -7.5q155 0 283.5 55t221.5 153.5t144.5 234.5t51.5 299q0 120 -29 226.5t-82 194.5t-129 155
t-169 108l69 191h-61zM948 1915l-135 -304h16l340 290l-7 14h-214z" />
    <glyph glyph-name="oslashacute" unicode="&#x1ff;" horiz-adv-x="1183" 
d="M591 994q33 0 63.5 -8.5t58.5 -24.5l-311 -866q-56 64 -86 167t-30 239q0 112 21.5 203t61.5 155.5t96 99.5t126 35zM897 501q0 -113 -21.5 -204t-61.5 -155.5t-96.5 -99t-126.5 -34.5q-80 0 -142 45l312 871q64 -62 100 -170t36 -253zM730 1009q-66 18 -139 18
q-111 0 -206 -39.5t-164.5 -110t-109.5 -167t-40 -209.5q0 -84 22 -159t62 -137t96 -109t124 -77l-59 -164h62l52 145q38 -11 78 -17.5t83 -6.5q112 0 207.5 39t165 109t109 166.5t39.5 210.5q0 87 -23.5 164t-66.5 140.5t-103 111t-134 75.5l59 164h-61zM676 1419
l-135 -304h16l340 290l-7 14h-214z" />
    <glyph glyph-name="uni0218" unicode="&#x218;" horiz-adv-x="1101" 
d="M993 1043l-24 312q-91 45 -193.5 76t-205.5 31q-106 0 -194 -23.5t-151.5 -69.5t-99 -114.5t-36.5 -159.5q-1 -85 35.5 -149.5t96 -115.5t134.5 -93t151 -81q68 -35 130.5 -70.5t110.5 -77.5t77 -92.5t28 -115.5q0 -49 -17 -99t-53 -90.5t-92 -66t-136 -25.5h-34
q-73 0 -136 31.5t-117 84t-99.5 121.5t-83.5 143h-14l23 -318q38 -18 85.5 -37t102.5 -34t115 -24.5t122 -9.5q109 0 204 22t165.5 69.5t111.5 121.5t42 179q1 89 -32 155.5t-89 119.5t-130 96t-156 84q-76 38 -142.5 73.5t-116 74.5t-77.5 86t-27 107t22.5 107.5t58 80
t85.5 50t105 17.5q46 0 89.5 -8.5t89.5 -32.5q60 -36 103 -84.5t74 -96.5t50 -89.5t31 -64.5h14zM392 -261q50 -31 78.5 -71.5t28.5 -83.5q0 -60 -31 -114t-90 -94q2 -7 5 -11.5t5 -11.5q56 22 106 59t88 84t60.5 102.5t22.5 115.5q0 75 -33.5 127t-87.5 65z" />
    <glyph glyph-name="uni0219" unicode="&#x219;" horiz-adv-x="886" 
d="M772 968q-29 12 -65.5 22.5t-75.5 18.5t-79.5 13t-76.5 5q-82 0 -152 -16.5t-121.5 -51t-80.5 -87t-29 -123.5q0 -66 28.5 -114.5t73 -85.5t99 -65.5t106.5 -54.5q55 -27 102.5 -51t82.5 -51t55 -60.5t20 -79.5q0 -35 -10.5 -67.5t-35 -57t-65.5 -39.5t-102 -15
q-34 0 -70.5 4.5t-61.5 10.5q-24 22 -46.5 55.5t-42.5 71t-36.5 74.5t-28.5 67h-18l-61 -239q27 -14 67.5 -27.5t87 -24.5t97 -17.5t98.5 -6.5q86 0 159 18t125.5 54t82 89.5t29.5 124.5q0 62 -28.5 109t-75 85.5t-104 69.5t-116.5 60q-51 25 -95 49.5t-76.5 51.5
t-51.5 58.5t-19 70.5q0 34 11.5 66t36 57t63 40t92.5 15q27 0 55.5 -3t42.5 -8q16 -16 34.5 -42.5t38 -59t40 -69.5t39.5 -73h17zM325 -253q45 -29 71 -65.5t26 -75.5q0 -55 -28 -105t-82 -86q2 -6 4.5 -10.5t4.5 -9.5q51 21 97 54t80.5 76t55 93.5t20.5 104.5
q0 69 -30.5 116t-80.5 59z" />
    <glyph glyph-name="uni021A" unicode="&#x21a;" horiz-adv-x="1248" 
d="M1020 1396l156 -278h9v321h-1123v-321h11l154 278h291v-1284l-163 -93v-19h539v19l-164 93v1284h290zM493 -251q45 -29 71 -65.5t26 -75.5q0 -55 -28 -105t-82 -86q2 -6 4.5 -10.5t4.5 -9.5q51 21 97 54t80.5 76t55 93.5t20.5 104.5q0 69 -30.5 116t-80.5 59z" />
    <glyph glyph-name="uni021B" unicode="&#x21b;" horiz-adv-x="744" 
d="M682 968v32h-317v225h-14l-180 -188l-135 -56v-13h134v-721q0 -66 18.5 -116.5t52.5 -85t80.5 -52t103.5 -17.5q48 0 90.5 11t79 29t66 41.5t50.5 47.5l-10 15q-35 -23 -85.5 -38t-104.5 -15q-72 0 -108 43t-36 125v733h315zM262 -244q45 -29 71 -65.5t26 -75.5
q0 -55 -28 -105t-82 -86q2 -6 4.5 -10.5t4.5 -9.5q51 21 97 54t80.5 76t55 93.5t20.5 104.5q0 69 -30.5 116t-80.5 59z" />
    <glyph glyph-name="uni0237" unicode="&#x237;" horiz-adv-x="508" 
d="M11 -415q94 21 160.5 69.5t108.5 117t61.5 152.5t19.5 175v917l-12 11l-323 -74v-18l138 -59v-932q0 -120 -40.5 -200.5t-117.5 -141.5z" />
    <glyph glyph-name="circumflex" unicode="&#x2c6;" horiz-adv-x="888" 
d="M143 1132l19 -10l283 219l283 -219l18 10l-268 373h-68z" />
    <glyph glyph-name="caron" unicode="&#x2c7;" horiz-adv-x="888" 
d="M746 1504l-18 10l-283 -218l-283 218l-19 -10l267 -372h68z" />
    <glyph glyph-name="breve" unicode="&#x2d8;" horiz-adv-x="893" 
d="M445 1299q-114 0 -172.5 40t-72.5 126l-17 -5q1 -60 17.5 -114t49 -95.5t81 -65.5t114.5 -24q67 0 116.5 24t82 65.5t49 95.5t17.5 114l-16 5q-15 -86 -74.5 -126t-174.5 -40z" />
    <glyph glyph-name="dotaccent" unicode="&#x2d9;" horiz-adv-x="751" 
d="M256 1339q0 -51 33 -82t86 -31t86 31t33 82q0 49 -33.5 81t-85.5 32q-53 0 -86 -32t-33 -81z" />
    <glyph glyph-name="ring" unicode="&#x2da;" horiz-adv-x="631" 
d="M316 1522q-45 0 -82.5 -13.5t-65 -38t-42.5 -58.5t-15 -75t15 -74.5t42.5 -57.5t65 -37.5t82.5 -13.5q44 0 81.5 13.5t64.5 37.5t42 57.5t15 74.5t-14.5 75t-41.5 58.5t-64.5 38t-82.5 13.5zM208 1337q0 33 7 62t21 50.5t34 34t46 12.5t46 -12.5t33.5 -34t20.5 -50.5
t7 -62q0 -69 -28.5 -113t-78.5 -44q-51 0 -79.5 44t-28.5 113z" />
    <glyph glyph-name="ogonek" unicode="&#x2db;" horiz-adv-x="671" 
d="M418 15q-63 -38 -114.5 -76.5t-87.5 -77.5t-56 -79.5t-20 -82.5q0 -69 45 -108t128 -39q41 0 76.5 10.5t65.5 27.5t55.5 38.5t45.5 44.5l-10 11q-38 -33 -77 -44t-77 -11q-52 0 -79.5 26t-27.5 80q0 66 37 132t123 134z" />
    <glyph glyph-name="tilde" unicode="&#x2dc;" horiz-adv-x="979" 
d="M325 1305q33 0 69 -15.5t72.5 -33.5t73 -33.5t72.5 -15.5q47 0 82.5 18.5t60 50t40 72t23.5 83.5l-15 5q-47 -99 -150 -99q-35 0 -71.5 15.5t-73 33.5t-72 33.5t-69.5 15.5q-47 0 -82.5 -18.5t-60.5 -49.5t-40.5 -71.5t-24.5 -84.5l17 -4q46 98 149 98z" />
    <glyph glyph-name="hungarumlaut" unicode="&#x2dd;" horiz-adv-x="749" 
d="M257 1225l310 265l-7 13h-195l-123 -278h15zM530 1225h14l311 265l-7 13h-195z" />
    <glyph glyph-name="uni0401" unicode="&#x401;" horiz-adv-x="1208" 
d="M519 1695q0 46 -31 76t-81 30q-47 0 -78 -29.5t-31 -76.5t31 -77t78 -30q50 0 81 30.5t31 76.5zM799 1588q50 0 80 30t30 77t-31 76.5t-79 29.5t-79 -29.5t-31 -76.5t31 -77t79 -30zM719 760h-302v636h466l172 -323h9v366h-1022v-19l163 -93v-1216l-163 -92v-19h1089
l53 366l-9 1l-224 -324h-534v674h302l120 -189h17v416h-17z" />
    <glyph glyph-name="uni0402" unicode="&#x402;" horiz-adv-x="1515" 
d="M1261 492q0 -67 -18 -134t-47 -128t-65.5 -111t-74.5 -82l31 -69q71 44 138 98t118.5 123t82.5 154.5t31 190.5q0 111 -30.5 194t-81.5 137.5t-117 81.5t-136 27q-106 0 -197.5 -43.5t-163.5 -117.5v583h289l156 -278h10v321h-1123v-321h10l155 278h291v-1284l-164 -94
v-18h538v19l-162 92v658q52 54 116 80.5t134 26.5q57 0 108 -19t89 -64t60.5 -118.5t22.5 -182.5z" />
    <glyph glyph-name="uni0403" unicode="&#x403;" horiz-adv-x="1136" 
d="M42 0h559v19l-184 93v1284h457l172 -323h9v366h-1013v-19l163 -93v-1216l-163 -92v-19zM700 1890l-135 -304h16l340 290l-7 14h-214z" />
    <glyph glyph-name="uni0404" unicode="&#x404;" horiz-adv-x="1362" 
d="M929 42q-40 -13 -77 -18t-70 -5q-117 0 -208 49t-153.5 139t-96 216.5t-34.5 281.5h413l120 -190h17v417h-17l-120 -184h-413q3 146 35.5 269t92.5 212t147 139t201 50q39 0 79 -5t82 -18l9 -4q82 -39 135 -97t86 -117.5t49.5 -112t25.5 -81.5h19l-26 371
q-108 48 -217.5 78t-228.5 30q-167 0 -300.5 -56t-226.5 -156t-143 -237t-50 -299q0 -161 51.5 -296.5t145.5 -233.5t225.5 -153t291.5 -55q122 0 231.5 29t220.5 78l26 372h-19q-8 -27 -25 -80t-50.5 -113t-86.5 -118.5t-133 -97.5z" />
    <glyph glyph-name="uni0405" unicode="&#x405;" horiz-adv-x="1101" 
d="M993 1043l-24 312q-91 45 -193.5 76t-205.5 31q-106 0 -194 -23.5t-151.5 -69.5t-99 -114.5t-36.5 -159.5q-1 -85 35.5 -149.5t96 -115.5t134.5 -93t151 -81q68 -35 130.5 -70.5t110.5 -77.5t77 -92.5t28 -115.5q0 -49 -17 -99t-53 -90.5t-92 -66t-136 -25.5h-34
q-73 0 -136 31.5t-117 84t-99.5 121.5t-83.5 143h-14l23 -318q38 -18 85.5 -37t102.5 -34t115 -24.5t122 -9.5q109 0 204 22t165.5 69.5t111.5 121.5t42 179q1 89 -32 155.5t-89 119.5t-130 96t-156 84q-76 38 -142.5 73.5t-116 74.5t-77.5 86t-27 107t22.5 107.5t58 80
t85.5 50t105 17.5q46 0 89.5 -8.5t89.5 -32.5q60 -36 103 -84.5t74 -96.5t50 -89.5t31 -64.5h14z" />
    <glyph glyph-name="uni0406" unicode="&#x406;" horiz-adv-x="622" 
d="M42 19v-19h538v19l-163 93v1215l163 93v19h-538v-19l163 -93v-1216z" />
    <glyph glyph-name="uni0407" unicode="&#x407;" horiz-adv-x="622" 
d="M42 19v-19h538v19l-163 93v1215l163 93v19h-538v-19l163 -93v-1216zM226 1692q0 46 -31 76t-81 30q-47 0 -78 -29.5t-31 -76.5t31 -77t78 -30q50 0 81 30.5t31 76.5zM506 1585q50 0 80 30t30 77t-31 76.5t-79 29.5t-79 -29.5t-31 -76.5t31 -77t79 -30z" />
    <glyph glyph-name="uni0408" unicode="&#x408;" horiz-adv-x="984" 
d="M380 19q-28 0 -57.5 22t-59 58t-56.5 82t-50 94.5t-40 95.5t-27 84h-20l28 -391q27 -18 62.5 -34t75.5 -28t82.5 -19t84.5 -7q80 0 150.5 24t122.5 69t82 110t30 148v1000l162 93v19h-559v-19l184 -93h1v-919q0 -92 -9.5 -164t-32 -122t-60.5 -76.5t-94 -26.5z" />
    <glyph glyph-name="uni0409" unicode="&#x409;" horiz-adv-x="2318" 
d="M1687 723q90 0 155.5 -23.5t107.5 -67.5t62.5 -105.5t20.5 -138.5q0 -79 -21.5 -143t-65.5 -109t-112 -69t-160 -24h-213v680h226zM1624 1420v19h-1230v-19l186 -93q0 -115 -0.5 -231t-6.5 -232t-19 -232t-39 -231q-13 -63 -30 -130.5t-42.5 -123.5t-61.5 -92t-86 -36
q-42 0 -74 26.5t-58.5 71t-49 102.5t-45.5 120h-17l4 -275q56 -37 115 -62.5t137 -25.5q161 0 266.5 114t148.5 320q24 114 37.5 233t20 242t7.5 250.5t1 260.5h461v-1286l-164 -91v-19h575q143 0 255.5 22t190 68.5t118.5 119.5t41 175q0 106 -44.5 179t-121.5 118
t-182 64.5t-227 19.5h-229v561z" />
    <glyph glyph-name="uni040A" unicode="&#x40a;" horiz-adv-x="2200" 
d="M1561 723q90 0 155.5 -23.5t107.5 -67.5t62.5 -105.5t20.5 -138.5q0 -79 -21.5 -143t-65.5 -109t-111.5 -69t-160.5 -24h-213v680h226zM1535 0q143 0 255.5 22t190 68.5t118.5 119.5t41 175q0 106 -44.5 179t-122 118t-182.5 64.5t-227 19.5h-229v561l164 93v19h-539v-19
l164 -93v-569h-707v569l163 93v19h-538v-19l163 -93v-1216l-163 -92v-19h538v19l-163 93v602h707v-603l-162 -92v-19h573z" />
    <glyph glyph-name="uni040B" unicode="&#x40b;" horiz-adv-x="1622" 
d="M1211 112l-159 -94v-18h534v19l-164 93v560q0 67 -25.5 122.5t-70 95.5t-105 62t-130.5 22q-106 0 -197.5 -43.5t-163.5 -117.5v583h290l156 -278h9v321h-1123v-321h11l154 278h291v-1284l-163 -94v-18h533v19l-158 93v657q52 54 116 80.5t134 26.5q114 0 172.5 -61.5
t58.5 -162.5v-540z" />
    <glyph glyph-name="uni040C" unicode="&#x40c;" horiz-adv-x="1439" 
d="M42 1420l163 -93v-1216l-163 -92v-19h538v19l-163 93v1215l163 93v19h-538v-19zM486 729l522 -729h364v30l-172 82l-546 727l465 488l185 93v19h-508v-19l247 -104zM784 1888l-135 -304h16l340 290l-7 14h-214z" />
    <glyph glyph-name="uni040E" unicode="&#x40e;" horiz-adv-x="1399" 
d="M959 1418l175 -91l-357 -652l-369 651l153 92v21h-562v-21l177 -92h1l493 -859l-97 -183q-23 -41 -61.5 -63.5t-83.5 -33t-92.5 -12t-89.5 -1.5h-12l-7 -19l116 -192q24 5 57 22.5t76 62.5t95.5 124.5t113.5 209.5l506 945l190 91v21h-422v-21zM755 1734
q-114 0 -172.5 40t-72.5 126l-17 -5q1 -60 17.5 -114t49 -95.5t81 -65.5t114.5 -24q67 0 116.5 24t82 65.5t49 95.5t17.5 114l-16 5q-15 -86 -74.5 -126t-174.5 -40z" />
    <glyph glyph-name="uni040F" unicode="&#x40f;" horiz-adv-x="1540" 
d="M1335 1327h2l163 93v19h-538v-19l162 -93v-1284h-707v1284l163 93v19h-538v-19l163 -93v-1216l-163 -92v-19h643l109 -323h9l109 323h587v19l-164 93v1215z" />
    <glyph glyph-name="uni0410" unicode="&#x410;" horiz-adv-x="1460" 
d="M902 515h-522l261 735zM1278 111l-490 1328h-277v-19l95 -135l-422 -1174l-179 -92v-19h443v19l-210 93h-1l127 359h554l128 -359l-161 -93v-19h562v19z" />
    <glyph glyph-name="uni0411" unicode="&#x411;" horiz-adv-x="1277" 
d="M643 723q90 0 155.5 -23.5t107.5 -67.5t62.5 -105.5t20.5 -138.5q0 -79 -21.5 -143t-65.5 -109t-112 -69t-160 -24h-213v680h226zM417 1396h466l172 -323h9v366h-1022v-19l163 -93v-1218l-159 -90v-19h570q143 0 255.5 22t190 68.5t118.5 119.5t41 175q0 106 -44.5 179
t-121.5 118t-182 64.5t-227 19.5h-229v630z" />
    <glyph glyph-name="uni0412" unicode="&#x412;" horiz-adv-x="1277" 
d="M988 388q0 -79 -21.5 -143t-65.5 -109t-111.5 -69t-159.5 -24h-213v680h226q90 0 155 -23.5t107.5 -67.5t62.5 -105.5t20 -138.5zM417 1396h198q82 0 142 -22t99.5 -62.5t58.5 -98t19 -128.5q0 -67 -17.5 -125t-54 -101t-93.5 -68t-136 -25h-216v630zM837 750
q79 17 139.5 50t102 78.5t62.5 102t21 119.5q0 69 -28.5 130.5t-88 108t-152 73.5t-221.5 27h-630v-19l163 -93v-1215l-163 -93v-19h574q143 0 255.5 22t190 68.5t118.5 119.5t41 175q0 70 -24.5 132t-73 110t-120 80t-166.5 43z" />
    <glyph glyph-name="uni0413" unicode="&#x413;" horiz-adv-x="1136" 
d="M42 0h559v19l-184 93v1284h457l172 -323h9v366h-1013v-19l163 -93v-1216l-163 -92v-19z" />
    <glyph glyph-name="uni0414" unicode="&#x414;" horiz-adv-x="1617" 
d="M267 43q92 58 154.5 150t102 205.5t60.5 242t30.5 260t10.5 258.5t2 237h506v-1353h-866zM1534 43h-190v1284l163 93v19h-1116v-19l186 -93q1 -113 -2 -240t-15 -255t-36.5 -251t-68.5 -228t-111 -186t-162 -124h-103v-366h9l172 323h1093l172 -323h9v366z" />
    <glyph glyph-name="uni0415" unicode="&#x415;" horiz-adv-x="1208" 
d="M719 760h-302v636h466l172 -323h9v366h-1022v-19l163 -93v-1216l-163 -92v-19h1089l53 366l-9 1l-224 -324h-534v674h302l120 -189h17v416h-17z" />
    <glyph glyph-name="uni0416" unicode="&#x416;" horiz-adv-x="1976" 
d="M1099 1327l164 93v19h-539v-19l163 -93v-1216l-163 -92v-19h539v19l-164 93v1215zM830 736l-485 590l175 94v19h-423v-19l185 -93l411 -507l-629 -790v-30h252zM1671 0h251v30l-628 790l411 507l184 93v19h-422v-19l174 -94l-484 -590z" />
    <glyph glyph-name="uni0417" unicode="&#x417;" horiz-adv-x="1131" 
d="M385 727q96 -10 177 -37t139.5 -73t91 -112.5t32.5 -157.5q0 -71 -21 -131t-62 -104t-101 -68.5t-137 -24.5q-84 0 -146.5 36.5t-109.5 96t-82 135t-62 153.5h-19l26 -374q26 -17 68 -33t93.5 -29t109.5 -20.5t115 -7.5q120 0 219 29t170.5 82.5t111 128t39.5 164.5
q0 80 -29 146t-81.5 117.5t-126.5 87.5t-163 55q172 42 264 129.5t92 208.5q0 73 -30.5 135t-88 107t-140.5 70.5t-188 25.5q-67 0 -125 -7.5t-107.5 -19.5t-90.5 -27t-74 -30l-26 -379h18q15 41 33 88t42 93.5t54.5 90t69.5 76.5t88 52.5t110 19.5q58 0 102 -22.5t74 -62
t45 -93.5t15 -118q0 -78 -26 -137t-75.5 -102t-122 -72.5t-165.5 -49.5v-35z" />
    <glyph glyph-name="uni0418" unicode="&#x418;" horiz-adv-x="1540" 
d="M1499 1439h-539v-19l164 -93v-101l-707 -895v996l163 93v19h-538v-19l163 -93v-1216l-163 -92v-19h538v19l-163 93v142l707 895v-1038l-162 -92v-19h538v19l-163 93h-2v1215l164 93v19z" />
    <glyph glyph-name="uni0419" unicode="&#x419;" horiz-adv-x="1540" 
d="M1499 1439h-539v-19l164 -93v-101l-707 -895v996l163 93v19h-538v-19l163 -93v-1216l-163 -92v-19h538v19l-163 93v142l707 895v-1038l-162 -92v-19h538v19l-163 93h-2v1215l164 93v19zM768 1738q-114 0 -172.5 40t-72.5 126l-17 -5q1 -60 17.5 -114t49 -95.5t81 -65.5
t114.5 -24q67 0 116.5 24t82 65.5t49 95.5t17.5 114l-16 5q-15 -86 -74.5 -126t-174.5 -40z" />
    <glyph glyph-name="uni041A" unicode="&#x41a;" horiz-adv-x="1439" 
d="M42 1420l163 -93v-1216l-163 -92v-19h538v19l-163 93v1215l163 93v19h-538v-19zM486 729l522 -729h364v30l-172 82l-546 727l465 488l185 93v19h-508v-19l247 -104z" />
    <glyph glyph-name="uni041B" unicode="&#x41b;" horiz-adv-x="1646" 
d="M1596 1420v19h-1222v-19l185 -93q0 -107 -1 -203t-4 -192t-9 -196t-17 -215q-9 -87 -31 -176.5t-54 -162t-72.5 -118t-88.5 -45.5q-26 0 -50 23t-44 58t-37 76t-29 76h-16l-4 -223q29 -23 68.5 -38t106.5 -15q62 0 111.5 44t87 119t63 176t38.5 215q12 114 18.5 215.5
t10 203t4 210t0.5 237.5h612v-1285l-162 -92v-19h538v19l-163 93h-2v1215z" />
    <glyph glyph-name="uni041C" unicode="&#x41c;" horiz-adv-x="1809" 
d="M911 358l-523 1081h-345v-19l166 -93v-1201l-169 -108v-18h381v18l-168 108v1117l545 -1121l53 13l541 1110v-1133l-163 -94v-18h539v18l-164 94v1215l164 93v19h-332z" />
    <glyph glyph-name="uni041D" unicode="&#x41d;" horiz-adv-x="1540" 
d="M960 0h539v19l-164 93v1215l164 93v19h-539v-19l163 -93v-569h-706v569l163 93v19h-538v-19l163 -93v-1216l-163 -92v-19h538v19l-163 93v602h706v-603l-163 -92v-19z" />
    <glyph glyph-name="uni041E" unicode="&#x41e;" horiz-adv-x="1541" 
d="M769 1462q-153 0 -281.5 -55.5t-221 -154.5t-144 -235.5t-51.5 -299.5q0 -162 51.5 -298.5t144 -234.5t221 -153t281.5 -55q155 0 283.5 55t221.5 153.5t144.5 234.5t51.5 299t-52 299.5t-145 235.5t-221.5 154t-282.5 55zM305 717q0 159 30.5 288.5t90 221t146 141.5
t197.5 50t198 -50t147 -141.5t91 -221t31 -288.5t-31 -288t-91 -220t-147 -140.5t-198 -49.5t-197.5 49.5t-146 141t-90 220.5t-30.5 287z" />
    <glyph glyph-name="uni041F" unicode="&#x41f;" horiz-adv-x="1540" 
d="M42 1439v-19l163 -93v-1216l-163 -92v-19h538v19l-163 93v1284h707v-1285l-162 -92v-19h538v19l-163 93h-2v1215l164 93v19h-1457z" />
    <glyph glyph-name="uni0420" unicode="&#x420;" horiz-adv-x="1218" 
d="M511 633v-43h103q132 0 236 29t176 84.5t110.5 137t38.5 185.5q0 89 -31.5 164.5t-95 131t-159.5 86.5t-226 31h-621v-19l163 -93v-1216l-163 -92v-19h559v19l-184 93v1284h179q83 0 148.5 -22t111 -67.5t70 -115t24.5 -164.5q0 -96 -23.5 -169t-67 -122.5t-105 -75
t-138.5 -26.5z" />
    <glyph glyph-name="uni0421" unicode="&#x421;" horiz-adv-x="1367" 
d="M1237 1354q-106 48 -217 78t-228 30q-167 0 -300.5 -56t-227 -156t-143.5 -237t-50 -299q0 -161 51.5 -296.5t145.5 -233.5t226 -153t292 -55q122 0 231 29t220 78l26 372h-18q-8 -27 -25.5 -80t-50.5 -113t-86.5 -118.5t-133.5 -97.5l-9 -5q-39 -12 -75.5 -17t-69.5 -5
q-118 0 -209 50t-153.5 141.5t-95 220t-32.5 285.5q0 153 30.5 281.5t90 222t148 146t205.5 52.5q39 0 79.5 -5t82.5 -18l8 -4q82 -39 135 -97t86 -117.5t49.5 -112t25.5 -81.5h18z" />
    <glyph glyph-name="uni0422" unicode="&#x422;" horiz-adv-x="1248" 
d="M1020 1396l156 -278h9v321h-1123v-321h11l154 278h291v-1284l-163 -93v-19h539v19l-164 93v1284h290z" />
    <glyph glyph-name="uni0423" unicode="&#x423;" horiz-adv-x="1399" 
d="M959 1418l175 -91l-357 -652l-369 651l153 92v21h-562v-21l177 -92h1l493 -859l-97 -183q-23 -41 -61.5 -63.5t-83.5 -33t-92.5 -12t-89.5 -1.5h-12l-7 -19l116 -192q24 5 57 22.5t76 62.5t95.5 124.5t113.5 209.5l506 945l190 91v21h-422v-21z" />
    <glyph glyph-name="uni0424" unicode="&#x424;" horiz-adv-x="1687" 
d="M740 213q-128 11 -219 50.5t-149.5 104.5t-86 153.5t-27.5 196.5t27.5 196.5t86 154t149.5 105t219 50.5v-1011zM952 1223q127 -11 217.5 -51t149 -105t86 -153t27.5 -196t-27.5 -196t-86 -152.5t-149.5 -104.5t-217 -51v1009zM1115 1444h-538v-19l163 -93v-66
q-180 -9 -314.5 -53.5t-224 -117t-133.5 -168.5t-44 -209q0 -112 44 -208t133.5 -168t224 -116.5t314.5 -54.5v-64l-163 -93v-19h538v19l-163 93v64q180 10 314.5 54.5t223.5 116.5t133 168t44 209t-44 208.5t-133.5 167.5t-223.5 116.5t-314 54.5v66l163 93v19z" />
    <glyph glyph-name="uni0425" unicode="&#x425;" horiz-adv-x="1399" 
d="M1116 1327h4l-357 -484l-309 483l165 92v21h-570v-21l155 -92l406 -633l-413 -584l-184 -89v-20h416v20l-175 92h-2l384 541l346 -542l-164 -91v-20h568v20l-154 91l-444 693l387 525l185 89v21h-420v-21z" />
    <glyph glyph-name="uni0426" unicode="&#x426;" horiz-adv-x="1540" 
d="M1337 1327l163 93v19h-538v-19l162 -93v-1284h-707v1284l163 93v19h-538v-19l163 -93v-1216l-163 -92v-19h1299l172 -323h9v366h-187v1284h2z" />
    <glyph glyph-name="uni0427" unicode="&#x427;" horiz-adv-x="1312" 
d="M759 1420l162 -93v-608q-26 -27 -57.5 -43.5t-66 -26t-70 -13t-70.5 -3.5q-58 0 -111 14t-92.5 46.5t-63 86t-23.5 131.5v416l163 93v19h-538v-19l163 -93v-424q0 -99 35 -169t90.5 -114.5t125.5 -64.5t140 -20q52 0 103.5 8t100 25t92 43.5t79.5 63.5v-564l-162 -92v-19
h538v19l-163 93v1215l163 93v19h-538v-19z" />
    <glyph glyph-name="uni0428" unicode="&#x428;" horiz-adv-x="1996" 
d="M1584 1327v-1215h-1l1 -3v-66h-482v1284l164 93v19h-539v-19l163 -93v-1284h-473v1284l163 93v19h-538v-19l162 -93v-1216l-162 -92v-19h1916v19l-163 93v1215h1l164 93v19h-539v-19z" />
    <glyph glyph-name="uni0429" unicode="&#x429;" horiz-adv-x="1996" 
d="M1421 1420l163 -93v-1284h-482v1284l164 93v19h-539v-19l163 -93v-1284h-473v1284l163 93v19h-538v-19l162 -93v-1216l-162 -92v-19h1744l172 -323h9v366h-172v1284h1l164 93v19h-539v-19z" />
    <glyph glyph-name="uni042A" unicode="&#x42a;" horiz-adv-x="1457" 
d="M597 723h226q90 0 155.5 -23.5t107.5 -67.5t62.5 -105.5t20.5 -138.5q0 -79 -21.5 -143t-65.5 -109t-112 -69t-160 -24h-213v680zM1401 385q0 106 -44.5 179t-122 118t-182.5 64.5t-227 19.5h-228v561l163 93v19h-729v-366h9l172 323h173v-1286l-164 -91v-19h575
q143 0 255.5 22t190 68.5t118.5 119.5t41 175z" />
    <glyph glyph-name="uni042B" unicode="&#x42b;" horiz-adv-x="1906" 
d="M990 388q0 -79 -21.5 -143t-65.5 -109t-112 -69t-160 -24h-213v680h225q90 0 155.5 -23.5t108 -67.5t63 -105.5t20.5 -138.5zM418 1327l163 93v19h-538v-19l162 -93v-1218l-164 -90v-19h576q143 0 255.5 22t190 68.5t118.5 119.5t41 175q0 106 -44.5 179t-122 118
t-182.5 64.5t-227 19.5h-228v561zM1317 19v-19h538v19l-163 93v1215l163 93v19h-538v-19l163 -93v-1216z" />
    <glyph glyph-name="uni042C" unicode="&#x42c;" horiz-adv-x="1278" 
d="M990 388q0 -79 -21.5 -143t-65.5 -109t-112 -69t-160 -24h-213v680h225q90 0 155.5 -23.5t108 -67.5t63 -105.5t20.5 -138.5zM418 1327l163 93v19h-538v-19l162 -93v-1218l-164 -90v-19h576q143 0 255.5 22t190 68.5t118.5 119.5t41 175q0 106 -44.5 179t-122 118
t-182.5 64.5t-227 19.5h-228v561z" />
    <glyph glyph-name="uni042D" unicode="&#x42d;" horiz-adv-x="1362" 
d="M1060 705q-1 -155 -34.5 -281.5t-96.5 -216.5t-154 -139t-207 -49q-34 0 -71 5t-76 18l-8 4q-80 39 -133.5 97.5t-86.5 118.5t-50 113t-25 80h-19l26 -372q112 -49 221 -78t231 -29q160 0 291.5 55t225.5 153t145.5 233.5t51.5 296.5q0 162 -50 299t-143.5 237t-227 156
t-300.5 56q-117 0 -228 -30t-217 -78l-26 -371h19q9 29 25.5 81.5t49.5 112t86 117.5t135 97l9 4q42 13 82 18t78 5q114 0 201.5 -50t147.5 -139t92 -212t35 -269h-413l-119 184h-17v-417h17l119 190h414z" />
    <glyph glyph-name="uni042E" unicode="&#x42e;" horiz-adv-x="2196" 
d="M955 717q0 159 30.5 288.5t90 221t146 141.5t197.5 50t198 -50t147 -141.5t91 -221t31 -288.5t-31 -288t-91 -220t-147 -140.5t-198 -49.5t-197.5 49.5t-146 141t-90 220.5t-30.5 287zM1419 1462q-151 0 -277.5 -53.5t-219 -149.5t-145.5 -229t-56 -292h-304v589l163 93
v19h-538v-19l163 -93v-1216l-163 -92v-19h538v19l-163 93v582h304q4 -158 57 -290t145 -227t218.5 -148t277.5 -53q155 0 283.5 55t221.5 153.5t144.5 234.5t51.5 299t-52 299.5t-145 235.5t-221.5 154t-282.5 55z" />
    <glyph glyph-name="uni042F" unicode="&#x42f;" horiz-adv-x="1412" 
d="M990 1396v-1284l-164 -93v-19h539v19l-163 92v1216l168 93v19h-641q-121 0 -213 -26t-154 -73t-93.5 -113t-31.5 -147q0 -92 31.5 -160t84.5 -115.5t124 -76.5t149 -43q-24 -8 -48 -12.5t-53 -8.5l-339 -557l-148 -96l-1 -11h340l351 673q24 -2 48 -3t48 -1h87l5 41
l-103 1q-92 1 -158 26t-108.5 71.5t-62.5 113.5t-20 151q0 73 18 132.5t57.5 102t102 65.5t150.5 23h198z" />
    <glyph glyph-name="uni0430" unicode="&#x430;" horiz-adv-x="1033" 
d="M261 243q0 63 29 112.5t81 86.5t124 59.5t158 31.5v-377q-47 -42 -104.5 -60.5t-124.5 -18.5q-85 0 -124 43.5t-39 122.5zM850 689q0 71 -15 132t-52.5 107t-101.5 72t-162 26q-121 0 -223.5 -40.5t-174.5 -105.5l13 -19q60 35 128.5 51t146.5 16q68 0 114.5 -19
t75.5 -52t41.5 -78t12.5 -97v-115q-116 -7 -223.5 -34t-190 -73.5t-132 -112t-49.5 -149.5q0 -53 19.5 -94t55 -69.5t84.5 -43.5t109 -15q99 0 184 40t148 105l24 -145l278 62v12l-110 67v572z" />
    <glyph glyph-name="uni0431" unicode="&#x431;" horiz-adv-x="1209" 
d="M903 497q0 -112 -19.5 -202t-58.5 -154t-96.5 -98.5t-132.5 -34.5q-76 0 -133.5 36t-95.5 102t-57.5 160t-19.5 210q0 117 24.5 206t66.5 149.5t98.5 91.5t121.5 31q74 0 130.5 -35t94.5 -100t57.5 -156.5t19.5 -205.5zM697 1489q-151 -16 -267 -97t-194.5 -207
t-119 -285.5t-40.5 -332.5q0 -136 38.5 -245.5t107.5 -186t164.5 -118t209.5 -41.5q111 0 206.5 38.5t165 108.5t109.5 166.5t40 211.5q0 114 -38.5 210.5t-107.5 166t-163.5 109t-206.5 39.5q-103 0 -174 -36t-119 -88q7 80 35 169t76 167t115.5 134t154.5 70q47 8 82 14.5
t62 14t47.5 18.5t37.5 29v109h-17l-124 -125q-20 -5 -40 -8t-40 -5z" />
    <glyph glyph-name="uni0432" unicode="&#x432;" horiz-adv-x="998" 
d="M738 270q0 -109 -54.5 -173.5t-170.5 -64.5h-129v470h136q57 0 98 -16.5t67.5 -47t39.5 -73t13 -95.5zM384 968h116q55 0 93 -16t62 -44.5t35 -68t11 -86.5t-11 -87t-33.5 -69t-58 -45.5t-83.5 -16.5h-131v433zM672 522q118 25 177 91t59 151q0 50 -21 93t-64.5 74.5
t-110 50t-157.5 18.5h-521v-18l155 -72v-820l-155 -72v-18h470q106 0 189 14.5t140 46t87 82.5t30 123q0 98 -70.5 167.5t-207.5 88.5z" />
    <glyph glyph-name="uni0433" unicode="&#x433;" horiz-adv-x="873" 
d="M31 0h527v18l-175 72v867h258l170 -223h7v266h-787v-18l156 -72v-820l-156 -72v-18z" />
    <glyph glyph-name="uni0434" unicode="&#x434;" horiz-adv-x="1135" 
d="M188 43q60 39 101 102t68 140t42.5 164.5t23 176t9.5 174t3 158.5l8 8h316v-923h-571zM955 910l155 72v18h-878v-18l156 -72q0 -75 -2.5 -161t-12 -173.5t-27 -172t-47.5 -155.5t-74 -125t-106 -80h-72v-275h7l170 232h682l170 -232h7v275h-128v867z" />
    <glyph glyph-name="uni0435" unicode="&#x435;" horiz-adv-x="1022" 
d="M543 992q109 0 167 -92.5t58 -276.5l-486 -22q5 88 24.5 160t53.5 123.5t80 79.5t103 28zM940 209q-27 -27 -62 -49t-76.5 -37.5t-87 -24.5t-92.5 -9q-83 0 -146.5 30.5t-107 87.5t-66 138.5t-23.5 183.5v24.5t2 22.5h690q0 94 -28 176.5t-81.5 143.5t-131.5 96t-178 35
q-104 0 -192 -39.5t-152 -112t-100 -173.5t-36 -224q0 -111 33 -203.5t93.5 -159t145 -103t187.5 -36.5q146 0 252 60t171 159z" />
    <glyph glyph-name="uni0436" unicode="&#x436;" horiz-adv-x="1652" 
d="M608 493l120 -130v-273l-155 -72v-18h507v18l-155 72v274l118 129l323 -493h241q0 3 -0.5 6t-0.5 5l-462 576l283 322l158 79v12h-383v-12l160 -79l-437 -485v486l155 72v18h-507v-18l155 -72v-488l-439 487l160 79v12h-382v-12l157 -79l282 -322l-460 -576q0 -2 -0.5 -5
t-0.5 -6h241z" />
    <glyph glyph-name="uni0437" unicode="&#x437;" horiz-adv-x="807" 
d="M274 501q61 -5 113.5 -25t91.5 -53.5t61 -81t22 -106.5q0 -49 -13.5 -90.5t-40 -71.5t-64.5 -46.5t-88 -16.5q-55 0 -98 24.5t-76.5 65.5t-59 95t-46.5 112h-14l19 -271q18 -11 47.5 -22t66 -19.5t77.5 -13.5t82 -5q88 0 161.5 20.5t127 58.5t83 91t29.5 117
q0 54 -20 100.5t-57 83.5t-88.5 63.5t-113.5 41.5q121 29 184 94.5t63 146.5q0 51 -23.5 94t-67 74t-105.5 48.5t-139 17.5q-88 0 -162.5 -17t-121.5 -37l-19 -277h12q16 43 38 94.5t54.5 96.5t78 75t108.5 30q38 0 66.5 -15t47 -41.5t28 -63t9.5 -80.5q0 -110 -65.5 -174
t-187.5 -88v-29z" />
    <glyph glyph-name="uni0438" unicode="&#x438;" horiz-adv-x="1216" 
d="M825 834l-437 -561v637l135 72v18h-487v-18l155 -72v-820l-155 -72v-18h487v18l-135 72v107l437 561v-668h-1l-136 -72v-18h488v18l-155 71v821l155 72v18h-488v-18l136 -72h1v-76z" />
    <glyph glyph-name="uni0439" unicode="&#x439;" horiz-adv-x="1216" 
d="M825 834l-437 -561v637l135 72v18h-487v-18l155 -72v-820l-155 -72v-18h487v18l-135 72v107l437 561v-668h-1l-136 -72v-18h488v18l-155 71v821l155 72v18h-488v-18l136 -72h1v-76zM621 1268q-114 0 -172.5 40t-72.5 126l-17 -5q1 -60 17.5 -114t49 -95.5t81 -65.5
t114.5 -24q67 0 116.5 24t82 65.5t49 95.5t17.5 114l-16 5q-15 -86 -74.5 -126t-174.5 -40z" />
    <glyph glyph-name="uni043A" unicode="&#x43a;" horiz-adv-x="1153" 
d="M864 909l-477 -488v489l155 72v18h-508v-18l156 -72v-820l-156 -72v-18h508v18l-155 72v271l118 115l305 -476h303v18l-126 65l-361 504l303 322l157 79v12h-382v-12z" />
    <glyph glyph-name="uni043B" unicode="&#x43b;" horiz-adv-x="1243" 
d="M1204 982v18h-956v-18l154 -72v-139t-2 -133.5t-6.5 -136t-13.5 -145.5q-8 -65 -23.5 -126t-37 -108.5t-48.5 -76t-58 -28.5q-19 0 -36 15.5t-31.5 40t-27 54t-21.5 57.5h-12l-3 -161q22 -18 50.5 -29t76.5 -11q41 0 76 27t63 76t47.5 117.5t30.5 150.5q10 78 15 150.5
t7 144.5t2.5 147.5t0.5 160.5h401v-867h-1l-136 -72v-18h488v18l-155 71v821z" />
    <glyph glyph-name="uni043C" unicode="&#x43c;" horiz-adv-x="1366" 
d="M682 296l-337 704h-329v-18l156 -72v-817l-139 -75v-18h335v18l-158 75v745l369 -762l44 10l366 748v-744l-136 -72v-18h488v18l-155 72v820l155 72v18h-314z" />
    <glyph glyph-name="uni043D" unicode="&#x43d;" horiz-adv-x="1216" 
d="M828 506h-438v404l136 72v18h-488v-18l156 -72v-820l-156 -72v-18h488v18l-136 72v372h438v-372h-2l-135 -72v-18h487v18l-154 71v821l154 72v18h-487v-18l135 -72h2v-404z" />
    <glyph glyph-name="uni043E" unicode="&#x43e;" horiz-adv-x="1183" 
d="M591 1027q-111 0 -206 -39.5t-164.5 -110t-109.5 -167t-40 -209.5q0 -114 40 -210.5t109.5 -166.5t164.5 -109t206 -39q112 0 207.5 39t165 109t109 166.5t39.5 210.5q0 113 -39.5 209.5t-109 167t-165 110t-207.5 39.5zM286 501q0 112 21.5 203t61.5 155.5t96 99.5
t126 35q69 0 125.5 -35t96.5 -99.5t62 -155.5t22 -203q0 -113 -21.5 -204t-61.5 -155.5t-96.5 -99t-126.5 -34.5t-126.5 34.5t-96 99t-61 155.5t-21.5 204z" />
    <glyph glyph-name="uni043F" unicode="&#x43f;" horiz-adv-x="1210" 
d="M1017 910l156 72v18h-1141v-18l155 -72v-820l-156 -72v-18h488v18l-135 72v867h437v-867l-136 -72v-18h488v18l-156 72v820z" />
    <glyph glyph-name="uni0440" unicode="&#x440;" horiz-adv-x="1198" 
d="M600 8q-68 0 -125.5 41t-95.5 129v656q41 49 97.5 76.5t124.5 27.5q71 0 128.5 -30t98 -88t62.5 -142t22 -192q0 -107 -21.5 -195t-62 -151t-98 -97.5t-130.5 -34.5zM1127 530q0 113 -31.5 205t-87.5 157t-134.5 100t-173.5 35q-97 0 -179 -38t-142 -111v138l-12 11
l-323 -74v-19l138 -58v-1202l-155 -72v-18h525v18l-173 72v389q16 -16 40 -31.5t54.5 -28t67.5 -20t79 -7.5q122 0 216.5 43t159 118t98 176t33.5 217z" />
    <glyph glyph-name="uni0441" unicode="&#x441;" horiz-adv-x="1019" 
d="M605 1027q-114 0 -211.5 -39.5t-169 -111.5t-112.5 -174.5t-41 -228.5q0 -112 34.5 -204t95.5 -157t146 -100.5t185 -35.5q143 0 248.5 60t168.5 159l-12 14q-27 -27 -63 -49.5t-77 -38t-85.5 -24t-88.5 -8.5q-82 0 -145 32t-105.5 91t-64.5 142.5t-22 187.5
q0 102 19.5 185t58.5 142t98.5 91.5t139.5 33.5q15 0 31.5 -2t30.5 -4.5t24 -5t13 -3.5q20 -24 39 -56t38.5 -68.5t38.5 -76t37 -78.5h18l42 267q-24 9 -59.5 19.5t-77.5 19.5t-86.5 15t-85.5 6z" />
    <glyph glyph-name="uni0442" unicode="&#x442;" horiz-adv-x="892" 
d="M544 957h127l177 -234h7v277h-819v-277h7l177 234h127v-867l-136 -72v-18h488v18l-155 72v867z" />
    <glyph glyph-name="uni0443" unicode="&#x443;" horiz-adv-x="995" 
d="M721 981l125 -73l-267 -702l-263 702l131 73v19h-456v-19l106 -72l378 -953l-55 -128q-26 -45 -73.5 -70t-99 -39t-98 -21t-70.5 -16l-5 -17l118 -170q22 7 54.5 29t74 73t89.5 138.5t102 224.5l371 948l108 73v19h-270v-19z" />
    <glyph glyph-name="uni0444" unicode="&#x444;" horiz-adv-x="1329" 
d="M276 501q0 239 75.5 360.5t214.5 131.5v-984q-139 10 -214.5 130.5t-75.5 361.5zM1053 501q0 -241 -75.5 -361t-214.5 -131v984q137 -10 213.5 -131.5t76.5 -360.5zM456 1428v-13l110 -67v-322q-106 -4 -196.5 -38.5t-156.5 -100t-103.5 -162t-37.5 -224.5
q0 -129 37.5 -226t103.5 -162t156.5 -98.5t196.5 -37.5v-302l-155 -72v-18h507v18l-155 72v302q107 3 197.5 37t156.5 99t103.5 162t37.5 226q0 128 -37.5 225t-103.5 162t-156.5 99.5t-197.5 38.5v465l-12 11z" />
    <glyph glyph-name="uni0445" unicode="&#x445;" horiz-adv-x="1092" 
d="M601 0h483v18l-143 76l-319 457l272 358l131 72v19h-308v-19l118 -72l-239 -320l-214 320l113 72v19h-487v-19l125 -61l316 -448l-288 -382l-138 -72v-18h302v18l-107 72l257 343l235 -343l-109 -72v-18z" />
    <glyph glyph-name="uni0446" unicode="&#x446;" horiz-adv-x="1210" 
d="M1017 910l156 72v18h-488v-18l136 -72v-867h-437v867l135 72v18h-488v-18l156 -72v-820l-155 -72v-18h973l170 -232h7v275h-165v867z" />
    <glyph glyph-name="uni0447" unicode="&#x447;" horiz-adv-x="1230" 
d="M703 18v-18h488v18l-155 72v820l155 72v18h-507v-18l155 -72v-435q-52 -54 -116 -80t-134 -26q-114 0 -171.5 61.5t-57.5 162.5v317l156 72v18h-508v-18l155 -72h1v-337q0 -67 23 -122.5t64.5 -95.5t99 -62t127.5 -22q105 0 197 43t164 117v-341z" />
    <glyph glyph-name="uni0448" unicode="&#x448;" horiz-adv-x="1739" 
d="M958 43v867l155 72v18h-487v-18l135 -72h1v-867h-378v867l135 72v18h-488v-18l156 -72v-820l-155 -72v-18h1666v18l-156 72v820l156 72v18h-488v-18l136 -72v-867h-388z" />
    <glyph glyph-name="uni0449" unicode="&#x449;" horiz-adv-x="1739" 
d="M1346 910v-867h-388v867l155 72v18h-487v-18l135 -72h1v-867h-378v867l135 72v18h-488v-18l156 -72v-820l-155 -72v-18h1503l170 -232h7v275h-170v867l156 72v18h-488v-18z" />
    <glyph glyph-name="uni044A" unicode="&#x44a;" horiz-adv-x="1078" 
d="M480 492h134q114 0 166.5 -58t52.5 -164q0 -110 -55 -168.5t-171 -58.5h-127v449zM480 910l155 72v18h-620v-266h7l170 234h91v-878l-156 -72v-18h471q106 0 189 14.5t140 46t87 82.5t30 123q0 77 -32 129t-89.5 83t-136.5 44t-173 13h-133v375z" />
    <glyph glyph-name="uni044B" unicode="&#x44b;" horiz-adv-x="1495" 
d="M521 492q114 0 166.5 -58t52.5 -164q0 -110 -55 -168.5t-171 -58.5h-127v449h134zM190 90l-156 -72v-18h471q106 0 189 14.5t140 46t87 82.5t30 123q0 77 -32 129t-89.5 83t-136.5 44t-173 13h-133v375l135 72v18h-488v-18l156 -72v-820zM1453 18l-154 71v821l154 72v18
h-487v-18l135 -72h2v-820h-2l-135 -72v-18h487v18z" />
    <glyph glyph-name="uni044C" unicode="&#x44c;" horiz-adv-x="985" 
d="M740 270q0 -110 -55 -168.5t-171 -58.5h-127v449h134q114 0 166.5 -58t52.5 -164zM34 982l156 -72v-820l-156 -72v-18h471q106 0 189 14.5t140 46t87 82.5t30 123q0 77 -32 129t-89.5 83t-136.5 44t-173 13h-133v375l135 72v18h-488v-18z" />
    <glyph glyph-name="uni044D" unicode="&#x44d;" horiz-adv-x="1038" 
d="M248 536v-43h515q0 -109 -21.5 -197t-61.5 -149.5t-98 -94.5t-132 -33q-19 0 -40.5 2.5t-45.5 8.5l-5 4q-57 23 -97 61t-66.5 79.5t-41 79.5t-21.5 61h-14l19 -273q72 -28 143.5 -45.5t144.5 -19.5q8 -1 16.5 -1h16.5q114 0 209 38.5t163 107.5t106 164t38 207
q0 113 -36 210.5t-103 169.5t-163 113t-215 41q-26 0 -50 -3q-68 -5 -134.5 -21t-135.5 -42l-19 -273h14q7 24 21.5 62t41 79t66 78.5t97.5 61.5l1 1q52 13 99 13q72 0 127 -32.5t93 -92t59 -141.5t24 -181h-514z" />
    <glyph glyph-name="uni044E" unicode="&#x44e;" horiz-adv-x="1713" 
d="M818 501q0 112 19.5 203t58 155.5t95.5 99.5t132 35t132.5 -35t96.5 -99.5t58.5 -155.5t19.5 -203q0 -113 -19.5 -204t-58 -155.5t-96 -99t-132.5 -34.5q-76 0 -133 34.5t-95.5 99t-58 155.5t-19.5 204zM53 982l136 -72h1v-820h-1l-136 -72v-18h488v18l-155 71v404h218
q2 -113 42 -208t109.5 -163.5t163.5 -107t204 -38.5q112 0 207.5 39t165 109t109 166.5t39.5 210.5q0 113 -39.5 209.5t-109 167t-165 110t-207.5 39.5q-106 0 -198 -37t-161 -102t-111 -155t-48 -197h-219v374l155 72v18h-488v-18z" />
    <glyph glyph-name="uni044F" unicode="&#x44f;" horiz-adv-x="1037" 
d="M645 90l-116 -72v-18h468v18l-155 72v820l155 72v18h-515q-92 0 -161.5 -18t-116 -51t-70 -79.5t-23.5 -102.5q0 -65 23 -112.5t61.5 -80.5t89 -52.5t106.5 -29.5q-23 -8 -45 -13t-54 -9l-254 -444v-8h228l217 464q14 -1 28.5 -1.5t28.5 -0.5h53l6 43h-64q-58 0 -99.5 16
t-67 47t-37.5 75t-12 100q0 102 48 158t159 56h120v-867h-1z" />
    <glyph glyph-name="uni0451" unicode="&#x451;" horiz-adv-x="1022" 
d="M543 992q109 0 167 -92.5t58 -276.5l-486 -22q5 88 24.5 160t53.5 123.5t80 79.5t103 28zM940 209q-27 -27 -62 -49t-76.5 -37.5t-87 -24.5t-92.5 -9q-83 0 -146.5 30.5t-107 87.5t-66 138.5t-23.5 183.5v24.5t2 22.5h690q0 94 -28 176.5t-81.5 143.5t-131.5 96t-178 35
q-104 0 -192 -39.5t-152 -112t-100 -173.5t-36 -224q0 -111 33 -203.5t93.5 -159t145 -103t187.5 -36.5q146 0 252 60t171 159zM458 1238q0 46 -31 76t-81 30q-47 0 -78 -29.5t-31 -76.5t31 -77t78 -30q50 0 81 30.5t31 76.5zM738 1131q50 0 80 30t30 77t-31 76.5t-79 29.5
t-79 -29.5t-31 -76.5t31 -77t79 -30z" />
    <glyph glyph-name="uni0452" unicode="&#x452;" horiz-adv-x="1252" 
d="M713 -415q94 21 160 69.5t108 117t61.5 152.5t19.5 175v625q0 67 -23 123t-64.5 96t-99.5 62t-128 22q-106 0 -197 -43.5t-163 -116.5v308h148v43h-148v273l-12 11l-295 -74v-13l110 -67v-130h-112v-43h112v-1085l-156 -72v-18h508v18l-155 72v733q52 54 115.5 79.5
t133.5 25.5q114 0 172 -61.5t58 -162.5v-760q0 -120 -41 -200.5t-118 -141.5z" />
    <glyph glyph-name="uni0453" unicode="&#x453;" horiz-adv-x="873" 
d="M31 0h527v18l-175 72v867h258l170 -223h7v266h-787v-18l156 -72v-820l-156 -72v-18zM555 1408l-135 -304h16l340 290l-7 14h-214z" />
    <glyph glyph-name="uni0454" unicode="&#x454;" horiz-adv-x="1038" 
d="M917 315q-7 -23 -22 -61t-41.5 -79.5t-66.5 -79.5t-97 -61l-6 -4q-24 -6 -45.5 -8.5t-39.5 -2.5q-75 0 -133 33t-98 94.5t-61 149.5t-21 197h515v43h-515q4 99 25 181t59 141.5t93.5 92t127.5 32.5q22 0 46.5 -3t50.5 -10l2 -1q58 -24 98 -61.5t66 -78.5t41 -79t22 -62
h14l-20 273q-69 26 -135.5 42t-135.5 21q-24 3 -49 3q-119 0 -215 -41t-163 -113t-103 -169.5t-36 -210.5q0 -112 38 -207t106 -164t163 -107.5t209 -38.5h16t16 1q74 2 145.5 19.5t143.5 45.5l20 273h-14z" />
    <glyph glyph-name="uni0455" unicode="&#x455;" horiz-adv-x="886" 
d="M772 968q-29 12 -65.5 22.5t-75.5 18.5t-79.5 13t-76.5 5q-82 0 -152 -16.5t-121.5 -51t-80.5 -87t-29 -123.5q0 -66 28.5 -114.5t73 -85.5t99 -65.5t106.5 -54.5q55 -27 102.5 -51t82.5 -51t55 -60.5t20 -79.5q0 -35 -10.5 -67.5t-35 -57t-65.5 -39.5t-102 -15
q-34 0 -70.5 4.5t-61.5 10.5q-24 22 -46.5 55.5t-42.5 71t-36.5 74.5t-28.5 67h-18l-61 -239q27 -14 67.5 -27.5t87 -24.5t97 -17.5t98.5 -6.5q86 0 159 18t125.5 54t82 89.5t29.5 124.5q0 62 -28.5 109t-75 85.5t-104 69.5t-116.5 60q-51 25 -95 49.5t-76.5 51.5
t-51.5 58.5t-19 70.5q0 34 11.5 66t36 57t63 40t92.5 15q27 0 55.5 -3t42.5 -8q16 -16 34.5 -42.5t38 -59t40 -69.5t39.5 -73h17z" />
    <glyph glyph-name="uni0456" unicode="&#x456;" horiz-adv-x="576" 
d="M52 953v-18l138 -59v-786l-156 -72v-18h508v18l-155 72v926l-12 11zM161 1339q0 -51 33.5 -83t85.5 -32q54 0 87.5 32t33.5 83q0 49 -33.5 82t-87.5 33q-52 0 -85.5 -32.5t-33.5 -82.5z" />
    <glyph glyph-name="uni0457" unicode="&#x457;" horiz-adv-x="576" 
d="M52 953v-18l138 -59v-786l-156 -72v-18h508v18l-155 72v926l-12 11zM203 1261q0 46 -31 76t-81 30q-47 0 -78 -29.5t-31 -76.5t31 -77t78 -30q50 0 81 30.5t31 76.5zM483 1154q50 0 80 30t30 77t-31 76.5t-79 29.5t-79 -29.5t-31 -76.5t31 -77t79 -30z" />
    <glyph glyph-name="uni0458" unicode="&#x458;" horiz-adv-x="508" 
d="M164 876v-932q0 -120 -40.5 -200.5t-117.5 -141.5l5 -17q94 21 160.5 69.5t108.5 117t61.5 152.5t19.5 175v917l-12 11l-323 -74v-18zM255 1224q53 0 86 32t33 83q0 49 -33 82t-86 33q-54 0 -87.5 -32.5t-33.5 -82.5q0 -51 33.5 -83t87.5 -32z" />
    <glyph glyph-name="uni0459" unicode="&#x459;" horiz-adv-x="1680" 
d="M1192 492q114 0 167 -58t53 -164q0 -110 -55 -168.5t-172 -58.5h-127v449h134zM1194 1000h-936v-18l155 -72q0 -71 -0.5 -138t-2.5 -134t-6.5 -136.5t-13.5 -145.5q-8 -65 -23.5 -126t-37 -108.5t-48.5 -76t-58 -28.5q-19 0 -36 15.5t-31.5 40t-26.5 54t-21 57.5h-13
l-2 -161q22 -18 50.5 -29t76.5 -11q41 0 76 27t62.5 76t47.5 117.5t31 150.5q10 79 15 151t7 144t2 147.5v160.5h401v-867l-137 -72v-18h451q106 0 189 14.5t140.5 46t87.5 82.5t30 123q0 77 -32 129t-89.5 83t-137 44t-173.5 13h-133v375l136 72v18z" />
    <glyph glyph-name="uni045A" unicode="&#x45a;" horiz-adv-x="1624" 
d="M1155 492q114 0 167 -58t53 -164q0 -110 -55.5 -168.5t-171.5 -58.5h-127v449h134zM1139 0q106 0 189 14.5t140 46t87 82.5t30 123q0 77 -32 129t-89.5 83t-136.5 44t-173 13h-133v375l136 72v18h-488v-18l156 -72v-375h-437v375l135 72v18h-487v-18l155 -72v-820
l-155 -72v-18h487v18l-135 72v402h437v-402l-137 -72v-18h451z" />
    <glyph glyph-name="uni045B" unicode="&#x45b;" horiz-adv-x="1252" 
d="M387 90v733q52 54 115.5 79.5t133.5 25.5q114 0 172 -61.5t58 -162.5v-614l-156 -72v-18h508v18l-156 72v634q0 67 -23 123t-64.5 96t-99.5 62t-128 22q-106 0 -197 -43.5t-163 -116.5v308h148v43h-148v273l-12 11l-295 -74v-13l110 -67v-130h-112v-43h112v-1085
l-156 -72v-18h508v18z" />
    <glyph glyph-name="uni045C" unicode="&#x45c;" horiz-adv-x="1153" 
d="M864 909l-477 -488v489l155 72v18h-508v-18l156 -72v-820l-156 -72v-18h508v18l-155 72v271l118 115l305 -476h303v18l-126 65l-361 504l303 322l157 79v12h-382v-12zM724 1427l-135 -304h16l340 290l-7 14h-214z" />
    <glyph glyph-name="uni045E" unicode="&#x45e;" horiz-adv-x="1005" 
d="M731 981l125 -73l-267 -702l-263 702l131 73v19h-456v-19l106 -72l378 -953l-55 -128q-26 -45 -73.5 -70t-99 -39t-98 -21t-70.5 -16l-5 -17l118 -170q22 7 54.5 29t74 73t89.5 138.5t102 224.5l371 948l108 73v19h-270v-19zM545 1263q-114 0 -172.5 40t-72.5 126l-17 -5
q1 -60 17.5 -114t49 -95.5t81 -65.5t114.5 -24q67 0 116.5 24t82 65.5t49 95.5t17.5 114l-16 5q-15 -86 -74.5 -126t-174.5 -40z" />
    <glyph glyph-name="uni045F" unicode="&#x45f;" horiz-adv-x="1210" 
d="M821 910v-867h-437v867l135 72v18h-488v-18l156 -72v-820l-155 -72v-18h455l107 -232h7l108 232h463v18l-155 72v820l156 72v18h-488v-18z" />
    <glyph glyph-name="uni0490" unicode="&#x490;" horiz-adv-x="1136" 
d="M42 0h559v19l-184 93v1284h638v366h-9l-172 -323h-832v-19l163 -93v-1216l-163 -92v-19z" />
    <glyph glyph-name="uni0491" unicode="&#x491;" horiz-adv-x="873" 
d="M189 910v-821l-156 -71v-18h528v18l-176 72v867h435v275h-7l-170 -232h-609v-18z" />
    <glyph glyph-name="Wgrave" unicode="&#x1e80;" horiz-adv-x="2065" 
d="M1822 1327h8l-336 -1110l-332 1109h6l177 94v19h-556v-19l144 -92l79 -251l-280 -857l-309 1106h1l167 94v19h-562v-19l160 -92l403 -1328h113l329 1007l318 -1007h121l403 1329l178 90v20h-430v-20zM940 1917h-214l-7 -14l340 -290h16z" />
    <glyph glyph-name="wgrave" unicode="&#x1e81;" horiz-adv-x="1515" 
d="M996 1000h-399v-19l120 -75l27 -94l-208 -579l-208 676l123 72v19h-437v-19l106 -73l305 -908h65l271 743l238 -743h65l320 908l124 73v19h-295v-19l124 -72l-228 -667l-170 544l-42 122l99 73v19zM661 1466h-214l-7 -14l340 -290h16z" />
    <glyph glyph-name="Wacute" unicode="&#x1e82;" horiz-adv-x="2065" 
d="M1822 1327h8l-336 -1110l-332 1109h6l177 94v19h-556v-19l144 -92l79 -251l-280 -857l-309 1106h1l167 94v19h-562v-19l160 -92l403 -1328h113l329 1007l318 -1007h121l403 1329l178 90v20h-430v-20zM1183 1901l-135 -304h16l340 290l-7 14h-214z" />
    <glyph glyph-name="wacute" unicode="&#x1e83;" horiz-adv-x="1515" 
d="M996 1000h-399v-19l120 -75l27 -94l-208 -579l-208 676l123 72v19h-437v-19l106 -73l305 -908h65l271 743l238 -743h65l320 908l124 73v19h-295v-19l124 -72l-228 -667l-170 544l-42 122l99 73v19zM849 1453l-135 -304h16l340 290l-7 14h-214z" />
    <glyph glyph-name="Wdieresis" unicode="&#x1e84;" horiz-adv-x="2065" 
d="M1822 1327h8l-336 -1110l-332 1109h6l177 94v19h-556v-19l144 -92l79 -251l-280 -857l-309 1106h1l167 94v19h-562v-19l160 -92l403 -1328h113l329 1007l318 -1007h121l403 1329l178 90v20h-430v-20zM963 1721q0 46 -31 76t-81 30q-47 0 -78 -29.5t-31 -76.5t31 -77
t78 -30q50 0 81 30.5t31 76.5zM1243 1614q50 0 80 30t30 77t-31 76.5t-79 29.5t-79 -29.5t-31 -76.5t31 -77t79 -30z" />
    <glyph glyph-name="wdieresis" unicode="&#x1e85;" horiz-adv-x="1515" 
d="M996 1000h-399v-19l120 -75l27 -94l-208 -579l-208 676l123 72v19h-437v-19l106 -73l305 -908h65l271 743l238 -743h65l320 908l124 73v19h-295v-19l124 -72l-228 -667l-170 544l-42 122l99 73v19zM673 1339q0 46 -31 76t-81 30q-47 0 -78 -29.5t-31 -76.5t31 -77t78 -30
q50 0 81 30.5t31 76.5zM953 1232q50 0 80 30t30 77t-31 76.5t-79 29.5t-79 -29.5t-31 -76.5t31 -77t79 -30z" />
    <glyph glyph-name="Germandbls" unicode="&#x1e9e;" horiz-adv-x="1247" 
d="M570 798q81 -52 158.5 -111t138 -128t98 -150t37.5 -177q0 -47 -11.5 -86.5t-31.5 -68.5t-48.5 -45t-61.5 -16q-91 6 -158 59.5t-124 145.5h-19q0 -46 1 -91.5t1 -91.5q48 -23 117 -42.5t150 -19.5q80 0 146.5 20t115 57.5t77.5 91.5t33 123q5 67 -14 128.5t-54.5 117
t-84 105.5t-102.5 94t-110.5 81.5t-107.5 69.5l367 451v40q-53 27 -112.5 46t-119.5 31t-118.5 17.5t-108.5 5.5q-80 0 -157 -12.5t-137 -52.5t-96.5 -115t-36.5 -201v-74h-141v-32h140v-878l-156 -72v-18h480v18l-127 71v1021q0 86 14.5 143t43 91.5t71.5 48.5t100 14
q41 0 84.5 -5.5t86.5 -16.5t83 -27.5t73 -39.5l-377 -480z" />
    <glyph glyph-name="Ygrave" unicode="&#x1ef2;" horiz-adv-x="1386" 
d="M777 721l-351 605h1l151 92v21h-565v-21l177 -92l397 -687v-527l-163 -93v-19h538v19l-163 93v562l400 653h1l190 91v21h-454v-21l210 -94zM736 1968h-214l-7 -14l340 -290h16z" />
    <glyph glyph-name="ygrave" unicode="&#x1ef3;" horiz-adv-x="995" 
d="M721 981l125 -73l-267 -702l-263 702l131 73v19h-456v-19l106 -72l378 -953l-55 -128q-26 -45 -73.5 -70t-99 -39t-98 -21t-70.5 -16l-5 -17l118 -170q22 7 54.5 29t74 73t89.5 138.5t102 224.5l371 948l108 73v19h-270v-19zM476 1453h-214l-7 -14l340 -290h16z" />
    <glyph glyph-name="figuredash" unicode="&#x2012;" horiz-adv-x="1133" 
d="M95 535h943v45h-943v-45z" />
    <glyph glyph-name="endash" unicode="&#x2013;" horiz-adv-x="1133" 
d="M95 535h943v45h-943v-45z" />
    <glyph glyph-name="emdash" unicode="&#x2014;" horiz-adv-x="1682" 
d="M1588 535v45h-1493v-45h1493z" />
    <glyph glyph-name="quoteleft" unicode="&#x2018;" horiz-adv-x="474" 
d="M361 1462q-58 -26 -108 -58.5t-86 -72t-56.5 -87.5t-20.5 -105q0 -70 20 -116.5t56 -72.5l177 91q-36 38 -54.5 83t-18.5 87q0 30 5.5 61.5t18 62.5t32 58.5t47.5 48.5z" />
    <glyph glyph-name="quoteright" unicode="&#x2019;" horiz-adv-x="474" 
d="M93 1371q36 -38 54.5 -82.5t18.5 -86.5q0 -30 -5.5 -62t-18 -63t-32 -58.5t-47.5 -48.5l12 -20q58 26 107.5 58.5t86 72t57 87.5t20.5 105q0 70 -20.5 116.5t-55.5 72.5z" />
    <glyph glyph-name="quotesinglbase" unicode="&#x201a;" horiz-adv-x="474" 
d="M93 103q36 -38 54.5 -82.5t18.5 -86.5q0 -30 -5.5 -62t-18 -63t-32 -58.5t-47.5 -48.5l12 -20q58 26 107.5 58.5t86 72t57 87.5t20.5 105q0 70 -20.5 116.5t-55.5 72.5z" />
    <glyph glyph-name="quotedblleft" unicode="&#x201c;" horiz-adv-x="777" 
d="M90 1139q0 -70 20 -116.5t56 -72.5l177 91q-36 38 -54.5 83t-18.5 87q0 30 5.5 61.5t18 62.5t32 58.5t47.5 48.5l-12 20q-58 -26 -108 -58.5t-86 -72t-56.5 -87.5t-20.5 -105zM420 1139q0 -70 20 -116.5t56 -72.5l177 91q-36 38 -54.5 83t-18.5 87q0 30 5.5 61.5t18 62.5
t32 58.5t47.5 48.5l-12 20q-58 -26 -108 -58.5t-86 -72t-56.5 -87.5t-20.5 -105z" />
    <glyph glyph-name="quotedblright" unicode="&#x201d;" horiz-adv-x="761" 
d="M77 952q59 26 108.5 58.5t85.5 72t56.5 87.5t20.5 105q0 70 -20 116.5t-56 72.5l-176 -91q35 -38 53.5 -82.5t18.5 -86.5q0 -30 -5.5 -62t-18 -63t-32 -58.5t-47.5 -48.5zM412 952q59 26 108.5 58.5t85.5 72t56.5 87.5t20.5 105q0 70 -20 116.5t-56 72.5l-176 -91
q35 -38 53.5 -82.5t18.5 -86.5q0 -30 -5.5 -62t-18 -63t-32 -58.5t-47.5 -48.5z" />
    <glyph glyph-name="quotedblbase" unicode="&#x201e;" horiz-adv-x="761" 
d="M75 -318q58 26 107.5 58.5t86 72t57 87.5t20.5 105q0 70 -20.5 116.5t-55.5 72.5l-177 -91q36 -38 54.5 -82.5t18.5 -86.5q0 -30 -5.5 -62t-18 -63t-32 -58.5t-47.5 -48.5zM410 -318q58 26 107.5 58.5t86 72t57 87.5t20.5 105q0 70 -20.5 116.5t-55.5 72.5l-177 -91
q36 -38 54.5 -82.5t18.5 -86.5q0 -30 -5.5 -62t-18 -63t-32 -58.5t-47.5 -48.5z" />
    <glyph glyph-name="dagger" unicode="&#x2020;" horiz-adv-x="847" 
d="M404 1102l-304 68v-178l306 68l-62 -379l67 -420h27l67 420l-63 380l306 -69v178l-304 -68l75 337h-188z" />
    <glyph glyph-name="daggerdbl" unicode="&#x2021;" horiz-adv-x="847" 
d="M748 150v179l-304 -68l61 415l-63 385l306 -69v178l-304 -68l75 337h-188l73 -337l-304 68v-178l306 68l-62 -384l62 -415l-306 68v-179l304 68l-73 -336h188l-74 336z" />
    <glyph glyph-name="bullet" unicode="&#x2022;" horiz-adv-x="637" 
d="M128 560q0 -40 14 -74t39.5 -59t60.5 -39t76 -14t75.5 14t60 39t40 59t14.5 74q0 41 -14 75.5t-39.5 59t-60.5 38.5t-76 14t-76 -14t-60.5 -38.5t-39.5 -59t-14 -75.5z" />
    <glyph glyph-name="ellipsis" unicode="&#x2026;" horiz-adv-x="1310" 
d="M662 227q-57 0 -93.5 -35t-36.5 -91q0 -28 10 -51t27.5 -39.5t41 -25.5t51.5 -9q58 0 94 34.5t36 90.5t-36 91t-94 35zM99 101q0 -28 10 -51t27.5 -39.5t41 -25.5t51.5 -9q58 0 94 34.5t36 90.5t-36 91t-94 35q-28 0 -51.5 -9.5t-41 -26t-27.5 -39.5t-10 -51zM964 101
q0 -28 10 -51t27.5 -39.5t41 -25.5t51.5 -9q58 0 94 34.5t36 90.5t-36 91t-94 35q-28 0 -51.5 -9.5t-41 -26t-27.5 -39.5t-10 -51z" />
    <glyph glyph-name="perthousand" unicode="&#x2030;" horiz-adv-x="2068" 
d="M1435 347q0 -81 22.5 -149t61.5 -117.5t92.5 -77.5t116.5 -28q64 0 118.5 28t94.5 77.5t62.5 117.5t22.5 149t-22.5 149t-62.5 117.5t-94.5 77t-118.5 27.5q-63 0 -116.5 -27.5t-93 -77t-61.5 -117.5t-22 -149zM1094 718q-63 0 -117 -27.5t-93 -77t-61.5 -117.5
t-22.5 -149t22.5 -149t61.5 -117.5t93 -77.5t117 -28t117.5 28t94.5 77.5t62.5 117.5t22.5 149t-22.5 149t-62.5 117.5t-94.5 77t-117.5 27.5zM334 698q63 0 117.5 28t94.5 77.5t62.5 117.5t22.5 149t-22.5 149t-62.5 117.5t-94.5 77t-117.5 27.5t-117 -27.5t-93 -77
t-61.5 -117.5t-22.5 -149t22.5 -149t61.5 -117.5t93 -77.5t117 -28zM1243 347q0 -81 -9 -145.5t-27 -109.5t-46 -69t-67 -24t-66.5 24t-45 69t-26 109.5t-8.5 145.5q0 80 8.5 144.5t26 109.5t45 69.5t66.5 24.5t67 -24.5t46 -69.5t27 -109.5t9 -144.5zM188 1070
q0 80 8.5 144.5t26 109.5t45 69t66.5 24t67 -24.5t46 -69.5t27 -109t9 -144q0 -81 -9 -145.5t-27 -109.5t-46 -69.5t-67 -24.5t-66.5 24.5t-45 69.5t-26 109.5t-8.5 145.5zM1728 695q39 0 67 -24.5t46.5 -69.5t27 -109.5t8.5 -144.5q0 -81 -8.5 -145.5t-27 -109.5t-46.5 -69
t-67 -24q-38 0 -65.5 24t-45 69t-26 109.5t-8.5 145.5q0 80 8.5 144.5t26 109.5t45 69.5t65.5 24.5zM159 -5l44 -34l1077 1494l-49 33z" />
    <glyph glyph-name="guilsinglleft" unicode="&#x2039;" horiz-adv-x="535" 
d="M221 515l227 353l-35 27l-323 -367v-28l323 -365l35 26z" />
    <glyph glyph-name="guilsinglright" unicode="&#x203a;" horiz-adv-x="535" 
d="M448 500v28l-323 367l-35 -27l227 -353l-227 -354l35 -26z" />
    <glyph glyph-name="exclamdbl" unicode="&#x203c;" horiz-adv-x="950" 
d="M266 415l103 1024h-231l103 -1024h25zM716 415l103 1024h-231l103 -1024h25zM123 115q0 -57 37 -92t94 -35t94 35t37 92q0 56 -37 91.5t-94 35.5t-94 -35.5t-37 -91.5zM835 115q0 56 -37 91.5t-94 35.5t-94 -35.5t-37 -91.5q0 -57 37 -92t94 -35t94 35t37 92z" />
    <glyph glyph-name="fraction" unicode="&#x2044;" horiz-adv-x="473" 
d="M-280 -39l1077 1494l-49 33l-1072 -1493z" />
    <glyph glyph-name="uni2070" unicode="&#x2070;" horiz-adv-x="679" 
d="M640 1205q0 81 -23 149.5t-64 117.5t-96 76.5t-120 27.5q-64 0 -118.5 -27.5t-94.5 -76.5t-62.5 -117.5t-22.5 -149.5t22.5 -149t62.5 -117.5t94.5 -77.5t118.5 -28q65 0 120 28t96 77.5t64 117.5t23 149zM201 1205q0 81 7.5 145t24 109t42.5 68.5t62 23.5
q37 0 63.5 -23.5t44 -68.5t25.5 -109t8 -145t-8 -145t-25.5 -109t-44 -68.5t-63.5 -23.5q-36 0 -62 23.5t-42.5 68.5t-24 109t-7.5 145z" />
    <glyph glyph-name="uni2074" unicode="&#x2074;" horiz-adv-x="595" 
d="M70 1093l219 315v-315h-219zM438 1043h102v50h-102v472h-67l-363 -505l6 -17h274v-116l-71 -73v-9h292v9l-71 73v116z" />
    <glyph glyph-name="uni2075" unicode="&#x2075;" horiz-adv-x="557" 
d="M493 1565h-374l-46 -351l16 -9q25 8 43 11t46 3q100 0 150.5 -50.5t50.5 -135.5q0 -78 -36.5 -126t-102.5 -48q-31 0 -58 16.5t-50 45t-42 67t-34 83.5h-9v-193q33 -20 83.5 -32.5t109.5 -12.5q60 0 112.5 15.5t91.5 45t61 72t22 96.5t-24.5 97.5t-66 74t-97 47.5
t-117.5 17q-34 0 -60 -2.5t-49 -9.5l21 167h359v112z" />
    <glyph glyph-name="uni2076" unicode="&#x2076;" horiz-adv-x="620" 
d="M317 859q-31 0 -54 17t-38 47.5t-22 74t-7 96.5q0 27 2 55t6 50q21 31 50 45.5t63 14.5q59 0 88.5 -46.5t29.5 -145.5q0 -102 -30.5 -155t-87.5 -53zM211 1235q21 104 87.5 191t195.5 145l-7 11q-122 -29 -207.5 -78.5t-139.5 -111.5t-78.5 -133t-24.5 -143
q0 -61 20 -113t56 -89.5t87 -59t114 -21.5q60 0 111 19t88.5 53t58.5 82t21 105q0 50 -16.5 91t-45.5 70t-68 45t-84 16q-58 0 -98.5 -22t-69.5 -57z" />
    <glyph glyph-name="uni2077" unicode="&#x2077;" horiz-adv-x="525" 
d="M458 1448q-60 -81 -117 -158.5t-106.5 -151.5t-89 -144.5t-65.5 -138.5v-10h151q56 187 135.5 352.5t161.5 313.5l-7 54h-485v-118z" />
    <glyph glyph-name="uni2078" unicode="&#x2078;" horiz-adv-x="611" 
d="M302 859q-72 0 -109 39.5t-37 113.5q0 51 20 93.5t67 69.5q6 -4 12 -6.5t11 -4.5q45 -21 79 -39.5t57 -38t34.5 -42.5t11.5 -52q0 -63 -38 -98t-108 -35zM426 1418q0 -43 -16 -81t-56 -65q-41 19 -72 36t-51.5 35t-30.5 39.5t-10 48.5q0 55 30 87.5t88 32.5
q59 0 88.5 -34.5t29.5 -98.5zM577 1036q-1 64 -42 118t-142 101q40 8 69 23.5t48 35.5t28 43.5t9 47.5q0 38 -17.5 69.5t-49 54t-76 35t-98.5 12.5q-55 0 -100.5 -14t-77.5 -39t-49.5 -60.5t-17.5 -79.5q0 -57 33 -104t111 -88q-88 -16 -130.5 -64t-42.5 -107
q0 -42 19.5 -76.5t55.5 -59t86 -38t110 -13.5t110.5 14t86.5 40t56.5 63.5t20.5 85.5z" />
    <glyph glyph-name="uni2079" unicode="&#x2079;" horiz-adv-x="619" 
d="M185 1348q0 102 30 155t87 53q32 0 55 -17t38 -47.5t22 -74t7 -96.5q0 -26 -2 -54.5t-6 -49.5q-21 -32 -50 -47t-63 -15q-118 0 -118 193zM409 1180q-21 -103 -87.5 -190.5t-195.5 -145.5l6 -11q122 29 208 78t140 111t78.5 133t24.5 143q0 62 -20 114t-56.5 89.5
t-87.5 59t-114 21.5q-60 0 -110.5 -19t-88 -53t-58.5 -81.5t-21 -105.5q0 -50 16.5 -91t45 -70t68 -45t84.5 -16q57 0 98 22t70 57z" />
    <glyph glyph-name="uni207D" unicode="&#x207d;" horiz-adv-x="283" 
d="M280 1648q-49 -37 -88.5 -85.5t-68 -106t-44 -123t-15.5 -136.5q0 -143 58 -258.5t158 -190.5l13 17q-64 72 -99 184.5t-35 247.5q0 134 35 248t99 186z" />
    <glyph glyph-name="uni207E" unicode="&#x207e;" horiz-adv-x="283" 
d="M238 1196q0 71 -15.5 136.5t-44 123.5t-68 106t-88.5 85l-13 -17q64 -72 99 -186t35 -248t-35 -246.5t-99 -185.5l13 -17q100 75 158 190.5t58 258.5z" />
    <glyph glyph-name="uni2080" unicode="&#x2080;" horiz-adv-x="679" 
d="M640 95q0 81 -23 149.5t-64 117.5t-96 76.5t-120 27.5q-64 0 -118.5 -27.5t-94.5 -76.5t-62.5 -117.5t-22.5 -149.5t22.5 -149.5t62.5 -118t94.5 -77t118.5 -27.5q65 0 120 27.5t96 77t64 118t23 149.5zM201 95q0 81 7.5 145t24 109t42.5 68.5t62 23.5q37 0 63.5 -23.5
t44 -68.5t25.5 -109t8 -145t-8 -145t-25.5 -109t-44 -68.5t-63.5 -23.5q-36 0 -62 23.5t-42.5 68.5t-24 109t-7.5 145z" />
    <glyph glyph-name="uni2081" unicode="&#x2081;" horiz-adv-x="394" 
d="M30 331v-8h103v-506l-71 -73v-9h292v9l-71 73v651h-8z" />
    <glyph glyph-name="uni2082" unicode="&#x2082;" horiz-adv-x="567" 
d="M45 227q6 18 20 53.5t38 71.5t58.5 62.5t80.5 26.5q55 0 85.5 -41.5t30.5 -113.5q0 -103 -87.5 -222.5t-253.5 -275.5l5 -53h482l29 245l-4 1l-128 -133h-271q90 68 161 122t120.5 103.5t76 98t26.5 106.5q0 86 -65.5 137t-194.5 51q-28 0 -53 -2t-49 -6.5t-49 -11.5
t-54 -18l-14 -201h10z" />
    <glyph glyph-name="uni2083" unicode="&#x2083;" horiz-adv-x="584" 
d="M392 -90q0 -72 -38 -116.5t-107 -44.5q-39 0 -70 17.5t-55.5 47t-43.5 68t-34 81.5h-10l14 -197q13 -8 34.5 -15.5t48 -13.5t56 -10t58.5 -4q65 0 118.5 15t92.5 42.5t60.5 65.5t21.5 85q0 77 -55 129.5t-146 74.5q88 22 133.5 63.5t45.5 100.5q0 37 -17.5 67.5
t-49.5 52.5t-77.5 34.5t-101.5 12.5q-63 0 -117.5 -12t-87.5 -26l-15 -201q2 0 4.5 0.5t4.5 0.5q12 30 28 67.5t39.5 69.5t56 54t77.5 22q54 0 80 -40t26 -103q0 -79 -46 -121t-132 -59v-22q43 -3 80 -16.5t64.5 -37.5t43.5 -57t16 -75z" />
    <glyph glyph-name="uni2084" unicode="&#x2084;" horiz-adv-x="595" 
d="M70 -17l219 315v-315h-219zM438 -67h102v50h-102v472h-67l-363 -505l6 -17h274v-116l-71 -73v-9h292v9l-71 73v116z" />
    <glyph glyph-name="uni2085" unicode="&#x2085;" horiz-adv-x="557" 
d="M493 455h-374l-46 -351l16 -9q25 8 43 11t46 3q100 0 150.5 -50.5t50.5 -135.5q0 -78 -36.5 -126t-102.5 -48q-31 0 -58 16.5t-50 45t-42 67t-34 83.5h-9v-193q33 -20 83.5 -32.5t109.5 -12.5q60 0 112.5 15.5t91.5 45t61 72t22 96.5t-24.5 97.5t-66 74t-97 47.5
t-117.5 17q-34 0 -60 -2.5t-49 -9.5l21 167h359v112z" />
    <glyph glyph-name="uni2086" unicode="&#x2086;" horiz-adv-x="620" 
d="M317 -251q-31 0 -54 17t-38 47.5t-22 74t-7 96.5q0 27 2 55t6 50q21 31 50 45.5t63 14.5q59 0 88.5 -46.5t29.5 -145.5q0 -102 -30.5 -155t-87.5 -53zM211 125q21 104 87.5 191t195.5 145l-7 11q-122 -29 -207.5 -78.5t-139.5 -111.5t-78.5 -133t-24.5 -143
q0 -61 20 -113t56 -89.5t87 -59t114 -21.5q60 0 111 19t88.5 53t58.5 82t21 105q0 50 -16.5 91t-45.5 70t-68 45t-84 16q-58 0 -98.5 -22t-69.5 -57z" />
    <glyph glyph-name="uni2087" unicode="&#x2087;" horiz-adv-x="525" 
d="M458 338q-60 -81 -117 -158.5t-106.5 -151.5t-89 -144.5t-65.5 -138.5v-10h151q56 187 135.5 352.5t161.5 313.5l-7 54h-485v-118z" />
    <glyph glyph-name="uni2088" unicode="&#x2088;" horiz-adv-x="611" 
d="M426 308q0 -43 -16 -81t-56 -65q-41 19 -72 36t-51.5 35t-30.5 39.5t-10 48.5q0 55 30 87.5t88 32.5q59 0 88.5 -34.5t29.5 -98.5zM302 -251q-72 0 -109 39.5t-37 113.5q0 51 20 93.5t67 69.5q6 -4 12 -6.5t11 -4.5q45 -21 79 -39.5t57 -38t34.5 -42.5t11.5 -52
q0 -63 -38 -98t-108 -35zM577 -74q-1 64 -42 118t-142 101q40 8 69 23.5t48 35.5t28 43.5t9 47.5q0 38 -17.5 69.5t-49 54t-76 35t-98.5 12.5q-55 0 -100.5 -14t-77.5 -39t-49.5 -60.5t-17.5 -79.5q0 -57 33 -104t111 -88q-88 -16 -130.5 -64t-42.5 -107q0 -42 19.5 -76.5
t55.5 -59t86 -38t110 -13.5t110.5 14t86.5 40t56.5 63.5t20.5 85.5z" />
    <glyph glyph-name="uni2089" unicode="&#x2089;" horiz-adv-x="619" 
d="M185 238q0 102 30 155t87 53q32 0 55 -17t38 -47.5t22 -74t7 -96.5q0 -26 -2 -54.5t-6 -49.5q-21 -32 -50 -47t-63 -15q-118 0 -118 193zM409 70q-21 -104 -87.5 -191t-195.5 -145l6 -11q122 29 208 78t140 111t78.5 133t24.5 143q0 62 -20 114t-56.5 89.5t-87.5 59
t-114 21.5q-60 0 -110.5 -19t-88 -53t-58.5 -81.5t-21 -105.5q0 -50 16.5 -91t45 -70t68 -45t84.5 -16q57 0 98 22t70 57z" />
    <glyph glyph-name="uni208D" unicode="&#x208d;" horiz-adv-x="283" 
d="M280 538q-49 -37 -88.5 -85.5t-68 -106t-44 -123t-15.5 -136.5q0 -143 58 -258.5t158 -190.5l13 17q-64 72 -99 184.5t-35 247.5q0 134 35 248t99 186z" />
    <glyph glyph-name="uni208E" unicode="&#x208e;" horiz-adv-x="283" 
d="M238 86q0 71 -15.5 136.5t-44 123.5t-68 106t-88.5 85l-13 -17q64 -72 99 -186t35 -248t-35 -246.5t-99 -185.5l13 -17q100 75 158 190.5t58 258.5z" />
    <glyph glyph-name="lira" unicode="&#x20a4;" horiz-adv-x="1207" 
d="M534 752q-3 44 -14 93t-22.5 95.5t-21 87.5t-9.5 71q0 67 13 123.5t43 97.5t78 65t117 25q57 -14 103.5 -48t84.5 -79.5t71 -99t63 -107.5h18l-15 309q-27 16 -62 29.5t-74 23.5t-81 16t-83 6q-99 0 -185 -26t-150.5 -80.5t-101.5 -138.5t-37 -200q0 -32 7 -67.5
t16.5 -70t18.5 -67t12 -58.5h-221l-4 -43h228q1 -36 0 -75.5t-6 -81.5h-233l-2 -43h230q-9 -72 -27.5 -144t-48 -136t-71 -116t-97.5 -84q5 -10 8.5 -19.5t8.5 -19.5q52 14 97.5 23.5t88 15.5t83.5 8.5t83 2.5q50 0 115.5 -8t135 -17t138.5 -17t126 -8q66 44 122 115.5
t94 165.5l-18 15q-58 -65 -123 -96t-152 -31q-41 1 -80.5 6t-78.5 10.5t-77.5 10t-77.5 4.5q-72 0 -144.5 -13.5t-141.5 -33.5q73 57 133 149.5t93 216.5h371q0 12 1 21t3 22h-365q16 73 21 157h340q0 12 1 21t3 22h-345z" />
    <glyph glyph-name="Euro" unicode="&#x20ac;" horiz-adv-x="1414" 
d="M849 1462q-148 0 -270.5 -44.5t-213.5 -124.5t-149 -192t-78 -246h-134l3 -48h125q-2 -23 -3 -46.5t-1 -46.5t1 -44t3 -42h-99l3 -49h102q20 -134 79 -245t150.5 -190.5t212 -123.5t263.5 -44q122 0 231 29t220 78l26 372h-18q-8 -27 -25.5 -80t-50.5 -113t-86.5 -118.5
t-133.5 -97.5l-9 -5q-39 -12 -75.5 -17t-69.5 -5q-105 0 -188.5 39.5t-145 112.5t-99.5 176.5t-51 231.5h586l11 49h-600q-3 42 -3 88v45.5t2 45.5h630l10 48h-635q12 125 48 228.5t94.5 178t140 115.5t184.5 41q39 0 79.5 -5t82.5 -18l8 -4q82 -39 135 -97t86 -117.5
t49.5 -112t25.5 -81.5h18l-26 371q-106 48 -217 78t-228 30z" />
    <glyph glyph-name="uni2116" unicode="&#x2116;" horiz-adv-x="1962" 
d="M1583 1246q0 93 28 145t79 52t79.5 -52t28.5 -145t-28.5 -145t-78.5 -52q-51 0 -79.5 52t-28.5 145zM253 126v1103l913 -1255l63 26v1313l168 108v18h-381v-18l168 -108v-1021l-834 1147h-307v-19l166 -93v-1201l-166 -108v-18h378v18zM1871 904v44h-379v-44h379z
M1690 1035q46 0 85.5 16t68 44t45 66.5t16.5 84.5t-16.5 84.5t-45 66.5t-68 44t-85.5 16q-45 0 -84.5 -16t-68 -44t-45 -66.5t-16.5 -84.5t16.5 -84.5t45 -66.5t67.5 -44t85 -16z" />
    <glyph glyph-name="uni2117" unicode="&#x2117;" horiz-adv-x="1066" 
d="M117 1090q0 86 33 162t89.5 133t132.5 90t162 33t162 -33t133 -90t90 -133t33 -162t-33 -162t-90 -132.5t-133 -89.5t-162 -33t-162 33t-132.5 89.5t-89.5 132.5t-33 162zM995 1090q0 95 -36.5 179t-99 146.5t-146.5 99t-179 36.5t-179 -36.5t-146.5 -99t-98.5 -146.5
t-36 -179t36 -179t98.5 -146.5t146.5 -98.5t179 -36t179 36t146.5 98.5t99 146.5t36.5 179zM573 1031q111 0 170.5 46t59.5 128q0 71 -52.5 117t-160.5 46h-254v-7l60 -50v-455l-60 -49v-8h233v8l-68 49v493h55q136 0 136 -144q0 -40 -9.5 -68t-26 -46.5t-38.5 -28
t-48 -11.5l-33 -1v-19h36z" />
    <glyph glyph-name="trademark" unicode="&#x2122;" horiz-adv-x="1509" 
d="M729 916l-62 -81v-8h175v8l-78 81v415l217 -455h27l221 450v-416l-55 -75v-8h231v8l-46 75v450l60 72v7h-171l-201 -413l-195 413h-188v-7l65 -72v-444zM282 1410v-500l-51 -75v-8h235v8l-53 75v500l203 -126l10 2l-18 153h-519l-18 -153q2 -2 4.5 -2h4.5z" />
    <glyph glyph-name="estimated" unicode="&#x212e;" horiz-adv-x="1144" 
d="M309 891q59 41 124 60.5t137 19.5q145 0 262 -80v-338h-523v338zM1096 501q0 109 -41.5 205t-112.5 167t-167 112.5t-205 41.5t-205 -42t-167 -113.5t-112 -167t-41 -203.5t41.5 -204t112.5 -167t167 -112.5t204 -41.5q86 0 165 27t145 75.5t116 116.5t76 149h-59
q-25 -69 -69 -126.5t-102.5 -99t-127.5 -64t-144 -22.5q-147 0 -261 80v389h787z" />
    <glyph glyph-name="partialdiff" unicode="&#x2202;" horiz-adv-x="1209" 
d="M290 497q0 114 19.5 205.5t57.5 156.5t94.5 100t130.5 35q65 0 121.5 -31t98.5 -91.5t66.5 -149.5t24.5 -206q0 -116 -19.5 -210t-57.5 -160t-95.5 -102t-133.5 -36q-75 0 -132.5 34.5t-96.5 98.5t-58.5 154t-19.5 202zM642 1320q95 -88 152 -189t91 -229q-48 52 -119 88
t-174 36q-112 0 -206.5 -39.5t-163.5 -109t-107.5 -166t-38.5 -210.5q0 -115 40 -211.5t109.5 -166.5t165 -108.5t206.5 -38.5q114 0 209.5 41.5t164.5 118t107.5 186t38.5 245.5q0 117 -23 229t-71 214t-121 192t-172 163l-44 30q-97 60 -206.5 98.5t-237.5 59.5l-13 -35
q116 -21 208.5 -62.5t167.5 -102.5z" />
    <glyph glyph-name="Delta" unicode="&#x2206;" horiz-adv-x="1460" 
d="M212 43l23 63l3 6h-1l404 1138l429 -1207h-858zM5 19v-19h1442v19l-169 92l-490 1328h-277v-19l95 -135l-422 -1174z" />
    <glyph glyph-name="product" unicode="&#x220f;" horiz-adv-x="1540" 
d="M42 1439v-19l163 -93v-1216l-163 -92v-19h538v19l-163 93v1284h707v-1285l-162 -92v-19h538v19l-163 93h-2v1215l164 93v19h-1457z" />
    <glyph glyph-name="summation" unicode="&#x2211;" horiz-adv-x="1110" 
d="M915 1073v366h-859v-43l498 -767l-498 -684v-45h926l53 366l-9 1l-224 -324h-693l579 767l-420 686h467l171 -323h9z" />
    <glyph glyph-name="minus" unicode="&#x2212;" horiz-adv-x="1060" 
d="M945 560v46h-831v-46h831z" />
    <glyph glyph-name="uni25B6" unicode="&#x25b6;" horiz-adv-x="1741" 
d="M205 1477v-1586l12 -6l1421 791v16l-1421 791z" />
    <glyph glyph-name="uni25B7" unicode="&#x25b7;" horiz-adv-x="1741" 
d="M286 18v1332l1203 -666zM1638 691l-1421 792l-12 -6v-1586l12 -6l1421 791v15z" />
    <glyph glyph-name="uni25C6" unicode="&#x25c6;" horiz-adv-x="1913" 
d="M956 -158l854 854l-854 854l-854 -854z" />
    <glyph glyph-name="uni25C7" unicode="&#x25c7;" horiz-adv-x="1913" 
d="M102 696l854 -854l854 854l-854 853zM1694 696l-738 -738l-738 738l738 738z" />
    <glyph glyph-name="circle" unicode="&#x25cb;" horiz-adv-x="1642" 
d="M821 1395q-150 0 -281 -56t-228.5 -153.5t-153.5 -228.5t-56 -281q0 -300 211 -508q212 -211 508 -211q297 0 508 211q211 208 211 508q0 298 -211 510q-212 209 -508 209zM1271 226q-185 -185 -450 -185t-450 185t-185 450q0 133 49.5 249t135 201.5t201.5 135t249 49.5
t249 -49.5t202 -135t135.5 -201.5t49.5 -249q0 -264 -186 -450z" />
    <glyph glyph-name="H18533" unicode="&#x25cf;" horiz-adv-x="1642" 
d="M102 676q0 -300 211 -508q212 -211 508 -211q297 0 508 211q211 208 211 508q0 298 -211 510q-212 209 -508 209q-150 0 -281 -56t-228.5 -153.5t-153.5 -228.5t-56 -281z" />
    <glyph glyph-name="uni25FD" unicode="&#x25fd;" horiz-adv-x="1374" 
d="M205 0h964v965h-964v-965zM1089 81h-804v803h804v-803z" />
    <glyph glyph-name="uni25FE" unicode="&#x25fe;" horiz-adv-x="1374" 
d="M1169 965h-964v-965h964v965z" />
    <glyph glyph-name="uni2780" unicode="&#x2780;" 
d="M151 719q0 151 53.5 278t148 219t224.5 143.5t284 51.5q151 0 279 -53t221 -146t145 -220t52 -276q0 -150 -54 -276t-149 -217.5t-225.5 -143t-282.5 -51.5q-151 0 -278.5 52.5t-220.5 145t-145 219t-52 274.5zM855 -24q167 0 308.5 56t245 155t161.5 235.5t58 297.5
t-58.5 297t-162.5 235t-245.5 154.5t-308.5 55.5q-166 0 -307.5 -56t-244 -155t-160.5 -235t-58 -297q0 -162 58 -298t161 -235t244.5 -154.5t308.5 -55.5zM937 1085l-232 -131v-8h104v-520l-74 -65v-9h285v9l-74 65v659h-9z" />
    <glyph glyph-name="uni2781" unicode="&#x2781;" 
d="M1558 716q0 -150 -54 -276t-149 -217.5t-225.5 -143t-282.5 -51.5q-151 0 -278.5 52.5t-220.5 145t-145 219t-52 274.5q0 151 53.5 278t148 219t224.5 143.5t284 51.5q151 0 279 -53t221 -146t145 -220t52 -276zM853 1462q-166 0 -307.5 -56t-244 -155t-160.5 -235
t-58 -297q0 -162 58 -298t161 -235t244.5 -154.5t308.5 -55.5t308.5 56t245 155t161.5 235.5t58 297.5t-58.5 297t-162.5 235t-245.5 154.5t-308.5 55.5zM725 452q89 69 160 125.5t120 107.5t75 101t26 107q0 85 -63.5 136.5t-190.5 51.5q-56 -1 -101 -9.5t-101 -29.5
l-14 -198h10q5 17 18.5 52t37.5 70.5t58.5 62.5t80.5 27q58 0 90 -41.5t32 -115.5q0 -103 -88 -223t-258 -278l5 -48h472l30 234l-5 1l-121 -133h-273z" />
    <glyph glyph-name="uni2782" unicode="&#x2782;" 
d="M847 28q-151 0 -278.5 52.5t-220.5 145t-145 219t-52 274.5q0 151 53.5 278t148 219t224.5 143.5t284 51.5q151 0 279 -53t221 -146t145 -220t52 -276q0 -150 -54 -276t-149 -217.5t-225.5 -143t-282.5 -51.5zM853 1462q-166 0 -307.5 -56t-244 -155t-160.5 -235
t-58 -297q0 -162 58 -298t161 -235t244.5 -154.5t308.5 -55.5t308.5 56t245 155t161.5 235.5t58 297.5t-58.5 297t-162.5 235t-245.5 154.5t-308.5 55.5zM850 1091q-65 0 -117.5 -12.5t-86.5 -26.5l-14 -198q2 0 4.5 0.5t4.5 0.5q11 30 27 67t39.5 69t56.5 53.5t78 21.5
q54 0 81.5 -40t27.5 -104q0 -79 -47.5 -120.5t-135.5 -59.5v-21q44 -4 82.5 -17.5t66.5 -36.5t44 -56.5t16 -76.5q0 -72 -39 -117t-111 -45q-40 0 -71 17.5t-55 47t-42.5 68t-33.5 80.5h-9l13 -194q13 -8 34.5 -15.5t47.5 -13.5t55.5 -10t58.5 -4q63 0 115.5 15t90.5 42
t59 64.5t21 83.5q0 78 -55.5 131t-145.5 74q88 21 133 63t45 102q0 37 -16.5 67.5t-47.5 53t-75 35t-99 12.5z" />
    <glyph glyph-name="uni2783" unicode="&#x2783;" 
d="M612 614l226 328v-328h-226zM1558 716q0 -150 -54 -276t-149 -217.5t-225.5 -143t-282.5 -51.5q-151 0 -278.5 52.5t-220.5 145t-145 219t-52 274.5q0 151 53.5 278t148 219t224.5 143.5t284 51.5q151 0 279 -53t221 -146t145 -220t52 -276zM559 566h278v-125l-74 -65v-9
h285v9l-75 65v125h104v48h-104v473h-62l-357 -505zM1628 720q0 161 -58.5 297t-162.5 235t-245.5 154.5t-308.5 55.5q-166 0 -307.5 -56t-244 -155t-160.5 -235t-58 -297q0 -162 58 -298t161 -235t244.5 -154.5t308.5 -55.5t308.5 56t245 155t161.5 235.5t58 297.5z" />
    <glyph glyph-name="uni2784" unicode="&#x2784;" 
d="M847 28q-151 0 -278.5 52.5t-220.5 145t-145 219t-52 274.5q0 151 53.5 278t148 219t224.5 143.5t284 51.5q151 0 279 -53t221 -146t145 -220t52 -276q0 -150 -54 -276t-149 -217.5t-225.5 -143t-282.5 -51.5zM853 1462q-166 0 -307.5 -56t-244 -155t-160.5 -235
t-58 -297q0 -162 58 -298t161 -235t244.5 -154.5t308.5 -55.5t308.5 56t245 155t161.5 235.5t58 297.5t-58.5 297t-162.5 235t-245.5 154.5t-308.5 55.5zM801 810q-34 0 -59.5 -2.5t-48.5 -9.5l22 176h354v103h-369l-44 -347l14 -8q25 8 44 11t48 3q102 0 154 -51t52 -137
q0 -81 -38.5 -130t-108.5 -49q-31 0 -58 16t-49.5 44.5t-41.5 67.5t-34 84h-9v-191q32 -19 83 -32t109 -13q60 0 111.5 16t89.5 45.5t59.5 71.5t21.5 95q0 54 -24 98t-65 74.5t-96 47.5t-117 17z" />
    <glyph glyph-name="uni2785" unicode="&#x2785;" 
d="M717 625q0 26 2 54t6 50q23 34 53.5 49.5t66.5 15.5q126 0 126 -195q0 -101 -32.5 -155t-92.5 -54q-34 0 -58 17t-40 48t-23.5 74.5t-7.5 95.5zM1558 716q0 -150 -54 -276t-149 -217.5t-225.5 -143t-282.5 -51.5q-151 0 -278.5 52.5t-220.5 145t-145 219t-52 274.5
q0 151 53.5 278t148 219t224.5 143.5t284 51.5q151 0 279 -53t221 -146t145 -220t52 -276zM902 845q-58 0 -100 -22t-71 -59q23 105 90 193t196 146l-5 11q-119 -30 -203 -79.5t-137 -111.5t-77 -133t-24 -143q0 -61 19.5 -113t55.5 -89.5t86 -58.5t111 -21q59 0 109 19
t86.5 53t57.5 81.5t21 104.5q0 50 -16.5 91t-45.5 70t-68.5 45t-84.5 16zM1628 720q0 161 -58.5 297t-162.5 235t-245.5 154.5t-308.5 55.5q-166 0 -307.5 -56t-244 -155t-160.5 -235t-58 -297q0 -162 58 -298t161 -235t244.5 -154.5t308.5 -55.5t308.5 56t245 155
t161.5 235.5t58 297.5z" />
    <glyph glyph-name="uni2786" unicode="&#x2786;" 
d="M847 28q-151 0 -278.5 52.5t-220.5 145t-145 219t-52 274.5q0 151 53.5 278t148 219t224.5 143.5t284 51.5q151 0 279 -53t221 -146t145 -220t52 -276q0 -150 -54 -276t-149 -217.5t-225.5 -143t-282.5 -51.5zM853 1462q-166 0 -307.5 -56t-244 -155t-160.5 -235
t-58 -297q0 -162 58 -298t161 -235t244.5 -154.5t308.5 -55.5t308.5 56t245 155t161.5 235.5t58 297.5t-58.5 297t-162.5 235t-245.5 154.5t-308.5 55.5zM646 1055v-108l421 1q-60 -84 -116 -162.5t-105 -153.5t-88.5 -146.5t-65.5 -140.5v-10h139q57 188 137 354.5
t164 316.5l-7 49h-479z" />
    <glyph glyph-name="uni2787" unicode="&#x2787;" 
d="M815 686q47 -21 82 -40t58 -39t34.5 -43t11.5 -53q0 -65 -39.5 -100.5t-111.5 -35.5q-75 0 -113.5 39.5t-38.5 113.5q0 53 22 96.5t74 70.5zM1558 716q0 -150 -54 -276t-149 -217.5t-225.5 -143t-282.5 -51.5q-151 0 -278.5 52.5t-220.5 145t-145 219t-52 274.5
q0 151 53.5 278t148 219t224.5 143.5t284 51.5q151 0 279 -53t221 -146t145 -220t52 -276zM977 934q0 -45 -17 -83.5t-62 -66.5q-42 19 -73 36t-51.5 35.5t-31 40.5t-10.5 50q0 57 31 90t91 33q62 0 92.5 -35t30.5 -100zM934 768q40 9 69.5 25t48.5 37t28 45t9 48
q0 38 -17 69t-48.5 53.5t-74.5 35t-96 12.5q-54 0 -98 -13.5t-75.5 -38.5t-49 -60t-17.5 -78q0 -57 34 -104t112 -87q-88 -17 -131.5 -66.5t-43.5 -110.5q0 -42 19.5 -76t54.5 -58.5t84 -37.5t108 -13t108.5 13.5t85 39.5t55.5 63t20 85q-1 63 -42 116.5t-143 100.5z
M853 1462q-166 0 -307.5 -56t-244 -155t-160.5 -235t-58 -297q0 -162 58 -298t161 -235t244.5 -154.5t308.5 -55.5t308.5 56t245 155t161.5 235.5t58 297.5t-58.5 297t-162.5 235t-245.5 154.5t-308.5 55.5z" />
    <glyph glyph-name="uni2788" unicode="&#x2788;" 
d="M972 692q-23 -33 -53.5 -48.5t-66.5 -15.5q-127 0 -127 194q0 101 33 155.5t93 54.5q34 0 58.5 -17t40 -48t23 -74.5t7.5 -95.5q0 -26 -2 -54t-6 -51zM1558 716q0 -150 -54 -276t-149 -217.5t-225.5 -143t-282.5 -51.5q-151 0 -278.5 52.5t-220.5 145t-145 219t-52 274.5
q0 151 53.5 278t148 219t224.5 143.5t284 51.5q151 0 279 -53t221 -146t145 -220t52 -276zM853 1057q-58 0 -108 -19t-87 -53t-57.5 -82t-20.5 -105q0 -50 16.5 -91t45.5 -70t68 -45t85 -16q58 0 100 22.5t71 58.5q-22 -104 -89.5 -191.5t-197.5 -146.5l6 -11
q119 30 203 79.5t137 111.5t77 133t24 143q0 61 -19.5 112.5t-55.5 89t-86 59t-112 21.5zM1628 720q0 161 -58.5 297t-162.5 235t-245.5 154.5t-308.5 55.5q-166 0 -307.5 -56t-244 -155t-160.5 -235t-58 -297q0 -162 58 -298t161 -235t244.5 -154.5t308.5 -55.5t308.5 56
t245 155t161.5 235.5t58 297.5z" />
    <glyph glyph-name="uni2789" unicode="&#x2789;" 
d="M847 28q-151 0 -278.5 52.5t-220.5 145t-145 219t-52 274.5q0 151 53.5 278t148 219t224.5 143.5t284 51.5q151 0 279 -53t221 -146t145 -220t52 -276q0 -150 -54 -276t-149 -217.5t-225.5 -143t-282.5 -51.5zM1032 1070q39 0 67 -24.5t46 -69.5t27 -109.5t9 -144.5
q0 -81 -9 -145.5t-27 -109.5t-46 -69t-67 -24t-66.5 24t-45 69t-26 109.5t-8.5 145.5q0 80 8.5 144.5t26 109.5t45 69.5t66.5 24.5zM513 436l-75 -65v-9h286v9l-75 65v659h-8l-232 -131v-8h104v-520zM853 1462q-166 0 -307.5 -56t-244 -155t-160.5 -235t-58 -297
q0 -162 58 -298t161 -235t244.5 -154.5t308.5 -55.5t308.5 56t245 155t161.5 235.5t58 297.5t-58.5 297t-162.5 235t-245.5 154.5t-308.5 55.5zM1329 722q0 81 -22.5 149t-62.5 117.5t-94.5 77t-117.5 27.5t-117 -27.5t-93 -77t-61.5 -117.5t-22.5 -149t22.5 -149
t61.5 -117.5t93 -77.5t117 -28t117.5 28t94.5 77.5t62.5 117.5t22.5 149z" />
    <glyph glyph-name="uni278A" unicode="&#x278a;" 
d="M1020 361v-9h-285v9l74 65v520h-104v8l232 131h9v-659zM855 -24q167 0 308.5 56t245 155t161.5 235.5t58 297.5t-58.5 297t-162.5 235t-245.5 154.5t-308.5 55.5q-166 0 -307.5 -56t-244 -155t-160.5 -235t-58 -297q0 -162 58 -298t161 -235t244.5 -154.5t308.5 -55.5z
" />
    <glyph glyph-name="uni278B" unicode="&#x278b;" 
d="M1094 350h-472l-5 48q170 158 258 278t88 223q0 74 -32 115.5t-90 41.5q-46 0 -80.5 -27t-58.5 -62.5t-37.5 -70.5t-18.5 -52h-10l14 198q56 21 101 29.5t101 9.5q127 0 190.5 -51.5t63.5 -136.5q0 -57 -26 -107t-75 -101t-120 -107.5t-160 -125.5h273l121 133l5 -1z
M83 719q0 -162 58 -298t161 -235t244.5 -154.5t308.5 -55.5t308.5 56t245 155t161.5 235.5t58 297.5t-58.5 297t-162.5 235t-245.5 154.5t-308.5 55.5q-166 0 -307.5 -56t-244 -155t-160.5 -235t-58 -297z" />
    <glyph glyph-name="uni278C" unicode="&#x278c;" 
d="M1088 923q0 -60 -45 -102t-133 -63q90 -21 145.5 -74t55.5 -131q0 -46 -21 -83.5t-59 -64.5t-90.5 -42t-115.5 -15q-29 0 -58.5 4t-55.5 10t-47.5 13.5t-34.5 15.5l-13 194h9q15 -42 33.5 -80.5t42.5 -68t55 -47t71 -17.5q72 0 111 45t39 117q0 43 -16 76.5t-44 56.5
t-66.5 36.5t-82.5 17.5v21q88 18 135.5 59.5t47.5 120.5q0 64 -27.5 104t-81.5 40q-45 0 -78 -21.5t-56.5 -53.5t-39.5 -69t-27 -67q-2 0 -4.5 -0.5t-4.5 -0.5l14 198q34 14 86.5 26.5t117.5 12.5q55 0 99 -12.5t75 -35t47.5 -53t16.5 -67.5zM1628 720q0 161 -58.5 297
t-162.5 235t-245.5 154.5t-308.5 55.5q-166 0 -307.5 -56t-244 -155t-160.5 -235t-58 -297q0 -162 58 -298t161 -235t244.5 -154.5t308.5 -55.5t308.5 56t245 155t161.5 235.5t58 297.5z" />
    <glyph glyph-name="uni278D" unicode="&#x278d;" 
d="M1048 376v-9h-285v9l74 65v125h-278l-5 16l357 505h62v-473h104v-48h-104v-125zM838 614v328l-226 -328h226zM83 719q0 -162 58 -298t161 -235t244.5 -154.5t308.5 -55.5t308.5 56t245 155t161.5 235.5t58 297.5t-58.5 297t-162.5 235t-245.5 154.5t-308.5 55.5
q-166 0 -307.5 -56t-244 -155t-160.5 -235t-58 -297z" />
    <glyph glyph-name="uni278E" unicode="&#x278e;" 
d="M1103 573q0 -53 -21.5 -95t-59.5 -71.5t-89.5 -45.5t-111.5 -16q-58 0 -109 13t-83 32v191h9q15 -45 34 -84t41.5 -67.5t49.5 -44.5t58 -16q70 0 108.5 49t38.5 130q0 86 -52 137t-154 51q-29 0 -48 -3t-44 -11l-14 8l44 347h369v-103h-354l-22 -176q23 7 48.5 9.5
t59.5 2.5q62 0 117 -17t96 -47.5t65 -74.5t24 -98zM1628 720q0 161 -58.5 297t-162.5 235t-245.5 154.5t-308.5 55.5q-166 0 -307.5 -56t-244 -155t-160.5 -235t-58 -297q0 -162 58 -298t161 -235t244.5 -154.5t308.5 -55.5t308.5 56t245 155t161.5 235.5t58 297.5z" />
    <glyph glyph-name="uni278F" unicode="&#x278f;" 
d="M902 845q45 0 84.5 -16t68.5 -45t45.5 -70t16.5 -91q0 -57 -21 -104.5t-57.5 -81.5t-86.5 -53t-109 -19q-61 0 -111 21t-86 58.5t-55.5 89.5t-19.5 113q0 72 24 143t77 133t137 111.5t203 79.5l5 -11q-129 -58 -196 -146t-90 -193q29 37 71 59t100 22zM971 599
q0 195 -126 195q-36 0 -66.5 -15.5t-53.5 -49.5q-4 -22 -6 -50t-2 -54q0 -52 7.5 -95.5t23.5 -74.5t40 -48t58 -17q60 0 92.5 54t32.5 155zM1628 720q0 161 -58.5 297t-162.5 235t-245.5 154.5t-308.5 55.5q-166 0 -307.5 -56t-244 -155t-160.5 -235t-58 -297
q0 -162 58 -298t161 -235t244.5 -154.5t308.5 -55.5t308.5 56t245 155t161.5 235.5t58 297.5z" />
    </font>
</defs>
</svg>
