<?xml version="1.0" encoding="UTF-8"?>
<svg width="80" height="84" xmlns="http://www.w3.org/2000/svg">
  <g fill="none" fill-rule="evenodd">
    <path d="M0 .18556364h79.4524208V83.8703727H0z"/>
    <path d="M64.4184253 69.2280273c.0099207.0553636-.0099207.3967091-.0099207.7082727-.5422021-.5727273-2.485125-2.0996182-3.2730543-2.7025091-3.9354491-3.0136909-4.4120223-4.9525636-4.5680819-5.1938727 4.4879535 4.8174 6.2397129 5.2992545 7.8510569 7.1881091m15.0339955-16.2043637c-2.5248077-.5425636-5.561674-2.0144727-7.6450124-3.1748181-2.2737387-1.2657273-4.8237296-3.1244182-6.8265581-4.9777637-.0053419-.0049636-.0103022-.0099273-.0103022-.0152727-.3964448-.4971273-.6375931-1.1603455-.6978802-1.3260546v-.0049636c.3365393-1.2256364.5521228-2.6773091.6425535-4.4504727.4220095-1.6326546 2.0833383-2.3508546 2.0833383-2.3508546.4418509 1.1103273 1.1145479 1.5673637 1.1145479 1.5673637s-.3464599-1.9843091.2407668-2.5116c1.2397008-1.1351455 2.0482345-1.4215091 2.4797832-1.5372.4719944-.1252364 1.3602749.5628 2.012749 1.1504182-.6623947.3367636-1.4404033.7934181-1.9726848 1.3310181l2.7159711-.462c-.2663315.3818182-1.3404336 2.0041637-1.5613591 3.4107819 0 0 3.0269457-3.3554182 2.9113319-3.6219273-.0351039-.0851455-.0801284-.1706727-.125153-.2611637.2159652-.4016727.5670039-1.1248363.5319-1.4917636-.0351039-.4368-2.10814-1.1000182-2.8514263-1.3210909-.5971474-.5322545-1.1343892-.8690182-1.4003392-.8186182-.4765732.0901091-4.0960875 1.8835091-6.1893465 3.0740182-.923766-1.6876364-2.876228-2.4310364-3.1925444-2.9533636-1.2999878-2.1351273-1.4358246-4.5459273-.843256-7.1128909l-.0049603-.0049637c.1804797-.5727273.4315487-1.1152909.7528254-1.6326545.0652474.5727272.1655987 1.0549636.3365393 1.3008545-.0705893-1.5520909 1.2244382-2.7876545 1.2244382-2.7876545s-.6021077 2.0595272 1.0844044 4.2645272c-.4166677-3.2649272.5170189-5.691 2.0882987-6.5703272.6326328-.2508546 1.2999879-.4417637 1.9780267-.5624182-.3166979.3566182-.5174005.8037273-.326237 1.1603454.2155835.3917455 1.0088547.1458546 1.3247895.2665091.2712919.0950728.3113561.4467273.26595.6830728-.1251529.6177818-.4315487 1.8281454-.1152323 2.4058363.672697 1.2458728 2.439719 1.6876364 3.6092121.8942182.6776573-.462.9737508-1.1805818 1.0790624-1.9690364.1308764-1.0198363-.0450245-2.1095454-.5318999-3.0190363 1.4556659.5376 2.8361637 1.4616 4.0209193 2.8380545.1804797-1.7830909-.0755496-3.7017272-.7883108-5.5302545.3262371-.0805637.6375931-.2210727.8535583-.4772727.6723154-.7938.0148809-2.0091273-.0553268-3.3905455-.0553267-1.0698545.4468112-2.9839091.0351039-3.08432727-.4769548-.11530909-1.3102901 2.03929087-1.8273091 1.79339997-.3361577-.1557818.577306-4.5008727-.2506874-4.41038179-.502138.05536364-.8783599 2.60209091-1.4358246 2.35581818-.5570832-.24092727-1.1343892-4.76165454-1.8070862-4.67650909-.7528254.10041818-.0755496 2.79796364-.6425534 2.92358182-.5723458.12561818-2.1184423-5.06825455-3.0921931-4.84221818-.8131125.19090909.391866 3.73723636-.2758707 3.84261818C67.7063606 7.0371 66.0797541 4.46020909 65.4776464 4.7817c-.3766035.20083636.0702078 2.31572727.9035431 3.98350909-4.6081461-.88429091-9.1109805.17563636-11.9471443 1.86861821-7.0677064-4.57609094-12.4439404-7.57985457-14.3113137-8.69514548-.8531767-.50743637-3.2074253-.31156364-3.2074253-.31156364s1.5308339 1.0752 2.4996245 1.91367273c-1.0538793-.1554-2.4847436-1.00952727-2.9063716-1.29054546 0 .50209091.236188.96943637.5925686 1.4112C33.6472122 1.94860909 25.1539834.18537273 18.7238701.18537273c0 0 1.3148689 1.79836363 5.1400461 2.92358182-3.8652414-.34134546-12.4790443.26612727-16.69570592 2.19010909.95352796.14089091 3.62447462.29629091 6.93225122.46734545.0152626.07521818.0652474.1554.155678.24092727.6623948.66321819 8.5836594.68307273 13.5882503.73843637C15.727068 7.31811818 12.5242214 11.2665-.00022894 10.5983182c3.42873236 4.6364182 17.04216584 1.9041273 23.73861064 1.4570182C13.2171413 14.9082818 10.7571994 17.3145 1.48596209 17.0430273c.10035128.7735636 5.18049179 5.3496545 21.36909941-.6078546-4.051063 3.3955091-10.3056569 5.5756909-15.32551029 6.9319091 7.33899829 2.3962909 15.53117319-2.3707091 21.78576709-5.5604182-5.627303 3.8827091-8.8148871 5.5352182-8.7194961 5.9120728.0606686.231.1858216.3214909.3464599.3264545-2.0680758 1.4318182-5.0698383 3.6719455-6.1290594 4.0087091 3.3131185.2661273 5.8680698-.2814 8.3478529-1.4669455.0404458.3715091 1.7571014.0099273 3.5088608-.5727272-3.3882866 3.4207091-8.252462 7.1277818-10.0496275 7.8765272 4.3521168.9392728 7.7808491-1.5776727 11.1489128-3.0793636-.7928896.8289273-1.3755375 1.5520909-1.3453939 1.8785455-.1152323.6078545 3.594331-.1405091 3.594331-.1405091.8180728.6429818 2.0280116.4169454 3.4333111-.3867818-.4868754.8289272-1.1744534 1.2206727-1.6514081 1.4715272 1.0241172.3318 2.0531948.1156909 2.6755254-.0851454-.1255345.3566182-.7078009.8541272-1.0038944 1.0248 0 0 .7280238.1004182 1.501072-.1859455 0 .0049637-.0053419.0049637-.0103022.0152727 0 .0049637-.0049603.0099273-.014881.014891-.2110048.2962909-1.6617104 2.4413454-1.0790624 6.1934727.2506874-.8789455.4765732-1.1954727.8982012-1.5723273.0049603 2.8380546 1.5361759 7.7959636 2.7911392 8.7402-.1507177-.7884545-.421628-1.7128364-.1907819-2.4260727 0 0 .1453758.6880363.5723457.9694363 0 0-.0904306-.9293454.4315487-2.3661272.3563806 3.0694363.3361577 6.1686545 2.500006 8.7153818 2.0428927 2.4058364 4.7184181 3.3401454 4.7184181 3.3401454L44.7308776 54.4803c5.0602992 1.7128364 6.2748168 10.9803273 5.7024711 13.9390364.8031918-.7834909 1.4709284-2.0091273 1.5663194-3.8025273.5620435.3967091.8531767 1.3764545.938647 1.6677818.1755193-.4169454.6173702-2.0644909.6173702-5.0884909 0 .1004182 1.7269578 3.2950909 3.7496275 5.0984182 2.1436255 1.9037454 5.5822785 4.1793818 6.9223306 5.7814909-.4063655 2.0595273-1.5209133 5.0083091-4.4173642 8.0773636 0 0 1.4457453-.2562 2.9765793-.8739818l.4418508-1.4570182-.0702077 1.2962728c.2560293-.1206546.5070983-.2512364.7429047-.397091l.2155836-.9140727-.0095391.7834909c.2709103-.1806 1.9272788-1.743 2.7106293-3.0640909.4265883 2.3760546-.6627764 5.1637091-.9890134 5.9827091.1102719-.1760182 2.0631155-3.3958909 1.5762401-6.9521454.1053116-.2008364.2209254-.5975455.2308461-.6628364 1.9726848 4.5707454-.3716432 9.7699636-.4719945 9.9757636.1056932-.1004182 1.4606263-1.4215091 2.2890013-2.8682182.0251832.2562.0404458.4872.0202229.6078546.7127612-.9041455 1.1694931-2.1198546 1.4457453-3.2450727l-.6929199-1.7227637.8684392.9293455c.3361577-1.9541455.170559-4.8223637-2.1684271-8.1174546.2407668-1.5872181.3212767-2.4612.251069-3.1545818l-1.4457453-1.4516727 1.5258737.6280909c-.3563806-4.0488-2.1585065-7.5596182-4.0056569-10.2972545.4819151.105.9737509.1954909 1.4655866.2562l-.1003513-.9797455.5070983 1.0248c.1304949.0099273.3262371.0198545.4616922.0252l-.1053116-.7785273.3563806.7834909c.5723457.0049637 1.5812004-.1706727 2.1234026-.4623818-1.6365272-.6326727-7.3637999-3.5413636-8.3730361-4.6310727-.0351039-.0351273-.0652475-.0706364-.0904307-.1053818-.1354551-.1760182-.2560293-.3318-.3514202-.4723091.2060444.0652909.4571134.1004182.6478953.0148909.2007026-.0904909-.0503664-.7934182-.4922173-1.1149091.6375931.231 1.5262552.0603273 1.5262552.0603273s-.2060444-.2462728-.1507177-.7888364c.26595.1458546.5620435.2764364.8184544.2913273-.1858216-.3566182-.3266186-.7735637-.4170493-1.1049818 1.3202108.4070181 2.9769609.8942181 3.5641876 1.512.6677366.6979636.9085034 2.8781454 1.8574526 3.5310545 0 0-.487257-1.9789636.0099206-2.0140909 1.6315669-.1156909 2.9365151 3.8174182 5.908134 5.5905818-.9935922-1.2306-1.4507056-2.6471454-1.7418388-3.8475818 1.4907698.4971273 3.4233905 1.0446545 6.7765732 1.0549636" fill="#FFF"/>
    <path d="M60.6075949 10.0336283c1.8224289-.7916321 4.6657959-.33045868 4.6657959-.33045868s-1.8536747.60461698-2.4299052.85380728l-.1042738-.1801612c.9497267.0156662 1.6582069.1194547 2.5904941.322136.9297439.1982752 1.851858.5140468 2.720927.9972508-4.5949478-1.278263-6.4340896-.9551479-6.4340896-.9551479s1.3072367-.6428033 2.663522-1.03249972l-.2626826.2090457c-1.1553676-.19240038-2.3510641-.0479777-3.4097878.11602772M76.556962 18.0759494c.7070541.7726124.936662 1.2440614 1.0632912 2.1265822-.5316456-.7306737-.906606-1.3069695-1.0632912-2.1265822M72.4788547 17.0126582c-.18765.0907595-.837508.5251899-.9815268.6512659l.0553373-.2487342c.2699465.2472152 1.6196788 1.53 1.8144234 3.8506329-.5845884-2.1641772-2.1265823-3.816076-2.1265823-3.816076s.366432-.2840506 1.2383484-.4370886M69.1139241 74.4303797c.6737258 1.5583745.822824 4.2102599.7454909 5.3164557.7423976-1.8407994.0556798-4.4788807-.7454909-5.3164557M64.847054 72.3037975c.1153075 1.395141-.5197481 3.525048-1.0495856 4.2531645.3750373-.8074945.9042983-3.0745467 1.0495856-4.2531645M63.7974684 45.721519c.3230884.1105467.7758791.5229883 1.0632911 1.0632911-.4234493-.1540551-.9412577-.6779313-1.0632911-1.0632911M69.1139241 48.9113924c1.2085282.9009741 3.4439429 2.3171568 5.3164556 3.1882266-.4930276.060663-3.9858153-1.5648498-5.3164556-3.1882266M61.6708861 34.0253165c.4338178.1524608.9370214.6245974 1.0632911 1.0632911-.531333-.1342639-1.0226598-.7283692-1.0632911-1.0632911M62.7386807 36.1415345c.0942961.6367471.2309365 1.3109262.2309365 1.3109262l-.1565671.1014287c.0829094-.1956126.4992355-.8291397.4992355-.8291397s.085756 1.5322985.0996336 2.0217324l-.307085-.0941839c.2305806-.4069224 1.1351113-1.8559044 3.8825076-3.5636906-2.7068312 1.9504907-3.8949618 4.2531646-3.8949618 4.2531646l-.01281-.5844228c-.0106751-.4898364-.0103192-.9796728-.0064051-1.4695092l.2526424.0736566c-.1060386.1795128-.5671998.7892927-.5671998.7892927s-.0370068-1.5649005-.0199268-2.009255M70.1772152 33.5934208c.2992542-.219662.6146014-.4131484.9383784-.592486l.0701197-.0389095.059391.058718c.7694013.7605043 1.4173384 1.3084212 2.1219843 2.0678643-.6969825-.5648955-1.4901403-1.1969984-2.2783168-1.9369868l.1295108.0198085c-.3360383.1588216-.6808895.303848-1.0410674.4219915M45.721519 6.37974684c-2.6345624-.86023513-5.5815481-2.54271497-6.3797468-3.18987342 2.6345623 1.19058656 4.6205151 2.32963829 6.3797468 3.18987342M22.3291139 2.12658228c.9704254.29999672 2.0109285.35189655 3.0262951.48479156 1.0214602.11402234 2.0486334.2075993 3.0708554.35346927 1.0180325.14036544 2.0596782.29999672 3.0499082.59252302.9875639.3003899 1.9541807.63852513 2.8053976 1.21414139l.8070374.54494818-.9989897-.30432171c-.8554063-.26107186-1.7351875-.50602331-2.6294413-.67784319-.4475078-.08492699-.8973007-.16788807-1.3528065-.21231747-.4543632-.0444294-.915201-.06841341-1.3707067-.01572722.4421757-.09868831.9140584-.10733828 1.377943-.09239742.465789.01494086.9308162.06133616 1.3893688.13407455.4596952.06880659.9155818.1553063 1.367279.25399461.4520781.09986784.8999667.20209478 1.3448085.33616933l-.1919523.24023328c-.7533365-.4918688-1.7294747-.83393584-2.6816189-1.10365767-.9620464-.2803377-1.9568467-.459628-2.9722132-.61021614l-3.0487657-.45097803c-.5092067-.07588384-1.0176517-.16238355-1.5222881-.26539684-.5008278-.10812464-1.0149857-.21310384-1.4701106-.4214895M18.0651292 4.51218578c-.862482-.03444968-1.7245928-.06113606-2.5848471-.03299406-.4299415.00582248-.8591405.02765679-1.2861118.07084019-.4251149.04512424-.8539426.10431947-1.2545531.24648507l-.0397269-.3343075c1.1639609-.06162127 2.3063876.03978696 3.4543835.1208165 1.146882.08297036 2.2893087.23289927 3.4321067.37652049 1.1424267.14459163 2.2822544.32799981 3.4183694.54488726 1.1342585.21882828 2.2755713.44930152 3.3775286.87531311-1.1223776-.30956196-2.2651756-.44299383-3.4024044-.61427184l-3.4209683-.42552638-3.4254237-.35080453c-1.1398277-.10431947-2.2893087-.20718332-3.4191119-.18728984l-1.2181677.0213491 1.1784408-.3556566c.4373671-.13197625.8725066-.16885197 1.3069035-.19505314.4340256-.02328993.8673086-.02426034 1.2998491-.00970413.8643385.04075737 1.7264492.11596443 2.5837333.2493963M57.4177215 55.2911392c3.6097992 1.9854371 6.6162752 6.2793503 7.443038 8.5063292-1.1997657-2.275656-4.8092028-6.3988305-7.443038-8.5063292M65.9347045 64.8607595c.4503038.5175585.4279746 1.6692808-.010633 2.1265823-.0021265-.6094097.1589621-1.3136019.010633-2.1265823M60.6075949 56.3544304c1.7974708.8837347 3.9217919 4.0274176 4.2531646 5.3164557-.7042698-1.2613568-3.1143278-4.2463889-4.2531646-5.3164557M55.2911392 58.4810127c.2514345.3341931.8250394 1.3434563 1.0632912 2.1265822-.3665413-.4723263-.9658684-1.5785055-1.0632912-2.1265822M56.3544304 59.5443038c.7021872.6861102 1.8355506 2.6290412 2.1265823 3.1898734-.5434871-.359669-1.8755919-2.4323683-2.1265823-3.1898734M61.4151284 65.6044512c-1.2239657-1.632363-1.8708246-3.9335651-1.8708246-3.9335651s1.7731717 2.6964058 3.1898734 4.2531645c-.2632224-.1503492-2.3315555-2.3987143-2.5268614-2.7019902l.0932475-.1709685c.13877.4115273.9735924 2.1057482 1.1145651 2.5533593M61.6708861 69.1139241c.5166748.1638443 1.9216939.8118163 2.1265823 1.0632911-.4696595-.0737454-1.7920304-.7399223-2.1265823-1.0632911M56.3544304 63.7974684c.6597196 1.1657541 4.025764 4.4550863 5.3164557 5.3164557-1.4554374-.617071-5.0606762-4.0870575-5.3164557-5.3164557" fill="#000"/>
    <path d="M69.1139241 75.4936709c.426868.5929266 1.1231187 1.5212691 1.0591773 2.1265823-.3806881-.7135329-.522188-.9381214-.8093323-1.2239909-.1598535-.1593959-.2066254-.8217526-.249845-.9025914M48.9113924 57.4177215c.6935434.4278798 1.1458783 1.8998848 1.0506644 3.1898734-.2539036-.8487045-.7200377-2.4720372-1.0506644-3.1898734M51.2600951 60.6075949c.0994177.1831243.1063291.3617737.091443.5390463-.0260506.1772726-.0744304.352824-.2158481.5242449-.0999494-.1831243-.1068608-.3617737-.091443-.5393905.0271139-.1765841.0754936-.3524798.2158481-.5239007M51.3197187 61.6708861c.0813418.200962.0728355.3838481.0425317.562481-.042.1759747-.1052658.3476962-.2599747.5008101-.0818734-.2014937-.0728354-.3843797-.0425316-.5630126.0425316-.1754431.1057974-.3471646.2599746-.5002785M39.3417722 47.3047471c.2072891.5397733.8775372 1.8010033 1.1965344 2.2702894l-.0806343.2864718c-.6143941-2.5179367-.5888271-6.2665716-.5888271-6.2665716s1.8014883 5.8790808 3.7260915 8.5063291c-2.1267789-2.0614665-3.3099399-6.4324237-3.5254891-7.0977169l.2021758.1470053c.1888022 4.1922893.6808682 5.5632079.6808682 5.5632079s-1.2386216-1.3249323-1.6107194-3.409015" fill="#000"/>
    <path d="M42.5316456 51.0379747c.268771 1.2607746.7454282 2.4656663 1.0632911 3.1898734-.3740854-.4443379-.890784-1.2262453-1.0632911-3.1898734M35.4868775 33.4177719c1.4445021-1.2392614 2.7916035-1.5190377 2.7916035-1.5190377-1.5947303 1.9411687-3.1898734 5.3164557-3.1898734 5.3164557.2959166-1.7237607 1.8419466-3.8580245 2.2447563-4.7431608l.2166753.1286125c-.405286.066949-1.7420695.652929-2.0631617.8171303M34.0253165 32.9620253c.1297944-.2397905.2960335-.4315495.4705846-.6115757.1796662-.1745264.3676443-.33732.5927065-.4517154-.1294747.2401571-.2957139.4315495-.4705847.6119424-.1796661.1737931-.3679639.3365866-.5927064.4513487M37.2151899 37.2151899c-.1498197.5324146-.2776864 1.0609248-.3905326 1.5880153-.1074542.5274454-.1968068 1.0556007-.2203004 1.5830461-.0319667.5207015.0046217 1.0644743.0392843 1.5986636.0496832.5348992.0955149 1.0733479.2206856 1.6100218-.290396-.4844973-.4579322-1.0261404-.5665418-1.5688484-.1074542-.5462574-.1656105-1.0935796-.139806-1.6607786.0346626-.56152.1482791-1.1120367.3296803-1.640192.1740835-.5295751.4178775-1.0385634.7275306-1.5099278M28.7088608 31.8987342c.1981095-.1606771.3455309-.3639118.5157813-.5467362.1632856-.1893384.3308275-.3756369.4999171-.5601983.3439832-.3643461.6941573-.7226124 1.1108838-1.0196478-.2294511.4915849-.5440274.902397-.8880106 1.2806394-.1772152.1836929-.3586866.3634775-.5626002.5154693-.2004311.1502547-.4260129.2983382-.6759714.3304736M24.4556962 29.7721519c1.521548-.98875 2.8463721-2.1385737 4.0840036-3.4751822 2.4327474-2.9545288 4.4223255-3.9678558 4.4223255-3.9678558s-1.438679 1.4939011-3.164157 4.0245718c.2968875-.6768116 1.6321603-2.7125402 2.1744122-3.3008748l.0785454.2166553c-1.1648507.822383-2.6918033 2.4478653-3.3291745 3.1091746-1.2552861 1.3328275-2.6528909 2.5707501-4.2659552 3.3935111M34.0253165 20.2025316c-.4748009.2698832-.8401496.662896-1.2161766 1.0351485-.3706879.3804851-.7310789.7699186-1.0842239 1.1672266-.7070528.7931843-1.4221143 1.5831472-2.1615832 2.3566451-.7459522.767055-1.511354 1.5230141-2.3476899 2.2109655-.8321409.6861617-1.7336904 1.3329505-2.7599467 1.7363435l.6879845-.430596c.2158532-.1607129.434376-.3160568.6452715-.4796332l.620864-.5057623.592643-.535471c.7753173-.7283981 1.5239391-1.4825675 2.2595943-2.2517701.7425199-.7624019 1.4652087-1.5452061 2.2309919-2.2957962.7726477-.7309036 1.5212695-1.5484275 2.5322711-2.0073004M28.7088608 22.3291139c-1.0826094 1.7049388-2.9517467 2.6033205-4.2531646 3.1898734 1.6597908-1.0224385 3.4682136-2.4091771 4.2531646-3.1898734M27.6455696 21.2658228c.5864932-.7140846 1.2549608-1.3208347 1.9547133-1.8796835.3528463-.2745455.7159889-.5357852 1.0961601-.7659777.376607-.2319666.7781628-.4368778 1.2022912-.5442122-.3718549.2461596-.7116329.5286887-1.0605191.800573l-1.0399264.8258544c-.6993565.5433252-1.398713 1.087981-2.1527191 1.563446M31.8987342 19.1392405c.4192884-.574359.9258558-1.0287569 1.4613998-1.402272.538337-.3657903 1.1234555-.6416099 1.7284736-.7243103-.2817367.1494969-.5620769.2812723-.8326418.4466732-.2698667.1640376-.5397334.3258033-.8015705.5111976-.5289108.3571568-1.0393185.7565726-1.5556611 1.1687115" fill="#000"/>
    <path d="M24.4556962 25.5189873c.1933707-.0657678 1.1907175-.5885046 1.6406763-.6500801.62548-.0856817 1.0058997-.1836785 1.5491971-.413211-1.2052203.7651085-2.4357275.9804917-3.1898734 1.0632911M25.5189873 23.3924051c-.5536025.2480419-.9846831.6186304-1.4702634.9407246-.4720578.3352007-.9588675.6599162-1.4624778.9718527-.5085276.3057109-1.0301678.6042133-1.6026199.8450466-.5630273.2388674-1.1961257.4489003-1.8443857.4312064.6187564-.1310657 1.1338403-.4128572 1.6517926-.6851463.5118058-.2821191 1.0092695-.5861917 1.5067332-.8932133.502381-.3017789 1.0002545-.6130602 1.5231241-.9023879.520411-.2817914 1.0633595-.5930726 1.6980969-.7080828M29.7721519 13.8227848c-.2104201.1178402-.4208401.2316858-.6323835.3395395l-.6155348.3667026c-.4069869.248463-.810604.5017195-1.2018655.7777451-.785144.5460594-1.561302 1.1064992-2.3269764 1.686912-.7716651.5716246-1.5309745 1.1664179-2.3187394 1.7240615-.7858927.5520513-1.5774017 1.1380564-2.4741207 1.4847861.4099822-.2532565.7881393-.5480566 1.1610546-.8532427.3755361-.3011914.748077-.6075759 1.1168738-.9203516.7387167-.6235543 1.4927843-1.2299318 2.2648238-1.8143392.7772813-.5752198 1.5706623-1.1332629 2.4074752-1.6134116.8338176-.4821461 1.7013324-.9183544 2.6193929-1.1784017" fill="#000"/>
    <path d="M24.4556962 15.9493671c.3669514-.3291486.7994018-.5681137 1.2298792-.7833902.4328449-.2148609.8775269-.39689 1.3249709-.5697761.8992284-.3303953 1.813845-.6142444 2.7616056-.773416-.8664789.4322153-1.7558429.7763251-2.6463907 1.1142011l-1.3395701.4899825c-.4442874.1695614-.894888.3137717-1.3304949.5223987M35.0886076 13.8227848c-.931263.246028-1.8267998.5749868-2.7163822.9229012-.8879945.3530482-1.7652713.7246571-2.6000735 1.2036811.3620255-.3198759.7776403-.5749868 1.2007973-.8067981.4239509-.2333909.865765-.4308452 1.3143273-.6097387.4505471-.1741547.9074455-.3329079 1.3758557-.4549346.4664254-.1232115.9423778-.2270724 1.4254754-.2551109M20.2025316 16.0465464c-.2524589.0115089-.500942.0084624-.7482325.0213253-.2480856.0257257-.4945809.0382501-.7390884.0744692-.4906051.0588985-.9760419.1408147-1.4579005.2386403-.9625244.1986976-1.9166998.4342913-2.8712728.6790245-.9573559.2362707-1.9131216.4891278-2.8919466.685456-.974054.1932816-1.97951635.3770854-2.98776169.3198794.49815908-.0616064.98478853-.1289673 1.46267138-.2535341.48146101-.1005335.95656081-.2264543 1.42967281-.3574526.9466215-.2626735 1.8964236-.52467 2.8565626-.7710956.9621269-.2362708 1.9337955-.4657716 2.9332942-.5974468.9931376-.1333677 2.0232494-.20716 3.0140015-.0392656M30.835443 9.60434276c-.445855.03206288-14.5070052 1.03799514-21.26582275 2.09185974C16.2048605 10.2323217 27.6483492 9.38346517 30.835443 9.60434276" fill="#000"/>
    <path d="M26.7806811 8.53375119c-1.2991698.20613113-4.1120782.58390451-4.5375416.75514574l-.1752557-.09544593c3.9096341-.20853732 7.9368401.22578176 8.7675592.37616925-3.5716147 0-10.6329114-.19490219-10.6329114-.19490219 1.8050966-.61839338 5.9965359-.97290683 6.5781495-.84096687M46.7848101 8.55572305c.3478971-.10420253.8409555-.03987341 1.0632912.15843038-.3264598.10792405-.8672928.04093671-1.0632912-.15843038M47.8481013 9.61411904c.1902696-.06911393.3707904-.04731646.5486219-.00478481.1764868.05475949.3506205.13131645.5146692.29931645-.1902696.07017722-.3704543.04837975-.5482858.00478481-.1768229-.05529114-.3509566-.1318481-.5150053-.29931645M49.9746835 11.6534915c.2813327-.1110755 1.0615679-.2747027 1.3476397-.3153109l-.0193874.1821398c-.47176-.3451699-.7681718-.495062-1.3101573-.887409.9318876.2818688 2.1084873.9435439 2.1084873.9435439s-1.1102517.2066242-2.1265823.0770362M51.468737 11.7341594c1.0949846-.1030138 2.7591111.036295 2.7591111.036295s-1.3462998.5679103-1.8373242.7477842l-.033479-.1446464c.7142174.0448351 1.0963237.1040813 1.8083092.2524639-1.3610305.03843-3.1273794.1334376-3.1273794.1334376s1.5788668-.6698566 2.0703376-.846528l.0745465.2188377c-.4137997-.0907376-.8012627-.2135002-1.7141218-.397644M53.164557 12.8182513c.7307031-.1122678 2.0842944-.0291352 2.0842944-.0291352s-.6476513.3733194-.8583285.4855872l-.0384781-.1569418c.6933679.0905135 2.2023956.3709886 2.2023956.3709886s-.7006064.6328173-.9272844.8317138l-.1386736-.25639c.5085968.1013906 2.1524884.4063394 2.9925303.822002-2.3330688-.4253744-3.4976983-.4214897-3.4976983-.4214897s.8088022-.6992456 1.0229081-.9113501l.0518121.1763653c-1.224442-.2338588-2.3498315-.4121664-2.3498315-.4121664s.3211589-.1748114.7939444-.386139l-.0464785.0916789c-.4552608-.1017791-.7211788-.135576-1.291112-.2047236M69.1139241 11.6962025c.2027967.0130886.3899529.1427279.5710119.30727.0893366.0897502.1784082.1838633.2613825.309763.0829744.1227833.166744.2574087.2308967.4462582-.1953741-.1065784-.3743124-.2362177-.5529856-.4044994-.1760223-.1763842-.3499238-.3671035-.5103055-.6587918" fill="#000"/>
  </g>
</svg>
