<svg id="Layer_1" data-name="Layer 1" xmlns="http://www.w3.org/2000/svg" viewBox="0 0 260.82 24.88"><title>sleepless_2019_type_1-color_white</title><path d="M223,10.1l-3.08-.88c-2.35-.63-2.5-1.51-2.5-2,0-1.16,1.09-1.93,2.85-1.93,2,0,2.81.95,2.81,2.25h6.53c0-4.79-3.95-7.57-9.26-7.57s-9.42,3-9.42,7.43c0,2.21,1,5.66,7,7.14l3.17.95c2.69.81,2.69,1.62,2.69,2,0,1.51-1.64,2.18-3.32,2.18-2.27,0-3.24-1.06-3.32-2.36h-6.61c0,4.58,3.91,7.53,9.93,7.53,4.54,0,10-2,10-7.39C230.43,15.77,230,12.07,223,10.1Z" style="fill:#fff"/><path d="M12.43,10.1,9.34,9.22c-2.34-.63-2.5-1.51-2.5-2,0-1.16,1.09-1.93,2.85-1.93,2,0,2.82.95,2.82,2.25H19C19,2.78,15.09,0,9.77,0S.35,3,.35,7.43c0,2.21,1,5.66,7,7.14l3.16.95c2.7.81,2.7,1.62,2.7,2,0,1.51-1.64,2.18-3.32,2.18-2.27,0-3.25-1.06-3.32-2.36H0c0,4.58,3.91,7.53,9.93,7.53,4.53,0,10-2,10-7.39C19.89,15.77,19.5,12.07,12.43,10.1Z" style="fill:#fff"/><path d="M253.35,10.1l-3.08-.88c-2.35-.63-2.5-1.51-2.5-2,0-1.16,1.09-1.93,2.85-1.93,2,0,2.81.95,2.81,2.25H260C260,2.78,256,0,250.7,0s-9.42,3-9.42,7.43c0,2.21,1,5.66,7,7.14l3.17.95c2.69.81,2.69,1.62,2.69,2,0,1.51-1.64,2.18-3.32,2.18-2.27,0-3.24-1.06-3.32-2.36h-6.61c0,4.58,3.91,7.53,9.93,7.53,4.54,0,10-2,10-7.39C260.82,15.77,260.43,12.07,253.35,10.1Z" style="fill:#fff"/><polygon points="38.78 0.32 32.18 0.32 32.18 24.57 48.48 24.57 48.48 18.86 38.78 18.86 38.78 0.32" style="fill:#fff"/><path d="M130,18.26h4.61c6.33,0,9.23-4.42,9.23-9s-2.9-9-9.23-9H123.46V24.57H130ZM130,6h4.3c2.15,0,2.93,1.68,2.93,3.29s-.78,3.32-2.93,3.32H130Z" style="fill:#fff"/><polygon points="159.91 0.32 153.31 0.32 153.31 24.57 169.6 24.57 169.6 18.86 159.91 18.86 159.91 0.32" style="fill:#fff"/><polygon points="78.07 18.86 66.78 18.86 66.78 15.24 72.94 15.24 75.39 9.65 66.78 9.65 66.78 6.02 77.72 6.02 77.72 0.32 60.25 0.32 60.25 24.57 78.07 24.57 78.07 18.86" style="fill:#fff"/><polygon points="109.57 18.86 98.27 18.86 98.27 15.24 104.44 15.24 106.89 9.65 98.27 9.65 98.27 6.02 109.22 6.02 109.22 0.32 91.75 0.32 91.75 24.57 109.57 24.57 109.57 18.86" style="fill:#fff"/><polygon points="198.63 18.86 187.33 18.86 187.33 15.24 193.5 15.24 195.95 9.65 187.33 9.65 187.33 6.02 198.28 6.02 198.28 0.32 180.81 0.32 180.81 24.57 198.63 24.57 198.63 18.86" style="fill:#fff"/></svg>